<?xml version="1.0" encoding="utf-8"?>
<!-- Generator: Adobe Illustrator 18.0.0, SVG Export Plug-In . SVG Version: 6.00 Build 0)  -->
<!DOCTYPE svg PUBLIC "-//W3C//DTD SVG 1.1//EN" "http://www.w3.org/Graphics/SVG/1.1/DTD/svg11.dtd">
<svg version="1.1" id="Layer_1" xmlns="http://www.w3.org/2000/svg" xmlns:xlink="http://www.w3.org/1999/xlink" x="0px" y="0px"
	 viewBox="0 0 30 30" enable-background="new 0 0 30 30" xml:space="preserve">
<path fill="#E2565C" d="M22.6,8.4C21.7,7.5,20.5,7,19.2,7c-1.3,0-2.5,0.5-3.4,1.4c-0.3,0.3-0.6,0.7-0.8,1.1
	c-0.2-0.4-0.5-0.8-0.8-1.1C13.3,7.5,12.1,7,10.8,7C9.5,7,8.3,7.5,7.4,8.4C6.5,9.3,6,10.6,6,11.9c0,1.3,0.5,2.5,1.4,3.4l6.8,7.3
	c0.2,0.2,0.5,0.4,0.8,0.4c0.3,0,0.6-0.1,0.8-0.4l6.8-7.3c0.9-0.9,1.4-2.1,1.4-3.4C24,10.6,23.5,9.3,22.6,8.4z"/>
</svg>
