<?xml version="1.0" standalone="no"?>
<!DOCTYPE svg PUBLIC "-//W3C//DTD SVG 1.1//EN" "http://www.w3.org/Graphics/SVG/1.1/DTD/svg11.dtd" >
<svg xmlns="http://www.w3.org/2000/svg">
<metadata></metadata>
<defs>
<font id="billabongregular" horiz-adv-x="739" >
<font-face units-per-em="2048" ascent="1638" descent="-410" />
<missing-glyph horiz-adv-x="419" />
<glyph horiz-adv-x="0" />
<glyph unicode="&#xd;" horiz-adv-x="419" />
<glyph unicode=" "  horiz-adv-x="419" />
<glyph unicode="&#x09;" horiz-adv-x="419" />
<glyph unicode="&#xa0;" horiz-adv-x="419" />
<glyph unicode="!" horiz-adv-x="606" d="M143 66q0 1 8 6q7 4 7 10q0 10 -13 12q33 50 85 72q51 22 87 22q14 0 35 -6t42 -15q23 -10 41 -21q23 -14 30 -21q5 -5 7 -13q1 -5 1 -15q0 -7 3 -14t13 -13q-12 -33 -64 -60q-51 -26 -132 -26q-25 0 -54 8q-27 8 -49 20q-18 10 -33 27q-14 16 -14 27zM158 1253 q0 32 10 46q11 16 27 20q5 -4 16 -10q12 -7 45 -11q86 -7 135 -17q45 -9 45 -56q0 -33 -9 -68t-21 -87q-14 -61 -22 -132q-9 -79 -9 -203q0 -18 1 -36t1 -59t1 -59t1 -38l18 -248q0 -27 -10 -34t-25 -7q-4 0 -34 5t-56 16q-29 12 -52 28t-23 39q0 87 2 209t2 166 q0 113 -1 157q-2 66 -3 114q-1 37 -7 84q-6 45 -10 67q-5 29 -13 59q-9 33 -9 55z" />
<glyph unicode="&#x22;" horiz-adv-x="823" d="M143 831v381q0 57 4 84q5 32 16 49q12 17 33 22q23 5 54 5h4q22 0 49 -14q29 -15 29 -58v-16q2 -33 -8 -56q-10 -25 -15 -59l-37 -354q-4 -32 -26 -44q-21 -11 -45 -11q-21 0 -39 12q-19 13 -19 59zM492 831v381q0 57 4 84q5 34 15 49q12 17 33 22q23 5 54 5h4 q22 0 49 -14q29 -15 29 -58v-16q2 -33 -8 -56q-10 -25 -15 -59l-36 -354q-4 -32 -26 -44q-19 -11 -46 -11q-21 0 -39 12t-18 59z" />
<glyph unicode="#" horiz-adv-x="1265" d="M23 504v2q0 25 10 45t49 20h6q54 -2 80 -2h80h47l32 127q21 84 29 113h-139q-51 0 -90 18t-39 70v2q0 25 10 45q10 21 49 21h7q54 -2 79 -2h80h80q27 100 44 174q20 86 24 206q0 29 12 39q13 11 39 11q39 0 81 -22q39 -20 50 -64q-21 -156 -68 -344h277q27 97 43 172 q17 83 22 204q0 28 13 39t39 11q39 0 81 -22q39 -20 50 -64q-10 -78 -27 -162q-17 -86 -39 -176h139q32 -1 45 -33q11 -27 11 -60q0 -26 -11 -43q-12 -18 -49 -18h-174l-61 -240h174q32 -1 44 -32q11 -28 11 -60q0 -26 -11 -43q-12 -18 -48 -18h-209q-18 -79 -37 -187 q-16 -92 -16 -165q9 -18 10 -27q2 -16 2 -27q0 -23 -10 -36t-39 -13q-31 0 -54 11q-24 11 -46 30q-19 16 -32 41q-11 21 -11 43q0 51 15 138q13 75 38 192h-277q-23 -94 -35 -185q-12 -92 -18 -163q9 -14 10 -27q2 -20 2 -27q0 -22 -10 -35q-11 -14 -39 -14q-30 0 -55 11 q-26 12 -46 30q-18 17 -31 41q-11 21 -11 43q0 51 15 138q13 78 38 186h-106q-52 0 -91 18q-38 18 -38 70zM475 569h277q26 105 32 128q17 63 29 114h-274q-22 -80 -32 -120t-32 -122z" />
<glyph unicode="$" horiz-adv-x="1015" d="M27 858q0 76 35 134q37 62 98 105q62 44 143 69q86 27 172 28q-1 86 -6 135t-12 72l-8 24q29 10 59 15q39 6 61 6q47 0 67 -23q19 -22 19 -71q0 -41 -6 -77q-7 -40 -8 -81q77 -7 130 -16q64 -11 105 -31q44 -21 69 -55q26 -35 26 -91v-4q0 -44 -13 -78q-14 -36 -22 -49 q-2 1 -4 2.5t-3 1.5t-3 2t-4 3q-16 11 -39 18q-55 25 -118 41q-62 16 -130 23q-1 -16 -2.5 -32.5t-2.5 -35t-2 -27.5q-4 -54 -5 -79q0 -12 -2 -37.5t-3 -39.5q0 -10 -1.5 -41t-2.5 -50q105 -37 173 -73q69 -36 111 -72q41 -35 58 -72t17 -70q0 -27 -11 -41q-11 -13 -28 -26 q-5 -4 -11 -7.5t-13 -7.5t-12 -7q-20 -12 -36 -36q-17 -26 -47 -43q-31 -18 -62 -26q-35 -9 -70 -12q-36 -3 -69 -3q0 -45 7 -96q5 -40 14 -72q24 -24 24 -43q0 -17 -22 -27q-21 -10 -55 -10q-54 0 -79 7q-27 8 -41 23q-15 16 -16 39q-2 32 -2 56v22q0 21 1 33q1 6 2.5 18.5 t1.5 18.5q1 7 3 19l1 12q-26 4 -53.5 7.5t-57 7.5t-43.5 6q-66 9 -111 24q-46 15 -67 38q-23 25 -23 62q0 17 1 30q2 20 6 38q4 16 16 33q10 14 31 14q10 0 18 -12t37 -23q50 -19 119 -37q54 -14 135 -26q5 66 6 115q1 19 2.5 50.5t1.5 41.5l-43 14q-51 17 -139 50 q-69 26 -130 68q-60 42 -96 96q-36 55 -36 138zM195 868q0 -23 8 -44q7 -19 27 -37q16 -15 55 -35q46 -24 90 -43l104 -41v63q0 43 -1 66t-1 76v98q-131 -1 -209 -27q-73 -24 -73 -76zM610 279q21 -3 24 -3h25q13 0 55 2q41 2 60 5q33 5 49 11q21 8 21 21q0 17 -24 35 q-25 19 -58 36q-27 14 -76 34q-43 18 -76 29v-170z" />
<glyph unicode="%" horiz-adv-x="1644" d="M39 942q0 52 10 121q10 71 39 136q28 63 79 111q49 46 128 46q32 0 79 -5q39 -4 82 -17q47 -14 74 -28q38 -20 60 -42q25 -25 46 -64q21 -40 36 -82q14 -41 22 -85q8 -45 8 -75v-84q0 -46 -17 -97q-19 -56 -49 -101q-32 -48 -77 -79q-46 -32 -100 -32l-172 15 q-76 16 -124 54q-49 38 -76 88q-28 51 -38 107q-10 54 -10 113zM203 954q0 -35 6 -86q6 -54 23 -97q18 -46 48 -79t78 -33h60q50 0 77 33q28 34 41 78q12 40 17 89q4 39 4 67t-3 70q-3 43 -12 83q-9 38 -23 77q-13 36 -36 54q-24 19 -52 26t-58 7q-57 0 -91 -30t-52 -73 q-17 -42 -22 -94q-5 -55 -5 -92zM399 31v6q0 22 28 86q21 47 73 143q33 61 99 176q30 53 108 184q59 100 99 164q50 80 73 119q40 68 59 99q33 54 56 96q41 75 55 104q21 44 53 123q11 29 25 39t38 10q26 0 52 -13q25 -13 30 -42q2 -2 2 -12q0 -13 -2 -19 q-47 -100 -127 -241q-90 -157 -157 -268q-129 -211 -170 -281q-93 -156 -164 -285q-9 -16 -21 -41q-9 -19 -19 -46q-4 -12 -17 -42q-3 -6 -6.5 -16t-4.5 -13q-1 -32 -14 -63q-12 -31 -45 -37l-13 -2q-27 0 -55 23t-35 49zM909 350q0 46 11 121t38 136q28 63 79 111 q49 46 128 46q32 0 79 -5q28 -3 82 -17q49 -15 75 -28q36 -19 59 -42q25 -25 46 -64q21 -40 36 -82q16 -47 23 -85q8 -45 8 -74v-84q0 -44 -18 -98q-19 -56 -49 -101q-33 -49 -76 -79q-46 -32 -101 -32l-172 15q-76 16 -124 54q-49 38 -76 88q-26 47 -37 108q-11 60 -11 112 zM1073 362q0 -35 6 -86q6 -50 24 -97q18 -48 47 -79q29 -32 79 -32h59q51 0 77 32q28 34 41 78q12 40 17 89q4 39 4 67t-3 70q-3 43 -12 83q-10 45 -22 77q-14 36 -36 54q-24 19 -52 26t-59 7q-58 0 -91 -29q-32 -28 -51 -74q-19 -45 -23 -94q-5 -55 -5 -92z" />
<glyph unicode="&#x26;" horiz-adv-x="1013" d="M55 307q0 48 34 91q38 47 83 79q52 36 107 58q57 23 106 24q-26 8 -57 11q-32 3 -64 19q-30 15 -56 53t-38 116q-9 21 -31 58q-18 30 -18 65q0 50 28 88q26 35 70 68t87 52q35 16 83 35q58 22 119 34q55 11 84 11q40 0 80 -11q45 -12 81 -34q39 -24 62 -59q25 -39 25 -88 q0 -15 -15 -59q-17 -49 -38 -90q-23 -45 -52 -80t-59 -35q-18 0 -34 8q-15 7 -15 31q0 41 19 56q20 16 44 23q15 5 44 18q20 9 20 40q0 34 -14 59q-15 27 -33 40q-24 17 -47 24q-27 8 -48 8q-37 0 -92 -11q-61 -12 -118 -37t-100 -68q-42 -42 -42 -101t26 -97q28 -40 68 -60 q48 -23 100 -30q61 -8 117 -8q61 0 102 7q46 8 58 8q11 0 17 -17q5 -14 10 -37q3 -14 5 -40q1 -13 1 -23q0 -39 -27 -39q-3 0 -11 8t-24 8q-62 0 -139 -13q-80 -14 -152 -45q-74 -32 -123 -83q-50 -52 -50 -127q0 -52 35 -81t81 -43q43 -13 83 -16q37 -3 40 -3h-8 q108 0 179 49q72 50 119 122q46 71 67 156q20 80 20 154v57q0 8 -2 28q-2 15 -6 21q13 9 15 10q3 1 13 1q46 0 64 -37q18 -38 18 -68v-17q0 -4 -0.5 -11.5t-1 -22t-0.5 -25.5q0 -12 -2 -56t-3 -77q-3 -85 -9 -241q0 -7 8 -20q11 -17 13 -23q-6 -25 -46 -33q-42 -8 -73 -8 q-22 0 -36 14t-38 14q-18 0 -44 -12q-35 -16 -65 -28q-39 -15 -93 -27t-132 -12q-117 0 -197 56q-83 59 -133 167q-12 23 -29 42q-20 22 -20 62z" />
<glyph unicode="'" horiz-adv-x="475" d="M143 831v381q0 57 4 84q5 32 16 49q12 17 33 22q23 5 54 5h4q22 0 49 -14q29 -15 29 -58v-16q2 -33 -8 -56q-10 -25 -15 -59l-37 -354q-4 -32 -26 -44q-21 -11 -45 -11q-21 0 -39 12q-19 13 -19 59z" />
<glyph unicode="(" horiz-adv-x="589" d="M143 354q0 233 51 491q50 251 111 486q10 3 14 4q7 1 23 3q4 0 11.5 0.5t11.5 1.5q7 1 12 1q15 0 44 -8q26 -7 53 -20q22 -10 45 -28q20 -15 20 -30q0 -11 -13 -22q-32 -17 -49 -47q-16 -27 -22 -51q-43 -189 -64 -345q-22 -163 -22 -327q0 -152 19 -279q19 -125 61 -247 q6 -17 18 -31q14 -17 14 -23q0 -7 -15 -15q-10 -5 -34 -13q-29 -10 -49 -13q-60 0 -115 22q-52 21 -100 75q-1 1 -6 32q-2 14 -8 85q-5 66 -8 130q-3 76 -3 168z" />
<glyph unicode=")" horiz-adv-x="589" d="M51 -57q0 12 12 22q33 18 51 47q16 25 21 51q43 188 64 346q22 163 22 326q0 152 -19 279q-19 126 -61 248q-6 15 -18 30q-14 17 -14 23q0 7 15 15q10 5 34 13q29 10 49 13q60 0 115 -22q53 -21 100 -74q1 -1 6 -33q2 -14 8 -85q4 -43 7 -130q3 -76 3 -168 q0 -121 -13 -241q-14 -130 -37 -249q-27 -140 -52 -248q-21 -92 -59 -239q-10 -3 -15 -4q-14 -2 -22 -3q-4 0 -11.5 -0.5t-11.5 -1.5q-7 -1 -12 -1q-15 0 -44 8q-26 7 -53 20q-22 10 -45 28q-20 15 -20 30z" />
<glyph unicode="*" horiz-adv-x="806" d="M96 981q0 28 19 47t49 19q21 -8 57 -22t50 -20q52 -20 106 -38q-5 61 -6 118q-2 80 -2 119q5 19 22 28q18 9 39 9q22 0 39 -10q19 -11 23 -31q-4 -62 -6 -118q-1 -36 -1 -115q51 22 110 42q20 7 57 19.5t53 18.5q29 0 47 -20q18 -19 18 -44q0 -29 -29 -47 q-7 -2 -50.5 -14t-65.5 -18q-56 -15 -111 -32q1 -1 3 -4q1 -1 3 -4q16 -18 42 -48q31 -37 48 -58q19 -24 39 -55q17 -26 17 -37q0 -26 -20 -44t-48 -18q-24 0 -60 46t-108 159q-9 -14 -35 -58q-24 -41 -43 -69q-20 -29 -45 -56q-23 -24 -41 -24q-27 0 -49 19q-20 17 -20 43 q0 3 4 18l2 2q46 52 76 92q62 80 71 92q-38 10 -81 21q-54 13 -82 22q-37 12 -64 30t-27 40z" />
<glyph unicode="+" horiz-adv-x="1341" d="M31 645q0 24 13 41q14 19 62 19q29 0 79 -2q25 -1 79 -1h334q0 88 -1 131t-1 123v179q0 55 17 93q18 40 65 40q24 0 44 -12q19 -12 19 -58q0 -54 -1 -80t-1 -80v-336q171 0 254 1q166 2 250 2q39 -4 52 -31q14 -28 14 -51q0 -22 -14 -39t-56 -17h-500q0 -171 1 -254 t1 -254q0 -35 -30 -47t-54 -12t-42 12q-17 11 -17 51v504q-87 0 -129 -1t-123 -1h-176q-54 0 -97 17q-42 16 -42 63z" />
<glyph unicode="," horiz-adv-x="366" d="M61 80q0 6 4 12q1 2 7 17q6 30 23 47q16 16 39 29q22 13 44 17q25 5 39 5q25 0 50 -9t48 -27q22 -18 37 -43t15 -56q0 -40 -24 -71q-26 -34 -56 -53q-34 -21 -70 -33q-34 -11 -61 -11q-9 0 -18 3t-13 13q14 0 30 4q20 5 32 11q15 8 26 20q10 11 10 31q0 12 -25 19 q-23 7 -56 15q-25 6 -55 22q-26 14 -26 38z" />
<glyph unicode="-" horiz-adv-x="741" d="M123 496q0 28 12 46q11 17 47 17h6q13 -1 25 -4q4 -1 14 -3q5 -1 26 -1h56q93 0 150 3q60 3 108 13l8 -10q15 -21 18 -26q11 -18 17 -33q8 -19 8 -37q0 -31 -16 -57q-16 -27 -72 -27h-12q-30 0 -88 5q-60 5 -149 5h-33q-46 0 -86 31q-39 30 -39 78z" />
<glyph unicode="." horiz-adv-x="399" d="M61 68v10q0 23 22 45q19 19 51 35q24 12 62 21q29 7 52 7q20 0 44 -10q28 -12 50 -28q29 -22 42 -37q17 -20 17 -41q0 -14 -23 -28q-27 -17 -54 -29q-28 -13 -60 -21q-30 -8 -41 -8q-46 0 -81 19q-40 21 -74 36q6 6 6 16q0 8 -13 13z" />
<glyph unicode="/" horiz-adv-x="937" d="M66 -27q0 29 29 99q22 54 77 170q38 82 106 210q19 35 56.5 107.5t56.5 108.5l56 104t47 87q51 95 73 132q10 16 65 109q36 60 66 117q34 65 52 107q20 47 20 79v8q0 7 15 14q22 11 36 16t40 13q19 6 28 6q8 2 18 2q31 0 56 -17q26 -17 26 -50q0 -9 -2 -19 q-60 -121 -139 -264q-90 -163 -178 -316q-126 -220 -189 -331q-86 -151 -172 -307q-4 -7 -20 -41q-14 -30 -20 -46q-13 -36 -16 -42t-6.5 -16t-4.5 -13q-1 -26 -9 -57q-6 -25 -38 -31q-8 -2 -19 -2q-32 0 -68 18t-42 41v4z" />
<glyph unicode="0" horiz-adv-x="1024" d="M55 594q0 54 6 123q5 61 22 143q14 67 40 146q23 70 63 128q38 55 94 91q55 35 126 35q9 0 32 -5q28 -6 43 -9l45 -10q21 -4 37 -9q16 -3 77 -16q43 -9 65 -17q31 -11 59 -30q31 -21 59 -52q37 -42 64 -101q27 -61 49 -133q18 -62 32 -140q11 -63 11 -120v-135 q0 -64 -14 -130q-15 -69 -42 -136q-27 -66 -71 -119q-46 -55 -100 -78q-10 -6 -52 -21q-30 -11 -53 -11h-112q-26 0 -68 8q-27 5 -68 16q-60 17 -99 31q-48 17 -87 53q-49 46 -78 104q-30 59 -48 128q-17 65 -25 136q-7 64 -7 130zM238 614q0 -65 10 -148q11 -88 39 -167 q28 -78 80 -136q51 -57 133 -57h86q46 0 86 28q36 25 67 69q29 41 47 89q20 53 25 87q8 51 11 92q3 45 3 92q0 42 -5 119q-5 73 -19 140q-16 75 -38 133q-25 64 -61 98q-37 34 -86 46q-45 11 -96 11q-93 0 -150 -51q-56 -50 -85 -126q-29 -77 -38 -161q-9 -86 -9 -158z" />
<glyph unicode="1" horiz-adv-x="501" d="M141 -31v867q0 176 7 282q8 117 30 185q10 22 41 22q15 0 31 -11q22 -15 38 -27q17 -13 37 -33q13 -13 27 -29q6 -8 8 -21q2 -16 2 -22q-1 -14 -11 -64q-9 -46 -9 -94v-786q0 -99 7 -161q8 -67 30 -118q-7 -10 -34 -18q-31 -9 -60 -9h-47h-15q-15 0 -33 3q-16 3 -33 11 q-16 8 -16 23z" />
<glyph unicode="2" horiz-adv-x="966" d="M16 129q0 8 8 34q10 32 17 49q18 44 20 48q11 22 19 31q29 29 67 62q46 40 68 59q8 7 38.5 33.5t50.5 44.5q58 51 110 102q57 56 114 117q61 66 103 126q44 64 72 128q28 65 28 120q0 67 -41 102q-40 34 -104 34q-90 -1 -145 -33q-51 -29 -81 -75q-27 -41 -43 -94 q-22 -71 -31 -94q-19 -46 -46 -73q-29 -29 -88 -29q-45 0 -64 25q-18 24 -18 65q0 80 43 156q42 74 112 135q66 58 158 95q89 36 178 36q39 0 97 -30q57 -29 114 -80q55 -49 94 -112t39 -124q0 -65 -46 -144q-45 -78 -116 -159q-74 -85 -150 -157q-119 -112 -151 -143 q-59 -57 -115 -116q-46 -49 -46 -73q0 -13 28 -17q25 -4 41 -4h334q44 0 71 -3q28 -3 45 -17q16 -14 24 -43q7 -27 7 -82q0 -23 -10 -23q-3 0 -17 3t-32 3q-35 0 -49 -1t-38 -1t-36 -1t-43 -1q-86 -1 -186 -6q-88 -4 -187 -4q-37 0 -70 4q-43 5 -71 18q-34 15 -54 40 q-22 27 -22 69z" />
<glyph unicode="3" horiz-adv-x="966" d="M14 227q0 37 24 57q23 19 50 19q66 0 95 -25q31 -26 55 -67q14 -21 17 -37q3 -14 30 -35q13 -9 40 -17q25 -8 54 -12q48 -8 55 -8q36 -2 45 -2q38 0 89 8t91 26q45 20 72 53q29 35 29 85q0 55 -35 95q-32 37 -88 62q-50 23 -117 34q-60 10 -121 10q-51 0 -78 -4 q-33 -5 -47 -10q-13 13 -14 39q-2 36 -2 45v6q0 2 0.5 5t1 9t0.5 12q2 21 6 42t9 39t14 18l28 -2q58 0 135 26q76 26 150 72q75 47 122 104q50 61 50 123q0 51 -19 80q-19 30 -50 48q-29 18 -69 24q-37 6 -77 6q-63 0 -101 -11q-43 -12 -72 -34t-49 -57q-18 -33 -34 -84 q-8 -23 -15 -40q-9 -20 -20 -38q-9 -12 -22 -22q-14 -11 -36 -25q-30 -19 -37 -22q-18 -9 -28 -9q-17 0 -34 21q-19 24 -29 47q-14 30 -20 55q-7 27 -7 43q0 59 46 115t117 103q70 46 155 75q83 28 159 28q112 0 198 -46q88 -47 144 -140q25 -40 27 -43q16 -24 21 -36 q8 -19 12 -38t4 -51q0 -62 -24 -115q-26 -56 -61 -97q-38 -44 -86 -80q-45 -34 -99 -64q52 -16 96 -37q46 -23 84 -54q34 -28 60 -76q24 -43 24 -99q0 -100 -39 -163q-39 -64 -102 -98t-143 -48q-77 -13 -156 -13q-34 0 -50 1q-21 1 -53 3q-45 4 -108 21t-123 45 q-61 29 -102 67q-42 39 -42 88z" />
<glyph unicode="4" horiz-adv-x="987" d="M53 410q0 27 4 47q4 22 21 49q72 123 168 258q105 147 219 295q35 47 52 74q16 26 41 56q19 24 40 37q20 13 51 13q22 0 36 -11q18 -15 28 -28q12 -16 21 -36q3 -7 9.5 -19t8.5 -17q10 -19 26 -37q31 -34 32 -35q16 -19 27 -40t11 -58q-10 -44 -13 -135q-4 -118 -4 -192 v-221l97 -7q28 0 43 -7q16 -7 16 -36q0 -37 -15 -58q-14 -20 -40 -33q-19 -10 -53 -15q-9 -1 -27.5 -3.5t-28.5 -4.5q-1 -4 -3 -14q0 -1 -2 -38q-1 -20 -1 -88v-157q0 -17 -8 -19q-10 -2 -18 -2q-32 0 -62 12q-38 15 -55 27q-26 18 -40 36q-15 19 -15 34v207h-277 q-113 0 -151 1q-60 2 -87 15q-31 15 -41 49q-10 33 -10 101zM240 455q0 -18 12 -30q9 -9 28 -15q15 -5 31 -6q11 -1 25 -1h272q0 10 1 18l3 34q0 5 1 15.5l2 21t1 21.5q2 48 2 93l17 305q0 63 -5 88q-5 23 -28 23q-12 0 -45 -37q-32 -37 -73 -94q-32 -45 -83 -126 q-27 -44 -78 -132q-32 -56 -60 -112q-23 -46 -23 -66z" />
<glyph unicode="5" horiz-adv-x="966" d="M16 203q0 43 27 64q28 22 61 22q23 0 45 -14q21 -14 41 -32q21 -19 39 -42q16 -20 37 -41q48 -46 93 -55q47 -9 90 -9q54 0 113 28q54 26 102 72q45 44 72 99q28 58 28 110q0 74 -45 110t-103 36q-26 0 -67 -6q-42 -6 -79 -21q-38 -15 -64 -40q-27 -25 -27 -64 q0 -4 -8 -4h-17q-50 0 -66 4q-7 2 -20.5 4.5t-17.5 3.5q-18 4 -47 26q-29 21 -29 66q2 95 6 167q2 39 7 137l6 129q2 86 2 143q0 24 -15 57q-17 37 -37 68q48 9 96 13q76 6 120 7q57 1 134 3q46 1 132 1q64 0 104 -4q47 -5 75 -16t44 -35q14 -21 14 -62q0 -11 -1 -27 q-1 -23 -3 -28q-8 3 -46 4q-56 2 -99 2q-58 0 -88 -1q-58 -2 -86 -4q-34 -2 -74 -8q-30 -4 -51 -11q-6 -2 -11 -24q-4 -21 -6 -53q-1 -32 -3 -72q-1 -27 -1 -77v-53q0 -40 1 -59q2 -29 3 -48q2 -20 4 -20q8 2 17 4t19.5 5t15.5 4q30 6 44 9q23 5 35 5q9 0 20 0.5t16.5 1 t8.5 0.5h13q71 0 138 -35q66 -34 118 -85q53 -51 82 -108q30 -58 30 -108q0 -39 -10 -72q-12 -38 -26 -67q-30 -62 -82 -103q-50 -40 -115 -66q-63 -26 -135 -36q-69 -10 -141 -10q-68 0 -137 11q-73 12 -140 36q-65 24 -111 65q-45 40 -45 103z" />
<glyph unicode="6" horiz-adv-x="966" d="M100 522q0 86 15 184q16 102 44 190q31 97 74 178q44 84 109 149q34 34 76 62t92 28q34 0 74 -18q23 -10 71 -27q71 -22 122 -50t81 -67t45 -93t15 -132q0 -25 -7 -60q-8 -21 -28 -36q-21 -15 -54 -15q-42 0 -78 50q-36 49 -36 124v33q0 29 -8 59q-8 29 -26 52 q-16 19 -42 36q-24 15 -55 15q-69 0 -121 -61t-83 -146q-32 -88 -47 -180q-16 -101 -16 -162q52 27 125 49q69 21 129 21q49 0 89 -10q39 -10 64 -25q29 -18 50 -40q32 -34 47 -52q13 -17 38 -38q25 -22 40 -40q19 -24 31 -56q12 -33 12 -84q0 -44 -13 -95q-12 -48 -38 -101 q-25 -51 -58 -90q-35 -41 -75 -62q-52 -24 -115 -36q-56 -11 -119 -11q-20 0 -30 1t-31 1q-64 0 -122 32q-54 30 -100 82q-46 53 -75 110q-29 59 -45 118q-13 55 -17 107q-4 47 -4 106zM309 371q0 -27 9 -73q8 -42 34 -89q23 -42 70 -75q46 -32 117 -32q51 0 95 28 q42 27 71 73q29 45 45 99q16 52 16 106q0 81 -50 128q-49 46 -149 46q-72 0 -144 -39t-110 -101q-4 -4 -4 -17v-30v-24z" />
<glyph unicode="7" horiz-adv-x="870" d="M-90 1511q6 0 6 -8l-2 -1q2 -2 -2 -5q0 3 -1 5t-1 9zM20 1200q4 4 21 10q18 7 63 11q14 1 48 2.5t49 2.5q60 3 129 6q90 4 144 5q100 2 140 2q20 0 51 -26q32 -27 57 -62q29 -40 47 -79q19 -41 19 -73q-71 -188 -88 -235q-42 -118 -75 -217q-10 -30 -30.5 -89t-30.5 -88 q-24 -71 -52 -166q-16 -56 -37 -134q-14 -53 -14 -86q0 -22 6 -29t6 -12q0 -23 -19 -27q-17 -4 -22 -4q-12 0 -39 6q-21 5 -53 19q-26 12 -47 28t-21 37q0 5 1 6t1 4l275 1000q0 29 -41 37q-40 7 -92 12l-303 24q-16 0 -32 14q-18 17 -28 31q-11 17 -21 38q-11 24 -12 32z " />
<glyph unicode="8" horiz-adv-x="995" d="M51 932q0 73 51 136q52 64 126 107t158 69t146 26q76 0 151 -34q79 -36 138 -86q62 -53 102 -115t40 -122q0 -79 -30 -141q-30 -61 -70 -107q-43 -49 -80 -78q-32 -25 -62 -57q21 -18 55 -55q38 -42 69 -79q29 -35 59 -83q26 -41 26 -67q0 -74 -45 -126t-108 -84 q-66 -33 -128 -47q-70 -16 -106 -16q-27 0 -45 3q-4 1 -18 3.5t-22 3.5q-18 3 -49 6q-27 3 -73 3q-145 0 -208 74q-62 72 -62 186q0 46 24 90q23 42 58 80q30 33 72 68q38 31 65 59q-105 95 -169 194q-65 101 -65 189zM231 893q0 -33 28 -81q24 -41 69 -88q42 -43 87 -71 q46 -28 81 -28q59 0 109 36q52 37 93 92q44 58 66 117q24 63 24 115q0 72 -50 105q-48 32 -111 32q-46 0 -111 -16q-71 -17 -131 -46q-65 -31 -109 -72q-45 -42 -45 -95zM242 221q0 -36 26 -59q29 -26 70 -40q46 -16 96 -23q49 -7 105 -7q27 0 65 3q37 3 70 15q34 12 56 33 q24 22 24 62t-25 85q-25 46 -61 83q-38 39 -81 63q-45 25 -83 25q-40 0 -87 -21q-49 -22 -85 -54q-41 -36 -65 -77q-25 -43 -25 -88z" />
<glyph unicode="9" horiz-adv-x="966" d="M55 756q0 74 18 156q19 85 55 155q38 73 99 119q62 47 150 47q43 0 84 -19q37 -17 82 -28q55 -14 126 -25q67 -11 119 -51q35 -25 58 -85q23 -62 35 -132q13 -78 17 -140q5 -77 5 -110q0 -149 -14 -264q-15 -124 -61 -214q-46 -91 -132 -142q-87 -52 -231 -52 q-36 0 -100 11t-120 34q-58 24 -101 65q-42 41 -42 97q0 41 25 64q23 22 63 22q50 0 71 -28t41 -64t53 -63q35 -29 108 -29q133 0 183 80t50 233v10q0 13 -4 13q-47 -29 -110 -66q-57 -33 -117 -33h-37q-32 0 -59 10q-30 11 -43 20q-24 16 -35 24q-16 12 -35 18 q-40 16 -74 35q-38 21 -64 59q-27 39 -45 105t-18 168zM195 -262l2 -6h-2v6zM254 758q0 -60 10 -116q10 -57 33 -104q23 -46 57 -75q35 -29 84 -29h13q40 0 71 25q35 28 60 53q29 29 56 53q28 25 58 25l2 45q0 78 -5 173q-4 85 -27 151q-23 68 -69 108q-47 41 -128 41 q-99 0 -157 -93q-58 -92 -58 -243v-14z" />
<glyph unicode=":" horiz-adv-x="415" d="M63 719q0 18 22 34q17 12 53 26q33 13 68 17q40 5 62 5q12 0 35 -9q20 -8 45 -23q23 -13 40 -31q19 -19 20 -33q-1 -13 -24 -31q-21 -16 -51 -30q-26 -12 -62 -22q-35 -10 -54 -10q-18 4 -45 9q-29 5 -51 13q-24 9 -41 29t-17 56zM68 78q0 20 21 38q16 14 50 30 q27 13 60 21q28 7 51 7q48 0 92 -26t72 -60q2 0 2 -7v-9q0 -14 -26 -29q-22 -13 -58 -26q-22 -8 -66 -18q-31 -7 -45 -7t-41 6q-29 7 -51 16q-26 11 -43 27q-18 17 -18 37z" />
<glyph unicode=";" horiz-adv-x="413" d="M61 692q0 22 21 43q22 22 49 36q30 16 59 26t52 10q38 0 73 -19q37 -20 66 -40q16 -10 16 -25q0 -14 17 -16v-13q0 -14 -24 -30t-54 -30q-29 -13 -62 -23q-30 -9 -47 -9q-7 0 -37 5q-9 2 -54 14q-29 8 -48 19q-20 11 -20 22q0 5 1 6t1 6t-4 9q-5 5 -5 9zM76 68 q0 57 52 87q51 29 114 29q58 0 105 -31q48 -31 48 -104q0 -2 -5 -20q-1 -5 -2.5 -9.5t-3 -7.5t-1.5 -4q-11 -35 -33 -59q-24 -26 -51 -40q-32 -17 -62 -22q-35 -6 -67 -6q-9 0 -25 2q-12 1 -20 13q1 14 20 14q6 0 16 -2t17 -2q30 0 56 16q28 17 28 47q0 15 -12 25l-37 2 q-19 0 -40 4q-30 6 -45 11q-23 8 -37 22q-15 15 -15 35z" />
<glyph unicode="&#x3e;" horiz-adv-x="1024" />
<glyph unicode="?" horiz-adv-x="1013" d="M82 922q0 89 55 168q57 81 137 141q81 60 177 97q95 36 174 36q68 0 131 -39q64 -39 112 -95q51 -58 80 -120q31 -64 35 -115q2 -16 2 -23v-24q0 -71 -22 -121q-22 -51 -59 -92q-35 -39 -81 -73q-30 -22 -90 -68q-40 -31 -85 -74q-37 -36 -66 -90q-15 -30 -15 -61t-6 -55 q-6 -23 -30 -38q-22 -14 -85 -14q-13 0 -23 1q-20 2 -30 4q-13 3 -26 9q-12 6 -17 17q12 17 16 40q6 33 8 54q4 38 7 57q5 29 12 50q21 54 61 102q39 47 87 94q52 50 96 89q47 42 90 89q41 46 67 93q25 46 25 98q0 81 -49 121q-50 41 -121 41q-99 0 -155 -33 q-54 -32 -85 -83q-28 -45 -44 -108q-15 -59 -33 -107q-18 -49 -50 -83q-32 -33 -96 -33q-29 0 -49 14q-21 15 -33 36q-13 22 -17 47q-5 28 -5 51zM291 41q0 13 12 29q8 11 31 30q14 11 37 25q17 10 30 10q5 0 7 -2t6 -2q17 0 36 8t37 8q43 0 90 -27q43 -25 66 -69l2 -4 q0 -15 -13 -34q-14 -19 -33 -36q-19 -16 -40 -28t-35 -12q-9 0 -27 -2q-9 -1 -26 -1q-18 0 -56 9q-36 9 -60 22q-30 17 -46 34q-18 19 -18 42z" />
<glyph unicode="@" horiz-adv-x="1601" d="M96 387q0 189 68 336q68 146 174 245q107 100 237 149q132 50 256 50q125 0 245 -34q121 -34 218 -110q98 -77 157 -196q60 -122 60 -292q0 -80 -15 -169q-15 -91 -52 -164q-38 -76 -99 -124q-62 -49 -159 -49q-94 0 -147 51q-51 50 -56 129q-24 -53 -35 -74 q-23 -45 -49 -76q-28 -33 -66 -58q-37 -24 -88 -24q-8 0 -22 6l-21 10q-2 1 -9.5 4.5t-12.5 5.5q-13 5 -31 5q-53 0 -87 27q-33 26 -54 68q-20 40 -28 93q-7 46 -7 97q0 32 6 89q5 48 22 121q15 65 39 132q25 70 58 122q34 54 82 89q47 35 108 35q46 0 68 -11q23 -11 36 -22 q17 -13 36 -23q20 -10 69 -10q39 -16 59 -37q23 -25 34 -49q12 -27 15 -55t3 -56q0 -21 -1 -32t-1 -33q0 -7 10 -8q4 -1 24 -5q11 -2 23 -13q11 -9 11 -31v-11q-28 -50 -40 -94t-12 -106q0 -31 4 -58q5 -33 16 -55q13 -27 29 -41q17 -16 48 -16q41 0 74 29t58 83 q23 50 37 128q13 72 13 163q0 93 -28 194q-27 96 -92 175t-171 128q-108 50 -264 50q-125 0 -218 -36q-95 -37 -161 -94q-70 -60 -112 -132q-41 -70 -70 -148q-26 -72 -37 -142q-10 -66 -10 -118q0 -81 24 -182q23 -97 85 -188q59 -88 165 -148q103 -59 264 -59 q117 0 187 16q71 16 115 39q45 23 67 44q26 24 37 32q12 -5 22 -13q8 -6 8 -20q0 -20 -24 -52q-24 -31 -82 -62q-56 -30 -151 -51q-93 -21 -232 -21q-94 0 -202 37q-114 39 -204 115q-94 79 -157 204q-64 126 -64 301zM625 307q0 -31 3 -73q3 -40 12 -78t27 -63t46 -25 q51 0 88 43q36 42 62 106q26 65 41 137q19 92 24 135q5 31 22 41q19 11 19 15l2 16q0 25 -4 56q-5 36 -19 66q-16 33 -38 54q-25 23 -64 23q-70 0 -113 -54q-43 -53 -67 -129q-26 -82 -33 -151q-8 -82 -8 -119z" />
<glyph unicode="A" horiz-adv-x="1005" d="M-205 113q0 24 17 44q16 19 41 19q41 0 53 -28q8 -18 23 -61q12 -35 37 -61q26 -28 93 -28q48 0 92 25q41 23 76 63q36 41 61 86t42 92q17 50 24 74q5 16 11 31q0 4 -7 4q-50 -6 -91 -9q-50 -4 -70 -4q-34 0 -72 6q-29 5 -29 37q0 18 18 30q19 13 50 17q40 5 77 8 q85 6 99 7q22 1 39 3t18 7q22 69 35 117l33 119q25 97 47 228q20 119 20 243q0 24 -1 33t-1 20q9 4 27 4t33 4q20 5 40 13q27 10 54 10q7 0 34 -5q16 -3 48 -15q29 -11 44 -20q19 -12 19 -24v-325q0 -158 17 -313q16 -149 39 -268q22 -117 48 -193q25 -75 46 -85 q-12 -12 -51 -30q-41 -19 -107 -19q-44 0 -74 21t-30 96q-6 101 -10 155q-2 21 -4.5 45.5t-5.5 54t-5 46.5q-70 -2 -117 -2q-69 0 -110 -4q-23 -85 -59 -172q-34 -81 -88 -146q-52 -63 -124 -100q-71 -37 -174 -37q-38 0 -78 9q-37 8 -73 31q-30 19 -53 58q-21 36 -21 89z M487 471h193q-9 93 -11 107q-7 60 -18 124q-3 16 -9.5 58.5t-10.5 64.5q-11 60 -21 99q-2 -5 -4.5 -13t-6 -20.5t-6.5 -22.5q-4 -13 -12.5 -42.5t-13.5 -45.5q-5 -17 -27 -102q-4 -14 -26 -98q-4 -15 -19 -75q-8 -32 -8 -34z" />
<glyph unicode="B" horiz-adv-x="1116" d="M-205 809q0 78 47 145t123 116q80 52 173 86q89 33 200 59q93 22 200 35q97 12 173 12h16q92 -2 173 -36q82 -35 134 -102l4 -4l1 -2q1 -1 3 -4q14 -15 41 -48q14 -17 22 -33q7 -15 9 -32q2 -22 2 -40q0 -56 -32 -126q-33 -71 -84 -133q-54 -65 -117 -115 q-68 -54 -131 -77q57 -17 103 -40q52 -26 95 -62q13 -12 28 -38q14 -26 29 -60q13 -31 21 -62q8 -32 8 -49q0 -59 -48 -102q-50 -45 -109 -71q-61 -27 -120 -42t-81 -15h-133q-21 0 -63 18q-52 22 -86 41q-55 30 -79 46q-38 25 -43 32q6 13 11 55t6 104q2 65 3 139 q1 51 1 157q0 102 -1 145t-1 120q0 74 -1 109t-1 107q0 50 9 68q3 6 4.5 10t2.5 6t0 2q-33 0 -100 -24q-66 -24 -134 -62q-73 -42 -117 -80q-50 -44 -50 -83q0 -49 10 -78t10 -35q0 -36 -14 -58q-15 -24 -45 -24q-25 0 -39 17t-22 39q-8 21 -9 42q0 5 -0.5 11.5t-1 10 t-0.5 5.5zM434 1151q6 -8 11 -12q8 -6 14 -20q5 -12 10 -39q4 -23 4 -70v-404q0 -16 9 -21q10 -5 67 -5q53 0 122 35q72 37 134 96q65 62 108 135q45 76 45 155q0 91 -88 122q-90 32 -258 32h-67h-55q-31 0 -56 -4zM473 233q0 -23 4 -46t17 -49q12 -23 33 -40q20 -16 57 -16 l41 4q25 0 62 11q40 12 80 34q41 23 70 56t29 77q0 32 -30 66q-29 33 -72 65q-42 31 -80 50q-40 20 -57 20q-47 0 -92 -6q-46 -6 -50 -10q-3 -3 -4 -23q0 -2 -1.5 -21t-2.5 -31q-1 -32 -3 -69q-1 -25 -1 -72z" />
<glyph unicode="C" horiz-adv-x="901" d="M53 543q0 148 28 286q26 129 75 233q47 101 111 157q65 57 139 57h43q38 0 62 -10q22 -9 49 -26q24 -15 48 -33q18 -14 62 -33q61 -27 82 -98q20 -67 20 -150q0 -40 -1 -60q-2 -33 -11 -56q-11 -26 -33 -44q-23 -19 -65 -23q-59 0 -82 41t-23 88q0 32 4 65t4 77 q0 51 -15 90t-63 39q-75 0 -123 -54q-49 -55 -76 -139t-39 -186q-11 -94 -11 -199q0 -89 5 -181q5 -84 25 -148q21 -66 60 -114q40 -50 108 -79q28 -12 64 -12q52 0 97 23q47 24 81 63q33 37 55 89q21 49 21 103q0 55 19 94q20 41 65 41q33 0 43 -20t10 -47q0 -49 -10 -78 q-15 -56 -46 -115q-29 -56 -79 -112q-69 -80 -154 -107q-81 -26 -151 -26q-203 0 -300 155q-98 157 -98 449z" />
<glyph unicode="D" horiz-adv-x="1263" d="M-205 872q0 99 72 180t187 139q116 59 258 90q145 32 284 32q81 0 172 -16q87 -15 163 -51q79 -37 138 -92q61 -56 98 -138q33 -66 45 -140q13 -81 13 -153q0 -121 -29 -248q-17 -84 -66 -184q-46 -94 -112 -170q-65 -75 -146 -124q-80 -48 -165 -48h-5q-54 0 -104 25 q-58 29 -121 55q-7 4 -32 9q-23 4 -49 15q-28 11 -47 28q-21 18 -27 46v737q0 52 -7 111q-6 52 -30 74h18q48 0 93 14t79 14q20 0 32 -9q11 -8 11 -34v-891q43 -13 59 -23q5 -3 16 -10t16 -10q18 -10 26 -13q13 -5 37 -5q95 0 165 53q66 50 113 144t67 207q21 118 21 245 q0 104 -23 186q-25 89 -80 151q-57 64 -152 102q-97 39 -240 40h-15q-287 0 -429 -80q-140 -79 -140 -215q0 -27 9 -45q6 -12 20 -36q3 -6 20 -39q10 -21 12 -52q0 -1 -15 -24q-14 -22 -21 -23q-6 -2 -19 -2q-21 0 -52 14t-56 36t-44 57q-18 33 -18 71z" />
<glyph unicode="E" horiz-adv-x="1046" d="M0 354q18 64 57 101q36 35 85 60q40 21 97 38q51 15 89 33q-65 28 -119 76q-51 45 -90 100q-36 51 -58 105q-20 50 -20 91q0 80 60 139q58 57 148 97q85 38 184 58q100 20 171 20h84h10q17 0 31 -1q7 -1 21 -1t21 -1q26 -2 39 -4q17 -3 19 -8q26 -26 41 -42 q20 -21 43 -51q21 -27 36 -57q17 -33 18 -58q0 -26 -6 -47q-5 -18 -25 -41q-10 33 -33 54q-25 23 -52 34q-32 13 -60 17q-33 5 -58 5h-129q-37 0 -103 -6q-64 -6 -132 -26q-67 -20 -114 -55q-48 -36 -48 -95q0 -67 34 -114q36 -50 96 -80q65 -33 149 -47q87 -15 192 -15 q2 0 25 5q22 5 26 15q22 -15 43 -59q21 -45 21 -84q0 -11 -2 -33q-1 -14 -13 -26q-64 1 -101 3q-24 1 -77 1q-44 0 -100 -3q-57 -3 -109 -18q-54 -16 -100 -45q-48 -31 -78 -84q-11 -17 -12 -30q-2 -18 -2 -29q6 -62 46 -96q44 -38 92 -54q51 -17 107 -22q49 -4 93 -4t68 1 q40 2 69 7q35 6 59 17q27 12 43 32q59 67 89 89q35 26 69 26q39 0 61 -16q21 -15 21 -36q0 -16 -3 -28t-20 -29q-50 -56 -117 -91q-63 -33 -138 -52q-78 -20 -140 -24q-77 -5 -129 -5q-18 0 -78 2q-44 1 -92 17t-93 43t-83 81q-17 24 -42 64q-28 46 -40 69q-19 37 -30 65 q-11 29 -11 52z" />
<glyph unicode="F" horiz-adv-x="942" d="M-92 1016q0 60 24 101q24 40 110 64q83 23 250 31q198 9 445 9q61 0 93 6t42 6t32 -31q26 -37 57 -102q0 -11 -25 -16q-26 -5 -53 -25q-44 -30 -72 -94q-26 -61 -40 -143q-13 -76 -16 -163q-3 -84 -3 -157q0 -4 36 -5q18 -1 83 -7q44 -4 90 -17q42 -12 53 -37q2 -6 2 -9 v-7q0 -18 -35 -29q-31 -9 -79 -16q-43 -6 -88 -9q-41 -3 -62 -8q-15 -119 -30 -200q-15 -80 -56 -127t-118 -67q-75 -19 -216 -19q-51 0 -108 18q-56 18 -103 54q-48 37 -79 89q-32 53 -32 123q0 33 14 50q13 16 33 16q55 0 79 -43q24 -44 30 -86q5 -32 17 -57 q15 -31 37 -52q22 -20 59 -35q36 -14 83 -14q54 0 90 38t57 90q23 58 30 107q8 58 8 87v20q0 7 -2 21q0 4 -31 10q-36 7 -68 11q-62 7 -68 8q-32 3 -36 3q-34 -1 -44 -10q-10 -8 -22 -8q-14 0 -14 18q0 56 46 77q49 22 108 22h149q5 0 7 32t3 81q1 28 7 112q5 72 14 123 q10 59 29 116q17 52 49 87q-44 7 -111 18q-85 13 -146 19q-106 10 -161 14q-83 6 -154 6q-5 0 -33 -2q-20 -1 -41 -11q-19 -9 -34 -27q-14 -17 -14 -50q0 -39 34 -72q28 -27 77 -67q42 -35 77 -77q35 -43 35 -104q0 -22 -12 -45q-12 -22 -39 -22q-32 0 -75 41 q-44 42 -80 100q-41 66 -64 125q-25 65 -25 117z" />
<glyph unicode="G" horiz-adv-x="995" d="M117 612v33q0 11 2 33q8 137 51 248q44 112 104 188t135 120q72 42 140 42h22q43 0 73 -12q27 -11 55 -29q32 -20 51 -35q27 -20 57 -31q28 -8 42 -25q16 -20 23 -41q10 -32 12 -49q3 -26 3 -48v-23q-1 -33 -8 -70q-6 -31 -20 -58t-37 -41q-24 -15 -60 -15q-35 0 -55 19 q-21 20 -21 48q0 1 0.5 4t1 8t0.5 9q0 5 1 11t2 14.5t2 14.5q4 32 5 49q2 34 2 50q0 70 -29 96q-30 27 -77 27q-71 0 -123 -40q-54 -40 -88 -112q-36 -74 -53 -173q-19 -108 -19 -222q0 -287 187 -350q6 -2 16 -4.5l14 -3.5q15 -4 33 -4q53 0 84 20q33 21 51 51q19 31 26 68 q7 35 7 70q0 87 27 125t88 38q15 0 33 -5q8 -2 30 -11l17 -8l16 -8q-10 -16 -25 -46q-10 -20 -18 -49q-8 -28 -12 -59q-4 -29 -4 -76q0 -39 7 -68q12 -50 16 -65q12 -44 17 -67q7 -32 7 -78q0 -60 -22 -126q-21 -63 -70 -112q-50 -50 -133 -80t-205 -30q-46 0 -105 8 q-55 7 -100 27q-44 19 -75 53q-30 33 -30 84q0 38 23 64t63 26q26 0 58 -13q0 -85 50 -118t118 -33q92 0 144 30q55 31 80 72q28 45 35 93q7 46 7 89v138q-67 -68 -128 -90q-64 -23 -126 -23q-91 0 -166 35q-74 35 -125 98q-50 62 -78 153q-26 85 -26 195z" />
<glyph unicode="H" horiz-adv-x="1171" d="M-57 510q0 28 21 51q22 24 51 41q34 21 63 31q34 13 55 18v174v130q0 41 2 97q1 16 2.5 41.5t1.5 34.5q2 36 6 70l-8 62q0 22 19 24q24 2 34 2q27 0 61 -8q31 -7 59 -26q29 -19 47 -43q21 -27 22 -60q-35 0 -43 -28q-8 -29 -8 -58v-385q2 -6 2 -8q0 -4 4 -4 q109 -5 230 -41t267 -140v701q0 23 -6 47q-6 25 -28 35q0 30 19 34q22 5 48 5q29 0 59 -3q29 -3 56 -15q28 -12 43 -29q16 -17 16 -50q0 -17 -10 -43v-727q17 -12 43 -12q12 0 25 8t18 8q4 0 4 -2q12 -8 12 -22q0 -24 -28 -48t-74 -30v-307q0 -14 4 -19q6 -8 8 -10 q6 -6 9 -10q4 -5 4 -16v-11q-7 -16 -31 -22q-22 -6 -45 -6q-45 0 -71 27q-24 25 -40 69q-13 36 -20 89q-10 80 -11 89q-4 37 -13 69q-8 27 -25 27h-283q-20 0 -90 2q-52 1 -96 6v-301q0 -28 12 -42t12 -33q0 -11 -22 -15q-20 -4 -35 -4q-54 0 -111 31q-55 29 -67 84 q0 31 8 90t8 111v114q-28 5 -66 20q-36 14 -62 33q-27 19 -45 45q-17 24 -17 58zM29 479q0 -12 11 -22q13 -11 29 -18q17 -7 34 -10q18 -3 30 -3v119q-9 0 -27 -6q-12 -4 -34 -16q-19 -11 -30 -20q-13 -12 -13 -24zM328 393q79 -12 170 -12q67 0 130 4q79 5 124 14 q-43 45 -97 74q-50 27 -110 46q-59 19 -113 26q-56 7 -102 12q-2 -74 -2 -88v-76z" />
<glyph unicode="I" horiz-adv-x="901" d="M-72 250q0 45 12 87q13 45 32 74t53 51q29 19 69 19q37 0 47 -19q11 -20 11 -40q0 -43 -19 -75q-15 -26 -40 -52q-28 -30 -40 -45q-18 -22 -18 -55q0 -99 65 -142t164 -43q86 0 150 35q62 34 105 88q42 52 63 116q20 60 20 118l-31 -2q-76 0 -128 33q-55 35 -90 85 q-34 49 -53 111q-17 57 -17 111v71q0 41 10 91q9 47 29 109q17 54 45 110t57 98q27 39 65 69q35 27 72 27q15 0 33 -6l143 -10q10 -1 28 -11q13 -7 13 -28q-1 -1 -5 -11q-3 -8 -3 -28q0 -26 8 -55v-678q0 -110 -20 -201q-21 -95 -71 -171q-50 -75 -137 -119 q-88 -44 -222 -44h-27q-116 0 -189 32q-74 33 -114 81q-40 49 -55 107t-15 112zM408 791q0 -33 4 -77q5 -53 19 -100q14 -45 43 -86q26 -36 75 -36q1 0 4 0.5t8.5 1t10.5 0.5q20 2 30 6v479q1 4 3.5 14.5t4.5 16.5q4 13 4 32q0 29 -13 49q-13 21 -48 21q-46 0 -74 -37 q-30 -39 -44 -88q-15 -51 -21 -106t-6 -90z" />
<glyph unicode="J" horiz-adv-x="772" d="M-186 -408q0 45 20 99q23 62 50 115q29 57 62 110q35 57 54 82q66 90 124 157q39 45 88 92q36 35 71 60q27 19 71 62q0 6 -26 29q-27 24 -59 77q-30 51 -58 141q-27 88 -27 222q0 84 20 167q19 79 54 143q32 59 82 99q46 37 102 37l148 10q22 0 33 -15q10 -14 10 -38 l-6 -76q0 -54 9 -111t9 -85v-520q78 -21 86 -68v-12q0 -28 -25 -43q-26 -15 -59 -15q-5 -148 -26 -281t-64 -282q-20 -70 -55 -154q-40 -96 -93 -174q-55 -81 -134 -143q-75 -59 -175 -59q-19 0 -46 6q-29 6 -46 22q-36 31 -71 76q-42 53 -63 89q-28 49 -44 93 q-16 45 -16 88zM-27 -434q0 -64 33 -110t105 -46q60 0 110 58q49 56 87 143q39 88 65 189q23 88 44 195q17 85 25 158q9 79 9 80v5q0 6 -2 14q-1 6 -15 6q-34 0 -80 -36q-50 -39 -98 -95q-54 -64 -102 -134q-52 -77 -92 -152q-39 -73 -64 -149q-25 -75 -25 -126zM303 825 q0 -99 14 -168q15 -73 36 -126q21 -52 45 -79q25 -28 44 -28q11 0 11 14v529l6 94v11q0 38 -27 38q-22 0 -43 -14q-23 -16 -42 -47q-20 -35 -32 -88q-12 -55 -12 -136z" />
<glyph unicode="K" horiz-adv-x="841" d="M72 -27v1121q0 48 1 72q2 41 8 64q8 30 21 45q14 17 41 17q16 0 43 -9q32 -11 52 -22q26 -15 42 -28q17 -14 17 -25q0 -4 -5 -7t-11 -11q-8 -10 -12 -23q-5 -17 -5 -43v-458q55 48 181 185q131 142 284 318q17 17 30 39q23 38 26 43q11 17 29 35q14 14 36 14q13 0 39 -8 t48 -22q21 -13 41 -33q17 -17 17 -39q0 -16 -8 -24q-19 8 -31 8q-21 0 -61 -26q-41 -27 -83 -63q-51 -44 -91 -84q-60 -60 -86 -87q-15 -16 -39 -41.5t-29 -30.5q-7 -8 -16 -17.5t-14 -14.5l-7 -7q-27 -29 -53 -60q-53 -63 -58 -70q-3 -4 -47 -58q-20 -25 -20 -27h2 q1 0 4 0.5t8 1t10 0.5q24 2 42 2q34 0 72 -7q40 -7 78 -30q40 -24 68 -65q30 -44 42 -117q6 -36 20 -144q9 -71 23 -152q12 -71 30 -120t42 -49q4 0 18 10q16 11 27 11q16 0 18 -27q0 -29 -6 -47q-6 -19 -43 -19q-99 0 -157 27t-90 80q-31 52 -42 133q-10 80 -12 186 q0 45 -4 84q-5 44 -19 77q-15 35 -41 55q-28 22 -73 22q-71 0 -88 -30q-17 -31 -17 -83q0 -145 1 -194q2 -85 4 -118q3 -43 11 -67q9 -26 21 -41l-2 -2q-4 -3 -42 -19q-35 -15 -81 -15q-27 0 -56 7q-33 8 -48 27z" />
<glyph unicode="L" horiz-adv-x="1052" d="M-74 -45q0 55 41 87t93 48t104 21q45 4 72 4q46 0 82 -4q45 -5 51 -5t6 3q3 15 5 47q1 18 1 55v57q0 15 -2 25q-24 0 -72 7q-54 8 -104 28q-57 23 -94 57q-41 38 -41 96q0 10 4 26q4 17 12 17q6 0 30 -20q26 -21 60 -33q57 -22 111 -26q62 -5 84 -5q14 0 14 21v389 q0 35 2 111q1 53 14 113q12 55 38 111q25 53 73 101q12 10 26 12q18 2 23 2h12q28 0 43 -4q22 -6 34 -11q1 -1 39 -14q24 -9 58 -14q72 -11 117 -43q48 -34 77 -85q30 -53 42 -121q12 -69 12 -154q0 -88 -27 -178q-26 -87 -82 -166q-52 -74 -135 -132q-80 -56 -188 -79v-84 v-59v-43q0 -23 -4 -39q115 -35 194 -72q64 -30 134 -68q13 -7 45.5 -25t46.5 -25q37 -19 67 -19q20 10 34 29q14 18 24 36q22 -10 22 -63q0 -19 -12 -29q-11 -10 -28 -15q-15 -5 -31 -6q-11 -1 -27 -1q-75 0 -147 17q-82 19 -144 40q-74 25 -122 42q-53 19 -85 24 q-3 0 -21 -26t-52 -48q-47 -29 -111 -38q-63 -9 -123 -9q-33 0 -79 7q-56 8 -98 23q-50 17 -83 43q-35 27 -35 64zM4 -33q0 -22 20 -36q18 -13 48 -22q29 -9 61 -12q33 -3 60 -3q22 0 43 4q28 5 47 14q24 11 41 28q19 19 26 42q-27 11 -90 25q-58 13 -117 13h-3 q-3 -1 -8.5 -1.5t-12.5 -0.5q-20 -1 -48 -8q-26 -6 -46 -16q-21 -10 -21 -27zM563 451q87 18 140 70q57 55 87 120q32 69 44 138q12 71 12 126q0 22 -4 62q-5 46 -21 92t-47 83q-30 36 -84 36q-47 0 -73 -38q-25 -36 -37 -86q-14 -55 -15 -95q-2 -62 -2 -64v-444z" />
<glyph unicode="M" horiz-adv-x="1542" d="M-92 717q0 75 21 174q20 93 72 185q50 87 130 148q79 60 197 60q36 0 64 -17q30 -18 54 -45q23 -25 42 -61q19 -35 26 -61q22 -60 34 -157q11 -88 16 -194q4 -102 6 -204q2 -111 3 -189q13 64 22 97q4 16 12 47.5t11 44.5q4 14 12.5 47.5t13.5 52.5q9 33 30 121 q13 59 38 158q19 76 44 151q5 19 30 23q24 4 35 4q19 0 42 -11q26 -12 49 -28q21 -14 41 -38q18 -21 18 -42v-350q0 -58 1 -96q0 -19 0.5 -55.5t1.5 -54.5q2 -61 4 -89q3 -37 7 -37q12 0 30 73q14 55 40 181q47 228 49 235q27 126 57 234q29 103 66 181q35 73 71 73 q23 0 50 -27q28 -28 49 -60q22 -34 37 -68q14 -32 14 -46q0 -9 -10 -42t-22 -111q-9 -58 -21 -210q-11 -138 -11 -335q0 -37 8 -98q9 -68 21 -110q15 -54 38 -89q24 -37 56 -37q18 0 29 7q14 8 25 30q4 -4 4 -14q0 -60 -42 -81q-44 -22 -102 -22q-59 0 -99 42 q-40 41 -64 135q-22 85 -33 244q-11 157 -11 366q0 8 -6 10q-2 -2 -14 -44q-17 -58 -28 -106q-17 -73 -33 -142q-19 -83 -33 -154q-13 -67 -25 -140q-10 -63 -10 -102q0 -18 7 -25t7 -12q0 -12 -11 -19q-14 -9 -27 -14q-16 -6 -28 -9q-13 -3 -20 -3q-17 0 -42 6 q-27 6 -51 19q-26 14 -49 34q-24 21 -36 51q-9 27 -13 72q-6 65 -7 109q-2 70 -3 125q-1 44 -1 120q0 17 -3 119q-2 51 -12 51q-5 0 -12 -19q-2 -6 -8.5 -20.5t-9.5 -23.5q-6 -16 -16 -48q-8 -24 -9 -34q-41 -158 -57 -292q-15 -124 -15 -228q0 -24 1 -29q2 -8 3 -11 q1 -2 4 -5q3 -2 4 -13q-16 -9 -53 -14q-31 -4 -69 -4q-5 0 -26 3q-18 3 -45 11q-18 6 -43 21q-20 12 -20 31q0 1 2 63q1 17 1.5 55t0.5 57q1 22 1.5 69.5t0.5 71.5q1 26 1.5 77.5t0.5 77.5q0 25 0.5 75.5t1.5 74.5q1 48 1 126q0 27 -1 50q-2 51 -5 78q-4 38 -14 90 q-9 46 -24 84q-16 40 -39 63q-24 24 -59 24q-67 0 -118 -52q-51 -53 -84 -127q-32 -73 -49 -157q-17 -85 -17 -141q0 -18 3 -57q3 -40 15 -77q14 -43 34 -68q23 -29 63 -29q1 0 4 0.5t8.5 1t11.5 0.5q5 0 11.5 0.5t10 1t5.5 0.5q1 0 19 -2q7 -1 28 -7q14 -4 26 -13 q11 -8 11 -25q0 -18 -12 -30t-30 -18q-20 -7 -33 -8q-20 -2 -21 -2q-81 0 -131 41q-48 40 -76 98q-27 57 -36 120t-9 108z" />
<glyph unicode="N" horiz-adv-x="1161" d="M-92 739q0 100 25 199t74 183q48 82 116 135t149 53q39 0 80 -22q37 -20 73 -56q29 -29 60 -77q28 -43 45 -85q16 -34 27 -83q10 -44 16 -100q8 -69 10 -106q4 -75 5 -96q0 -6 1 -18.5t2 -25.5t1 -26q2 -48 3 -91q1 -32 1 -96v-87q11 41 42 142q9 29 19 63.5t23 78.5 t21 72q33 112 66 236t50 205q7 33 30 39q21 6 36 6q37 0 74 -27q43 -31 69 -62q31 -38 50 -72q20 -37 20 -54q-20 -10 -35 -65q-15 -54 -24 -140q-10 -92 -14 -198q-5 -123 -5 -234q0 -22 2 -92q2 -57 13 -101q12 -47 36 -80q23 -32 70 -32q4 0 10 3q7 4 18 5q4 -11 4 -15 q0 -18 -9 -30q-10 -13 -22 -20q-9 -5 -29 -11q-13 -4 -26 -4q-88 0 -136 49q-46 48 -71 122t-29 157q-5 93 -5 153q0 3 2 73t3 108q1 57 3 102q0 13 0.5 25.5t1 19t0.5 8.5q0 27 -10 27q-12 -18 -32 -70q-17 -45 -42 -121q-14 -42 -46 -149q-24 -79 -42 -156 q-18 -79 -30 -139q-11 -58 -11 -103q0 -19 9 -36t9 -21q2 -6 -9 -10q-7 -3 -25 -8q-15 -4 -35 -4h-15q-38 0 -64 8q-23 7 -50 28q-34 28 -51 62t-17 86q0 35 3 98q1 29 8 135q0 6 4 60.5t5 81.5q3 69 3 116q0 144 -8 256q-7 97 -27 169q-18 64 -46 95q-26 29 -65 29 q-73 0 -123 -50q-47 -47 -78 -122q-30 -73 -42 -152q-13 -88 -13 -143q0 -1 2 -55q1 -32 12 -84q9 -44 28 -76q20 -33 53 -33l36 3q3 0 27 -4q18 -3 37 -11q18 -7 33 -21q14 -13 14 -34q0 -13 -13 -20q-10 -6 -30 -11q-16 -4 -32 -6q-3 0 -6.5 -0.5t-5.5 -1t-4 -0.5h-3 q-65 0 -114 29q-51 30 -79 77q-32 52 -46 114q-15 65 -15 136z" />
<glyph unicode="O" horiz-adv-x="1097" d="M53 545q0 62 7 126t29 143t58 152q38 78 99 146q35 74 91 111t126 37q19 0 42 -7q7 -2 21.5 -7t22.5 -7q22 -7 56 -15q31 -7 77 -12q93 -6 160 -69q65 -61 112 -159q45 -95 68 -210q22 -111 22 -227q0 -133 -32 -235t-97 -181q-63 -77 -156 -117q-94 -41 -214 -41 q-124 0 -220 51q-95 50 -154 132q-61 85 -89 183q-29 104 -29 206zM240 559q0 -82 11 -158q12 -84 47 -151q37 -71 102 -115q66 -45 175 -45q102 0 163 53t95 129q33 73 44 162q10 81 10 150q0 28 -5 90q-4 48 -19 117q-13 58 -36 123q-23 64 -57 113q-35 50 -82 82t-110 32 q-48 0 -79 -21q-34 -22 -52 -52q-19 -31 -27 -71q-8 -42 -8 -75q0 -52 18 -99q19 -48 51 -82t78 -55q43 -20 96 -20q37 0 70 18q31 17 47 41q5 -26 11 -39q8 -18 8 -27q0 -26 -26 -43q-25 -16 -58 -25t-65 -12q-42 -4 -46 -4q-39 0 -92 16q-48 14 -95 45q-45 29 -82 75 t-53 104q-22 -64 -28 -132q-6 -66 -6 -124z" />
<glyph unicode="P" horiz-adv-x="1157" d="M-205 934q0 63 44 119q42 53 115 100q67 43 161 82q86 36 182 61t177 38q89 14 147 14q64 0 142 -10q70 -9 140 -44q75 -38 114 -102q40 -65 58 -131q19 -71 22 -117q3 -51 3 -61q0 -112 -38 -218q-37 -105 -104 -188q-67 -84 -152 -132q-88 -50 -185 -50q-27 0 -50 13 q-24 14 -51 30l-10 6q-4 -50 -9 -120q-5 -78 -5 -156v-25q0 -13 1 -18t1 -17v-22q0 -24 11 -45t11 -27q0 -19 -24 -22t-31 -3q-52 0 -83 17q-29 16 -44 69q-14 49 -17 155q-4 136 -4 269q0 121 7 273q6 129 15 238q9 106 18 187q6 49 16 117q-32 -6 -65 -17q-30 -10 -85 -32 q-39 -15 -92 -43q-50 -26 -85 -51q-36 -26 -61 -54q-24 -27 -24 -54l35 -115q0 -16 -6 -42t-35 -26q-39 0 -71 16q-29 15 -49 39q-20 25 -30 50q-10 26 -10 49zM420 1225q68 -17 96 -45q29 -29 27 -52l-23 -579q0 -73 12 -107t70 -34q55 0 118 60q62 59 115 147 q52 86 87 185q34 96 34 171q0 95 -44 150q-44 54 -108 81q-66 28 -136 32q-80 5 -129 5q-12 0 -42 -3q-23 -2 -77 -11z" />
<glyph unicode="Q" horiz-adv-x="1095" d="M41 766q0 70 21 157q20 82 69 163q45 75 120 129q73 53 177 53q26 0 48 -5q6 -1 12.5 -3t14.5 -5t12 -4q26 -8 40 -13q16 -6 49 -11q9 -1 43 -5l48 -9q21 -4 43 -9t32 -10q73 -21 125 -66q53 -46 90 -106t55 -135q19 -78 19 -154q0 -153 -57 -267q-58 -116 -136 -194 q-81 -81 -170 -130q-88 -48 -157 -76q29 -11 110 -50q65 -32 131 -69q84 -47 144 -83q49 -29 147 -89q93 -56 164 -83q75 -28 143 -28q39 0 80 22q39 21 39 56q0 37 -13 49q-14 12 -20 23q0 15 12 33t40 18t54 -27q25 -26 25 -76q0 -32 -18 -70t-57 -71q-37 -31 -100 -55 q-61 -23 -144 -23q-89 0 -175 28q-78 25 -158 72q-69 40 -143 98q-72 56 -133 106q-79 64 -123 97q-59 44 -116 68q-31 -10 -100 -28q-65 -17 -123 -17q-27 0 -50 4q-25 4 -46 15q-21 10 -34 28q-14 19 -14 45q0 41 42 68t112 27q40 0 103 -12t126 -36l43 21q73 35 137 90 t113 131q50 77 78 172q29 98 29 215q0 113 -23 193q-23 78 -64 127q-41 48 -100 70q-60 22 -129 22q-99 0 -158 -43q-61 -44 -95 -111t-46 -149t-12 -160q0 -50 10 -100q11 -56 33 -98q23 -44 59 -73q37 -30 89 -30q36 0 61 14q26 14 44 37q19 24 26 49q8 29 8 52 q0 52 -17 78q-16 25 -34 40q-14 12 -35 25q-17 11 -17 33q0 23 15 42t55 19q19 0 43 -12q26 -13 46 -39q23 -29 37 -68q15 -41 15 -98q0 -45 -17 -86q-18 -44 -50 -77q-31 -32 -79 -54q-47 -21 -103 -21q-110 0 -180 40t-111 104q-42 65 -58 144t-16 161zM162 55q0 -6 2 -8 q5 -9 18 -14q15 -6 31 -6q21 0 62 6q43 6 69 16q-37 13 -70 20q-32 7 -53 7q-27 0 -43 -6t-16 -15z" />
<glyph unicode="R" horiz-adv-x="1140" d="M-164 903q0 37 24 71t57 63q35 30 72 54q13 8 66 39q206 111 368 150q169 41 312 41q93 0 167 -46q76 -47 128 -108q55 -65 82 -124q29 -64 29 -95q0 -80 -34 -155q-35 -78 -88 -138q-52 -59 -124 -103q-69 -42 -141 -54q43 -15 95 -38q46 -20 85 -73q19 -26 32 -76 q11 -43 16 -100q6 -66 8 -107q3 -52 9 -96q6 -41 18 -69q12 -27 32 -27q22 0 34 9q11 8 27 32q2 -8 3 -11t1 -14q0 -43 -42 -73q-43 -31 -111 -31q-67 0 -108 32q-39 31 -50 109q-22 179 -27 238q-8 95 -22 143q-16 53 -41 70q-27 18 -80 18q-4 0 -32 -2q-21 -2 -21 -10 q-5 -20 -5 -86v-154v-229q0 -3 4 -27q3 -19 27 -26q-13 -13 -39 -20q-24 -7 -54 -10q-27 -3 -52 -3h-35q-22 0 -33 11q-12 11 -19 37q-7 25 -9 68q-2 56 -2 105v148q0 53 2 185q1 63 7 204q3 72 13 201q7 94 23 181q17 93 34 138q-4 4 -10 13t-10 9h-14q-48 0 -118 -21 q-69 -21 -136 -54q-69 -34 -113 -73q-47 -41 -47 -77q0 -8 3 -31q4 -30 6 -46q3 -24 6 -45t3 -29q0 -23 -4 -40q-5 -20 -24 -20q-34 0 -62 19q-25 16 -46 46q-20 27 -30 57q-10 29 -10 50zM575 614q0 -28 10 -36q11 -9 50 -9q66 0 130 44q62 43 110 108q47 63 75 135 q29 73 29 127q0 105 -81 158q-82 53 -210 53h-19q-4 0 -10.5 -0.5t-19.5 -1t-23 -0.5q-17 -1 -29 -26q-12 -24 -12 -76v-476z" />
<glyph unicode="S" horiz-adv-x="1009" d="M90 90q0 62 42 96q43 36 122 52q-9 -25 -17 -42q-14 -31 -14 -81q0 -58 37 -92q40 -37 88 -54q53 -19 106 -23q60 -5 89 -5q19 0 62 8q40 7 79 24q40 17 67 44t27 67q0 30 -19 64q-20 35 -52 70q-33 36 -76 73q-41 35 -92 74q-96 74 -142 112q-69 57 -125 119 q-55 61 -90 128t-35 140q0 112 42 192q40 77 109 128q64 48 146 71q81 23 156 23q57 0 120 -9q62 -9 115 -27q51 -17 86 -45q33 -26 33 -64q0 -30 -19 -55q-20 -26 -20 -56q0 -20 -8 -33q-7 -12 -20 -18q-13 -7 -25 -8q-16 -2 -20 -2q-34 0 -48 33q-7 16 -37 74 q-19 37 -64 74q-41 34 -130 34q-53 0 -94 -23q-43 -24 -69 -57q-28 -35 -41 -77q-13 -40 -13 -83q0 -66 24 -120q25 -57 66 -102q43 -48 103 -94q74 -57 129 -98q43 -31 115 -88q59 -46 101 -96q42 -49 70 -110q27 -58 27 -126q0 -76 -42 -125q-40 -47 -105 -78 q-59 -28 -141 -41q-77 -12 -148 -12q-66 0 -152 13q-79 12 -147 42q-72 32 -112 75q-44 47 -44 114z" />
<glyph unicode="T" horiz-adv-x="884" d="M-92 932q0 299 422 299q16 0 66 -2q25 -1 79 -3q27 -1 83 -3t75 -2q80 0 125 13t51 13h2q10 0 22 -18q5 -7 13.5 -22t13.5 -23q16 -28 33 -66q0 -18 -9 -23q-10 -5 -20 -5q-52 -1 -83 -37q-28 -33 -44 -92q-14 -52 -17 -134q-3 -76 -3 -159v-66q-1 -99 -15 -235 q-12 -118 -56 -214q-44 -95 -131 -155q-86 -59 -241 -59q-62 0 -122 18t-105 54t-72 86q-26 48 -26 114q0 19 12 44q12 26 45 26q31 0 53 -19q19 -17 37 -47q20 -34 32 -61q16 -34 36 -62q22 -30 52 -47q32 -18 79 -18q27 0 55 7q36 9 60 24q28 18 51 48q24 31 31 76 q19 106 23 215q4 100 19 230q14 120 46 231q34 118 108 221q-33 0 -54 1t-63 1q-39 0 -56 1t-38 1q-87 0 -173 12q-78 11 -189 11q-60 0 -100 -37t-40 -100q0 -36 16 -58q13 -18 38 -35q23 -16 49 -27q29 -13 49 -29q23 -19 38 -45q15 -27 15 -73q0 -19 -10 -36 q-11 -19 -39 -19q-44 0 -86 25q-43 25 -72 65q-30 40 -48 92q-17 48 -17 103z" />
<glyph unicode="U" horiz-adv-x="1150" d="M-92 651q0 32 9 95q8 57 29 139q19 74 49 154q32 84 68 144q38 62 90 105q50 41 111 41q43 0 77 -22q29 -19 62 -45q50 -38 81 -88q31 -51 48 -125q17 -77 23 -172q6 -99 6 -232q0 -37 -3 -86q-4 -66 -6 -101q-3 -52 -6 -108q-3 -55 -3 -104q0 -32 1 -57q2 -44 8 -75 q9 -44 21 -67q15 -29 41 -29q15 0 27 14q14 16 23 31q6 10 17 37q3 6 6.5 16t4.5 13q83 200 104 402q21 204 21 419q0 29 -7 51t-7 50q0 10 12 19q11 8 30 16t34 12t24 4q14 0 34 -7q25 -9 45 -19q38 -19 45 -23q21 -12 32 -23q-18 -11 -29 -29q-9 -21 -16 -87 q-11 -97 -16 -171q-6 -75 -11 -230q-4 -113 -4 -263q0 -16 3 -55q3 -43 10 -78q8 -41 22 -69q15 -30 35 -30q8 0 16 14l9 15t8 13q11 18 21 28q12 12 23 12q-3 -9 -4 -18q-2 -20 -2 -27q0 -3 2 -21l2 -18q0 -18 -17 -39q-18 -22 -71 -22q-72 0 -115 32q-44 33 -64 76 q-21 45 -27 92q-9 67 -9 74q-12 -24 -33 -78q-14 -36 -50 -110q-24 -50 -58 -97q-30 -42 -61 -42q-83 0 -134 32q-53 33 -85 84t-45 114q-13 61 -13 122q0 3 0.5 10t1 19.5t0.5 24.5q1 17 2.5 58t2.5 55q3 68 9 160q2 33 7.5 98t7.5 97q0 11 1 25t1 45t1 45t1 24q0 8 -2 74 q-1 48 -12 98q-10 48 -30 86q-19 37 -54 37q-51 0 -98 -59q-50 -62 -86 -145q-35 -81 -61 -183q-24 -96 -24 -170q0 -32 4 -65q4 -35 17 -70q11 -31 35 -55q23 -23 61 -23q25 0 41 14q15 13 26 30q4 6 10.5 16.5t9.5 14.5q9 13 26 13q19 0 31 -22t12 -41q0 -49 -37 -67 q-35 -17 -78 -17q-130 0 -197 76t-67 194z" />
<glyph unicode="V" horiz-adv-x="1103" d="M-59 727q0 68 16 160q17 96 55 181q39 88 105 149q65 61 164 61q80 0 138 -55q56 -54 98 -129q41 -75 62 -146q23 -80 29 -106q18 -67 40 -170q8 -37 37 -185q9 -45 32 -177q6 -33 14 -84.5t10 -63.5q53 218 60 248q28 122 65 265q33 128 77 266q43 134 93 251 q16 37 31 57q12 17 18 17q17 0 33 -12q20 -14 29 -26q13 -16 20 -32q9 -20 9 -27v-4q0 -1 -1.5 -3t-4 -4t-6 -6t-6.5 -8q-16 -19 -30 -46q-18 -39 -45 -102q-27 -64 -55 -141q-30 -83 -57 -169q-29 -90 -51 -186q-21 -88 -37 -193q-15 -96 -15 -186q0 -61 10 -108 q9 -43 31 -66q-17 -15 -74 -22q-53 -7 -106 -7q-9 0 -40 3q-30 3 -69 17q-41 15 -74 38q-35 25 -52 71q15 6 20 48q4 37 4 81q0 48 -6 118q-6 68 -18 152q-6 41 -28 171q-15 88 -35 173q-22 94 -40 155q-24 81 -41 122q-10 26 -34 50t-62 24q-52 0 -92 -34q-43 -36 -70 -91 t-43 -131q-14 -69 -14 -154q0 -22 1 -42q1 -29 9 -61q7 -30 24 -57q15 -24 42 -24l75 4q11 0 31 -7q17 -6 43 -20q22 -12 39 -30q16 -17 16 -41q0 -17 -16 -29q-18 -13 -37 -20q-14 -5 -40 -11q-17 -4 -25 -4q-74 0 -123 34t-79 85q-30 52 -42 110q-12 60 -12 109z" />
<glyph unicode="W" horiz-adv-x="1329" d="M-92 670q0 54 10 117q10 66 32 135q20 63 53 133q30 64 75 116q46 53 97 82q56 31 118 31q8 0 30 -7q7 -2 13 -4t10 -3l4 -2q54 -22 94 -80t65 -135q26 -81 41 -171q16 -98 23 -187q10 -125 11 -181q2 -118 2 -156q0 -27 1 -39t1 -34q89 245 117 384q30 148 30 199l-4 33 q1 1 4.5 2.5t6.5 2.5q8 3 12 3q13 0 40 -8t52 -19q30 -13 48 -25q22 -14 28 -26q12 -18 15 -32q2 -9 7 -47v-9q22 -282 53 -425q33 -150 60 -150h2q13 11 21 73q9 68 14 157q2 38 7 120.5t6 107.5q9 150 19 281q16 189 29 290q12 91 41 91q17 0 40 -10q26 -11 45 -25 q28 -20 38 -29q16 -15 16 -28l-2 -6q-11 -26 -27 -92q-16 -68 -22 -107q-15 -122 -20 -163q-14 -120 -23 -225q-10 -119 -18 -250q-9 -153 -9 -238q0 -39 4 -59q3 -17 13 -36q-17 -18 -40 -27q-22 -8 -47 -13q-24 -4 -45 -6q-14 -1 -34 -1q-50 0 -99 32q-47 31 -81 118 q-19 49 -32 126q-11 63 -25 156q-9 56 -19 139q-7 58 -16 70q-26 -56 -49 -138q-24 -87 -42 -177q-14 -71 -29 -169q-12 -80 -12 -114q0 -26 9 -28q-12 -12 -53 -23q-39 -10 -64 -10h-8q-35 5 -55 15q-33 15 -44 22q-27 17 -36 26q2 38 2 60v63v240q0 79 -1 125 q0 22 -0.5 65.5t-1.5 64.5q0 18 -0.5 52t-1.5 49q0 12 -0.5 22.5t-0.5 15.5l-1 5q-4 39 -6 101q-2 63 -13 119q-12 60 -37 102q-25 43 -79 43q-28 0 -52 -15q-34 -22 -46 -30q-44 -35 -75 -91q-32 -58 -51 -121q-21 -68 -29 -130q-9 -66 -9 -121q0 -18 3 -48q2 -22 12 -59 q8 -30 22 -50q15 -21 39 -21l53 8q13 0 29 -6t32 -17q15 -10 25 -22q10 -11 10 -27q0 -11 -10 -18q-14 -10 -24 -13q-25 -8 -29 -8q-20 -2 -25 -2q-69 0 -115 27q-47 27 -74 71q-28 44 -38 101q-10 54 -10 117z" />
<glyph unicode="X" horiz-adv-x="993" d="M38 66q2 5 6.5 13.5t8.5 15.5t37 71q24 46 55 97q41 68 72 116q74 112 88 133q12 18 28.5 43.5t21.5 32.5l24 36q6 9 6 13q0 2 -23 40q-16 28 -55 94q-41 71 -73 123q-26 43 -72 128q-35 65 -56 110q-22 47 -22 66q0 6 8 25q3 5 18 24q17 21 23 28q8 9 26 23q15 12 23 13 q28 -66 66 -140q38 -75 82 -149q59 -99 83 -137q56 -87 66 -101q5 7 11 16t14 21.5t13 19.5q8 12 43 62q7 10 21.5 30.5t21.5 30.5q8 12 20.5 29.5t15.5 20.5q30 41 38 53q28 42 59 75q37 40 71 66q38 29 70 29q23 0 54 -18q30 -17 46 -35q-23 -4 -45 -33q-25 -32 -45 -61 q-3 -4 -70 -106q-39 -59 -87 -137q-44 -71 -81 -132q-18 -29 -53 -90q13 -27 50 -94q16 -29 69 -118q40 -68 76 -124q61 -96 72 -112q38 -55 60 -83q26 -34 35 -35q6 -2 15 -2q27 0 43 25q0 -2 2 -2l4 2v-2q-2 -19 -3 -29q-1 -7 -1 -19q0 -13 -1 -21q-2 -14 -3 -29 q-7 -12 -21 -19q-21 -11 -30 -13q-3 -1 -13.5 -4t-15.5 -4q-12 -3 -17 -3h-10q-46 0 -84 28q-33 24 -72 70q-32 38 -63 88q-28 47 -51 84q-18 27 -39 62q-16 26 -32 55q-20 36 -31 54q-33 54 -39 64q-3 -4 -30 -45t-45 -69q-47 -72 -90 -144q-62 -102 -76 -128 q-32 -58 -32 -68q0 -4 5 -9l10 -10q-7 -10 -37 -10q-40 0 -69 14q-32 15 -54 33q-22 17 -35 34q-10 13 -10 16z" />
<glyph unicode="Y" horiz-adv-x="1105" d="M-92 664q0 66 13 141q14 79 39 158q26 79 63 156q38 77 85 136q49 61 107 96t127 35q54 0 82 -27q24 -23 59 -63q4 -3 15 -12t19 -15q28 -24 32 -28q14 -14 23 -52q12 -48 15 -81q6 -59 7 -84q2 -54 2 -63q0 -96 -10 -183q-11 -96 -24 -184q-9 -61 -23 -185 q-11 -97 -11 -186q0 -8 2 -50q1 -26 10 -63t21 -55q15 -22 41 -22q25 0 49 40q26 44 47 104q25 70 44 144q25 95 38 156q19 90 29 146q12 67 18 108q12 77 16 132q5 73 5 145q0 17 -2 47t-2 41q0 12 20 16q19 4 37 4q14 0 35 -4q24 -4 51 -12q14 -4 47 -18q21 -9 21 -19 q0 -35 -11 -74q-13 -98 -26 -232q-10 -104 -10 -220q0 -76 9 -193t9 -246q0 -83 -8 -171q-7 -78 -31 -148q-23 -67 -61 -108q-39 -42 -103 -48q-40 -4 -91 -6q-66 -2 -91 -2q-38 0 -82 10q-49 11 -89 34q-44 25 -71 58q-28 34 -28 84q0 11 7 28t21 17q42 0 62 -26 q15 -20 41 -60q20 -32 52 -59t95 -27q59 0 94 30q36 31 55 80q19 48 25 115q6 65 6 132q0 65 -3 128t-3 115q0 29 1 43q1 19 3 37q-13 -44 -34 -129q-16 -65 -48 -135q-29 -63 -70 -106q-42 -43 -104 -43q-58 0 -101 25q-45 26 -73 69t-43 97q-14 50 -14 110q0 102 10 198 q7 67 23 203q8 68 22 206q10 99 10 210q0 12 -2 58q-1 32 -11 66q-9 31 -27 54t-52 23q-33 0 -60 -21q-32 -24 -50 -43q-94 -97 -145 -226q-52 -131 -52 -280q0 -24 3 -56q3 -33 15 -61q13 -31 31 -49q20 -20 54 -20q19 0 30 11q16 16 23 25q10 14 21 24q11 11 26 11 q23 0 39 -30q16 -29 16 -49q0 -30 -14 -44q-16 -16 -35 -23q-18 -6 -44 -8q-16 -1 -44 -1q-21 0 -50 11q-33 13 -48 22q-67 35 -94 87t-27 124z" />
<glyph unicode="Z" horiz-adv-x="798" d="M-557 1554v5h10v-5h-10zM12 135q0 6 46 68q59 80 116 158q85 116 152 209q84 116 151 218q71 107 116 188q46 82 46 116q0 16 -11 23t-59 7q-32 0 -50 -1q-26 -1 -68 -3l-279 -12q-67 0 -91 37q-23 37 -28 100q167 17 329 24q116 5 329 13q19 0 38 -30q18 -27 35 -68 q16 -39 27 -78q10 -37 10 -57q0 -25 -11 -46t-37 -59q-22 -32 -67 -95q-50 -69 -106 -155q-14 -21 -122 -189q-36 -55 -98 -160q-38 -64 -66 -118q-23 -45 -23 -65q0 -12 24 -17q21 -4 58 -4q32 0 56 1q40 2 76 3q13 1 40 2t40 1q27 1 68 1q55 0 85 -21t30 -81q0 -7 -1 -19 q-1 -18 -5 -18h-27q-46 -2 -80 -2h-115q-107 0 -179 -1q-177 -2 -267 -5q-8 4 -24 24q-17 20 -27 38q-11 19 -21 41t-10 32z" />
<glyph unicode="[" horiz-adv-x="649" d="M57 -98q0 34 33 61q-9 75 -10 85q-3 23 -7 66q-4 44 -5 82q-2 64 -2 134q0 92 8 188q8 92 18 179q13 114 19 181q8 98 8 191q0 51 -1 70l-3 57q-1 28 -6 60q-1 7 -5 32.5t-6 42.5q-24 24 -24 62q0 29 19 49t59 22l471 -20q10 -1 16 -14q7 -14 11 -27q6 -21 7 -27 q0 -2 0.5 -5t1 -5t0.5 -3.5v-2.5q0 -13 -7 -23q-8 -11 -25 -12l-326 -18q2 -32 2 -51v-50l-84 -1188v-38q29 0 99 -5q73 -5 122 -15q63 -13 104 -31q44 -20 44 -50q0 -29 -24 -37q-26 -8 -64 -8h-144q-42 0 -73 -4q-38 -5 -64 -16h-10q-12 0 -19 -1t-19 -1h-11q-44 0 -73 28 q-30 28 -30 62z" />
<glyph unicode="\" horiz-adv-x="1024" d="M129 1315q0 5 9 17q6 8 22 24q8 8 24 22q13 12 19 13q0 4 20 10q21 6 41 6q60 0 103 -43q50 -113 98 -247q45 -127 103 -298q70 -208 105 -313q61 -184 101 -291q17 -44 35 -70q31 -45 39 -55q21 -28 31 -43q12 -18 12 -35q0 -19 -29 -30q-30 -11 -74 -11q-24 0 -49 5 q-20 4 -34 18q-22 17 -57 82q-29 53 -74 153q-23 51 -81 194q-37 92 -79 202q-32 84 -67 179q-18 49 -44 124q-4 14 -15.5 49t-17.5 52q-26 79 -44 127q-23 61 -48 109q-24 46 -47 46z" />
<glyph unicode="]" horiz-adv-x="761" d="M57 -74q0 12 8 23t25 12l326 19q-2 32 -2 50v50l84 1188v39q-44 0 -100 4q-73 5 -122 15q-61 12 -103 31q-44 20 -44 50t24 37q26 8 64 8h143q43 0 74 4q34 4 64 17h10q11 0 18 1t20 1h11q42 0 73 -29q29 -28 29 -62q0 -35 -32 -61q4 -34 11 -83q6 -42 8 -65q2 -26 4 -83 q1 -33 1 -136q0 -92 -8 -188q-8 -92 -18 -179q-14 -116 -19 -180q-8 -98 -8 -192q0 -49 1 -69t3 -58q2 -28 6 -60q2 -11 5 -36t5 -39q25 -25 25 -61q0 -30 -19 -50t-59 -22l-471 20q-6 1 -15 15q-8 13 -12 26q-8 26 -8 27q0 2 -0.5 5t-1 5t-0.5 3.5v2.5z" />
<glyph unicode="^" horiz-adv-x="884" d="M63 950q0 27 35 51q50 37 84 63q12 9 33.5 24.5t30.5 21.5q4 3 24.5 18t31.5 23q8 6 29.5 21.5t33.5 25.5q53 41 102 41q20 0 41 -6t29 -19q7 -6 14 -24q7 -20 37 -39q31 -30 79 -74q37 -35 67 -64q30 -30 48 -51q19 -22 19 -34q0 -16 -11 -23q-13 -8 -24 -8 q-19 0 -47 16q-89 60 -138 93q-42 28 -76 48q-23 14 -34 18q-7 3 -12 3q-17 0 -31 -7l-35 -17l-229 -121q-17 -11 -28 -15q-15 -6 -30 -6q-14 0 -29 10q-14 9 -14 31z" />
<glyph unicode="_" horiz-adv-x="1024" d="M-25 -395q0 20 11 37q10 16 49 16h6q54 -2 80 -2h80l987 2q33 -2 44 -28q11 -23 11 -48q0 -21 -11 -35t-48 -14h-13h-76h-156q-131 0 -206 -1t-226 -1h-219h-184q-51 0 -90 15t-39 57v2z" />
<glyph unicode="`" horiz-adv-x="643" d="M111 1094q4 5 4 18v8q0 51 13 78q14 29 28 29q8 0 35 -18q34 -23 65 -45q38 -27 78 -60t75 -63q34 -30 56 -53t22 -34l5 -45q0 -30 -23 -30q-14 0 -25 14q-12 15 -34 25q-34 20 -74 53q-45 37 -117 78l-42 21q-22 11 -42 17z" />
<glyph unicode="a" horiz-adv-x="743" d="M27 276q0 127 13 234q13 108 44 196q30 85 80 135t119 50q42 0 62 -7q21 -8 40 -17q6 -3 19.5 -9t20.5 -10q22 -11 60 -17q43 -24 61 -58q17 -33 22 -73q3 -31 3 -64v-16q-1 -11 -1 -22q0 -32 5 -61q0 -2 10 -7q9 -4 21 -9q13 -5 22 -14t9 -24v-8q-20 -52 -25 -94 q-4 -36 -4 -98q0 -29 3 -63q3 -29 11 -63q8 -32 21 -49q15 -20 37 -20q24 0 44 25q19 23 33 56q13 29 22 64q11 41 12 50q5 24 20 24q11 0 19 -11q10 -13 10 -40v-15q0 -4 -2 -18q-4 -28 -21 -67t-42 -75q-28 -39 -59 -61q-34 -24 -75 -24q-60 0 -107 47q-46 46 -57 133 q-19 -53 -28 -76q-15 -39 -41 -80q-21 -33 -57 -62q-32 -26 -75 -26q-10 0 -18 2q-2 1 -6.5 3t-6.5 3q-9 4 -17 5q-12 2 -25 2q-49 0 -83 31q-32 29 -54 81q-21 49 -30 108q-9 58 -9 109zM172 291q0 -33 3 -79q3 -42 11 -87q7 -38 24 -70q15 -28 40 -28q60 0 91 46 q32 47 48 114q17 69 24 148q3 31 7.5 83t5.5 61q5 36 18 44q15 9 15 14v18q0 26 -4 53q-5 32 -15 58q-11 29 -30 45q-21 18 -56 18q-57 0 -93 -52q-34 -50 -56 -123q-21 -71 -27 -145q-6 -75 -6 -118z" />
<glyph unicode="b" horiz-adv-x="679" d="M78 262q0 177 4 406q2 104 8 665q0 21 -4 25t-4 8q0 12 23 16q21 4 30 4t33 -4q27 -4 54 -12q28 -8 50 -21q23 -14 23 -32l-4 -12q-1 -4 -2.5 -8.5t-4 -11t-3.5 -10.5q-2 -5 -6 -16.5t-6 -16.5q-5 -17 -5 -21q-10 -78 -15 -135q-6 -76 -8 -118q0 -1 -3 -56.5t-4 -88.5 q-3 -83 -9 -213q11 23 20 53q11 37 23 62q16 31 36 53q21 23 58 23q14 0 47 -13q27 -11 46 -16q57 -12 91 -64t52 -121q20 -77 24 -141q5 -80 5 -122q0 -48 -10 -118q-9 -62 -36 -115q-26 -51 -78 -87q-50 -35 -132 -35q-73 0 -108 12q-39 13 -56 25l-10 -5l-23 -11 q-2 -1 -10 -5.5t-13 -6.5q-13 -5 -18 -5q-12 0 -25 11q-12 10 -18 42t-9 88q-3 57 -3 148zM219 186q0 -31 1 -48q2 -33 5 -48q33 -14 37 -17q16 -10 21 -13q10 -6 17 -7q12 -2 24 -2q54 0 84 42q32 44 46 96q14 51 19 108q4 47 4 76q0 14 -1 32q-2 44 -4 62q-3 35 -9 75 q-6 38 -18 72q-14 38 -27 55q-16 21 -41 21q-33 0 -62 -57q-30 -59 -50 -138q-23 -89 -34 -167q-12 -85 -12 -142z" />
<glyph unicode="c" horiz-adv-x="618" d="M39 334q0 82 21 172q21 91 87 164q54 63 135 104q76 39 156 39q42 0 71 -11q32 -12 36 -28q3 -16 5 -56q1 -23 1 -89q0 -49 -7 -70q-7 -22 -30 -22q-25 2 -35 25q-2 3 -20 51q-11 29 -27 52q-16 24 -53 25q-53 0 -88 -41t-54 -96t-27 -111q-7 -52 -7 -86q0 -118 36 -203 q36 -86 128 -94l22 -2q63 0 103 32q36 29 62 70q22 35 37 69q14 32 27 32h7q26 -1 26 -35q0 -15 -10 -41q-49 -116 -126 -169q-76 -52 -181 -52h-20q-5 0 -19 2q-50 6 -98 32t-82 72q-36 48 -56 112q-20 63 -20 153z" />
<glyph unicode="d" horiz-adv-x="768" d="M23 293v35q0 12 6 53q7 47 19 95q14 54 33 114q18 54 47 108q26 48 63 82q36 33 81 33q51 0 96 -16q18 -6 39.5 -14.5t26.5 -10.5q2 38 3 90q1 17 1 52.5t1 53.5q1 35 1 97v68q0 41 -2 91q-1 29 -7 64q-4 24 -11 43q-6 16 -14 29q29 9 68 14q31 4 63 4q48 0 72 -7 q26 -8 26 -36q0 -11 -6 -71q-9 -87 -13 -155q-6 -91 -12 -220q-6 -124 -6 -266v-207q0 -40 2 -110q1 -51 9 -92q7 -40 22 -63q15 -24 41 -24q59 0 89 69t48 216q1 15 8 28t27 13q18 0 23 -24q3 -19 3 -37v-9l-2 -33q-5 -52 -17 -102q-14 -59 -39 -109q-26 -51 -68 -86 q-43 -35 -101 -35q-87 0 -128 41q-38 38 -66 127l-3 -10q-9 -39 -19 -72q-12 -40 -31 -70q-20 -32 -48 -53q-30 -22 -74 -22q-32 0 -60 11q-30 12 -62 28q-47 24 -74 65t-39 84q-13 46 -14 83q-2 54 -2 63zM184 217q0 -13 2 -57q1 -24 11 -62q8 -29 22 -49t39 -20 q26 0 49 30q23 31 41 80q21 58 34 111q14 59 27 122q10 49 17 114q7 62 8 87l2 74q0 7 -9 15q-12 10 -23 16q-21 11 -27 14q-15 6 -25 6q-40 0 -72 -50q-34 -53 -54 -124t-31 -157q-11 -88 -11 -150z" />
<glyph unicode="e" horiz-adv-x="552" d="M23 317q0 75 16 158q17 86 51 161q34 74 88 125q53 50 129 50q37 0 70 -15q31 -14 57 -40q23 -23 39 -58q14 -32 16 -67l3 -29q0 -47 -17 -107q-17 -59 -47 -109q-29 -48 -76 -84q-44 -34 -102 -34q-6 0 -26 2q-13 1 -29 6v-59q0 -14 9 -41q9 -26 27 -52q17 -24 49 -45 q31 -20 72 -20q60 0 98 24q40 26 62 60q25 40 38 83q14 48 21 89q5 26 13 39q6 11 20 11q31 0 31 -35v-15q0 -47 -19 -114q-18 -65 -57 -118q-38 -53 -99 -91q-59 -37 -145 -37q-79 0 -135 29t-91 77q-36 49 -51 116q-15 66 -15 140zM209 395q0 -17 3 -29t21 -12h11 q40 0 69 31q27 29 46 74q19 46 26 88q8 48 8 74v12q0 17 -9 35t-34 18q-36 0 -63 -39q-25 -35 -44 -89q-19 -52 -26 -96q-8 -50 -8 -61v-6z" />
<glyph unicode="f" horiz-adv-x="507" d="M-18 397q0 26 11 41q12 16 30 27q14 8 42 17q38 12 46 14q8 49 28 124q13 51 41 171q21 90 36 185q15 93 15 165q0 33 -5 65q-5 31 -25 60q15 9 48 17q28 7 68 7q12 0 34 -5q20 -5 37 -16q18 -12 30 -27t12 -36q0 -53 -18 -110q-20 -63 -35 -129q-5 -25 -19 -75 q-2 -6 -10 -37.5t-14 -50.5q-12 -40 -33 -120q-18 -69 -45 -174q6 1 21.5 3.5t23.5 4.5q3 1 19.5 4.5t27.5 5.5q23 5 62 17q11 3 41 11.5t49 14.5q-10 -26 -32 -63q-21 -35 -56 -68q22 -23 37 -61q13 -32 21 -80q8 -43 9 -87q2 -58 2 -85q0 -9 -3 -62t-12 -123 q-7 -54 -25 -150q-15 -78 -39 -145q-26 -70 -55 -111q-32 -44 -77 -44q-19 0 -43 9q-21 8 -48 23q-19 11 -44 32q-20 17 -31 36q-17 33 -28 120q-10 81 -10 233q0 79 6 168q2 27 6.5 93t7.5 105q-6 2 -16.5 6t-15.5 5q-17 6 -34 15q-14 8 -27 24q-11 14 -11 36zM201 -188 q0 -14 1 -34q2 -45 4 -65q3 -35 12 -63q9 -29 24 -29q24 0 45 32q19 28 35 80q9 28 25 105q12 56 18 107q6 49 9 84t3 39v129q0 1 -0.5 5t-1 11.5t-0.5 15.5q-1 25 -8 62q-5 29 -17 59q-10 27 -26 27q-2 0 -19 -5q-1 0 -31 -14l-41 -20q-11 -74 -19 -203q-7 -108 -13 -323z " />
<glyph unicode="g" horiz-adv-x="720" d="M35 303q0 105 11 199q12 104 40 187q28 84 77 139t122 55q7 0 21 -6q9 -4 29 -14l31 -14q15 -7 23 -9q33 -6 76 -21q34 -12 59 -32q24 -19 39 -51t15 -79q0 -23 -6 -59q-5 -30 -5 -68q0 -16 13 -22q10 -5 27 -10q7 -2 28 -10q12 -4 12 -21q0 -5 -9 -20q-10 -17 -11 -19 q-7 -19 -11 -52q-4 -36 -6 -78q-1 -28 -3 -86q-1 -29 -1 -79v-71q0 -34 2 -72h8q6 0 9 1t6 1q21 0 50 -11q32 -12 32 -34q0 -21 -19 -29t-35 -8l-41 4q-10 0 -10 -12l-2 -25q2 -74 2 -139v-162q0 -73 -5 -161q-4 -75 -23 -141q-18 -61 -53 -100q-35 -38 -93 -38 q-44 0 -107 5q-58 5 -103 25q-46 21 -76 61q-29 39 -29 107t15 139q15 69 44 137q30 69 69 127q42 62 87 107q34 34 54 51q33 28 52 42v2q5 44 6 86q3 87 3 88q-4 -7 -25 -51q-16 -34 -34 -60q-20 -29 -44 -50q-25 -22 -55 -22q-15 0 -29 7q-12 6 -35 6q-60 5 -95 30 q-38 27 -59 74q-23 51 -30 112q-8 69 -8 144zM166 307q0 -43 3 -89q3 -49 10 -83q7 -36 23 -61t40 -25q42 0 75 37q35 40 55 91q19 48 32 113q13 62 14 101q2 60 6 81q5 24 8 28q12 16 15 39q4 30 4 41q0 19 -5 51t-14 54q-10 25 -30 43q-18 17 -48 17q-38 0 -72 -30 t-60 -87q-26 -59 -41 -138q-15 -81 -15 -183zM215 -625q0 -24 4 -45q5 -28 13 -46q9 -21 27 -36q17 -14 42 -14q44 0 71 36q29 39 43 85q16 52 20 100q5 57 5 82v19q0 24 1 47t1 97v167q-49 -35 -89 -92q-42 -60 -72 -129q-32 -73 -49 -142q-17 -68 -17 -129z" />
<glyph unicode="h" horiz-adv-x="710" d="M59 35q0 2 8 18q7 14 7 58v1177q0 29 -7 39q-8 11 -8 25q0 8 15 13q20 6 32 8t38 4q13 1 32 1q55 0 109 -22q-12 -61 -20 -147q-12 -118 -17 -188q-8 -97 -12 -186q-5 -98 -5 -139v-15q0 -22 -1 -47q0 -11 -0.5 -28t-1 -43t-0.5 -47q-2 -80 -3 -225q0 1 9 39q7 29 24 92 q20 72 34 119q18 57 41 117q21 55 44 91q22 35 43 35q22 0 62 -9q39 -9 50 -32q6 -20 18 -34q11 -13 16 -17q10 -8 13 -12q5 -7 5 -18q-8 -33 -10 -41q-5 -21 -14 -87q-6 -43 -13 -115q-6 -63 -6 -124q0 -85 14 -141q15 -60 55 -60t68 25q26 23 44 61t27 79q9 42 15 75 q10 43 31 43q22 0 31 -17q10 -18 10 -43l-2 -26q-1 -22 -18 -81q-15 -52 -45 -102q-33 -54 -76 -89q-46 -37 -111 -37q-66 0 -102 36q-38 38 -57 102q-21 69 -25 154q-5 100 -5 197v46q0 20 2 48q-28 -52 -49 -113q-26 -74 -44 -147q-21 -83 -32 -159q-13 -85 -14 -152 q-28 -6 -44 -10q-28 -7 -54 -7q-5 0 -15.5 1.5t-13.5 1.5q-15 1 -33 8q-16 6 -27 17q-12 12 -12 30z" />
<glyph unicode="i" horiz-adv-x="417" d="M18 1036q0 11 16 19q22 11 35 16q22 9 36 12q16 4 24 4q42 0 81 -20q40 -21 64 -76q12 -16 16 -21q11 -14 11 -22q0 -15 -14 -23q-17 -10 -32 -14q-18 -5 -34 -6q-4 0 -7.5 -0.5t-5.5 -1t-4 -0.5h-3q-41 0 -85 25q-41 24 -77 78q-1 1 -3 4t-4.5 6t-4.5 6q-9 13 -9 14z M45 723q0 9 10 13q14 6 23 7q16 2 23 2h12q13 0 28 -1q26 -2 47 -7q26 -6 44 -19q20 -14 20 -38q2 -7 -7 -23q-11 -21 -18 -57q-1 -6 -2.5 -16t-1.5 -14t-1.5 -13.5t-2.5 -15.5q0 -2 -1.5 -16.5t-2.5 -23.5q0 -1 -1.5 -23.5l-2.5 -37.5v-123q0 -20 2 -66q2 -35 9 -62 q8 -27 24 -45q16 -17 43 -17q38 0 61 23q27 27 35 38q23 31 35 77q10 40 22 95l4 21q6 31 37 31t31 -43v-11l-4 -30q-6 -49 -23 -103t-46 -99q-30 -47 -74 -76q-45 -30 -111 -30q-51 0 -104 35q-54 39 -73 97q-20 62 -20 114q0 5 2 49t2 80v226q0 22 -1 34q-2 24 -5 35 q-1 5 -7 19q-5 12 -5 14z" />
<glyph unicode="j" horiz-adv-x="483" d="M-127 -391q0 71 23 155q22 80 63 161q40 78 99 151t132 125v477q-1 8 -3 28q-1 10 -1 19q0 49 54 49q3 0 27 -3q23 -3 49 -9q24 -6 48 -16q21 -9 21 -21q0 -6 -7 -16q-3 -4 -7 -11t-4 -8q-13 -31 -16 -72q-3 -44 -3 -96v-188v-59q0 -13 2 -23l29 4q6 0 18 -3q8 -2 26 -8 q6 -2 23 -14q11 -8 11 -18q0 -11 -10 -19q-9 -8 -21 -12t-23 -6q-3 0 -6 -0.5t-5 -1t-3 -0.5l-37 4v-407q0 -23 -1 -44q-2 -33 -6 -73q-5 -44 -16 -84q-13 -46 -32 -79q-20 -34 -51 -59q-30 -24 -76 -24h-2q-2 1 -6.5 1.5t-8.5 0.5t-15.5 1.5t-18.5 2.5q-6 1 -18 2.5 t-17 1.5q-22 2 -23 2q-107 12 -148 64q-40 50 -40 125zM-31 -352q0 -8 2 -40q1 -20 12 -45q9 -22 27 -38q19 -17 49 -17q31 0 54 24q22 23 37 61q14 35 22 84q8 51 11 92q2 29 4 85q1 27 1 64v215q-52 -45 -90 -105q-40 -63 -69 -129q-29 -67 -44 -133q-16 -70 -16 -118z M121 1057q0 11 15 18q31 15 35 17q20 8 37 12q16 4 23 4q41 0 81 -21q42 -22 65 -75q1 -1 5.5 -8.5t9.5 -13.5q11 -14 11 -21q0 -16 -14 -24q-14 -9 -32 -13q-19 -5 -33 -6q-4 0 -9 -0.5t-8 -1t-4 -0.5q-43 0 -85 24q-41 24 -77 78q-1 1 -3 4t-4.5 6t-4.5 6q-8 11 -8 15z " />
<glyph unicode="k" horiz-adv-x="626" d="M45 1346q0 13 20 24q19 10 74 10q33 0 61 -5q22 -4 42 -13q19 -6 32 -21q-12 -51 -21 -137q-9 -85 -15 -185q-8 -131 -10 -199q-3 -99 -3 -179q3 8 26 59q18 40 42 81q25 42 57 71q34 31 74 31q47 0 73 -28q25 -26 37 -65q11 -36 13 -78q2 -54 2 -67q0 -39 -17 -92 q-17 -52 -46 -100q-32 -53 -70 -91q-39 -39 -88 -61q31 -10 62 -33q29 -22 52 -63q12 -18 17 -37q5 -17 14 -39q7 -17 21 -31q12 -12 34 -12q31 0 53 31q21 30 36 83q15 52 27 122q10 57 22 145q5 30 14 38q11 9 20 9q35 0 35 -47q0 -18 -6 -67q-8 -68 -16 -119 q-6 -29 -22 -91q-13 -51 -36 -96q-24 -48 -56 -77q-34 -31 -83 -31q-50 0 -81 18t-51 47q-19 28 -33 62q-18 44 -27 61q-16 31 -35 47q-22 19 -56 19h-26v-123q0 -27 5 -75q4 -37 13 -79q-9 -4 -35 -7q-24 -3 -34 -3q-62 0 -81 12q-20 12 -20 70v1239q0 26 -5 46t-5 26z M213 354q0 -9 4 -13q5 -5 25 -5q37 0 68 19q34 21 57 53q26 36 41 74q15 39 20 85q2 17 3 36q1 13 1 42q0 44 -7 73q-8 32 -30 32q-34 0 -67 -37q-35 -40 -59 -93q-27 -60 -41 -127q-15 -71 -15 -139z" />
<glyph unicode="l" horiz-adv-x="409" d="M31 604q0 46 3 101q4 78 7 115q6 84 10 121q7 67 12 116q2 14 7.5 42.5t7.5 41.5q6 38 17 86q7 32 22 73q13 35 26 48q16 16 44 21q30 5 51 5q46 0 75 -24t44 -67q17 -47 21 -96q5 -60 5 -116q0 -95 -6 -204q-6 -105 -26 -220q-20 -112 -55 -215q-37 -107 -95 -190 q1 -15 7 -67q5 -38 15 -71q10 -32 27 -55q16 -22 43 -22q25 0 39 11t25 25q12 15 23 26t30 11q20 0 27 -12q7 -11 7 -29q0 -26 -17 -43q-16 -16 -43 -32q-23 -14 -53 -22q-25 -7 -46 -7q-38 0 -77 7q-43 8 -71 30q-33 27 -54 85q-21 59 -33 139q-10 66 -15 180q-4 88 -4 208 zM182 464q0 -42 4 -67q68 163 86 314q19 160 19 311q0 30 -1 49q-2 29 -6 56q-3 20 -14 48q-7 19 -22 19q-21 0 -33 -57q-11 -53 -19 -151q-8 -102 -11 -211q-3 -118 -3 -238v-73z" />
<glyph unicode="m" horiz-adv-x="1062" d="M59 272q0 76 3 177q1 38 4 120.5t4 114.5q0 8 -2 48q0 8 -0.5 16.5t-1 12.5t-0.5 5q0 16 13 19t19 3q14 0 34 -3q26 -4 39 -7q19 -4 36 -9q16 -4 22 -9v-494q7 27 24 95q16 65 31 108q21 62 38 98q21 46 43 66q7 6 30 9t37 3q11 0 26 -3q13 -3 29 -9q10 -4 26 -16 q11 -9 13 -21v-332v-18q0 -13 4 -13t24 56q1 4 18 52.5t28 78.5q22 61 57 155q26 69 56 127q5 9 27 10q16 1 42 1q12 0 39 -10q26 -10 48 -25q23 -16 41 -37t18 -43q0 -3 -13 -24q-12 -19 -16 -39q-14 -54 -19 -113q-6 -74 -6 -141q0 -24 4 -74q3 -40 10 -67q8 -31 19 -48 q12 -18 33 -18q29 0 51 19q23 20 39 52q17 35 29 77q13 46 20 91q10 49 37 49q17 0 22 -8t5 -37q0 -14 -2 -22q-1 -19 -18 -83q-13 -50 -43 -113q-26 -54 -68 -98q-40 -42 -94 -42q-64 0 -105 30q-40 30 -63 80q-23 51 -32 115q-9 66 -9 138v14l12 168q-31 -60 -53 -117 q-33 -85 -37 -96q-1 -6 -11 -43q-7 -27 -21 -73q-11 -37 -19 -79q-9 -47 -9 -63q0 -11 -18 -19q-19 -8 -47 -8q-45 0 -72 12q-26 11 -40 40q-13 26 -16 73q-3 45 -3 109v153q0 22 -1 33q-1 16 -7 20q-11 -5 -26 -53q-16 -54 -29 -120q-10 -54 -23 -148q-10 -74 -10 -139 q0 -22 -24 -27q-21 -4 -52 -4q-9 0 -28 3q-26 4 -39 7q-24 6 -36 11q-15 7 -20 18q-11 27 -15 88q-6 82 -6 190z" />
<glyph unicode="n" horiz-adv-x="624" d="M23 158l26 608q0 27 29 27q10 0 28 -3q10 -2 39 -10q19 -5 35 -15q15 -9 15 -22v-415q2 2 6 16q5 14 17 45t18 46q22 57 45 104q22 46 52 84q27 34 56 34q38 0 56 -17q20 -19 30 -44q11 -27 12 -57q2 -40 2 -60q0 -26 -4 -67t-4 -142q0 -50 11 -96q10 -43 40 -43 q23 0 41 21q20 24 34 51q16 32 26 65q10 34 12 66q1 39 31 39q18 0 24 -13q7 -14 7 -28v-4q-1 -37 -16 -92q-14 -53 -39 -97q-26 -47 -66 -76q-40 -30 -101 -30q-91 0 -117 66q-26 67 -26 198l4 149q-32 -46 -50 -95q-19 -52 -34 -108q-13 -49 -23 -113q-7 -42 -20 -107 q-5 -12 -32 -17q-24 -4 -40 -4q-39 0 -60 4q-24 4 -36 20q-12 15 -18 47q-5 26 -10 85z" />
<glyph unicode="o" horiz-adv-x="669" d="M18 324q0 67 16 149q14 71 38 145q23 70 51 125q30 58 55 86q26 28 60 40q33 12 59 12q31 0 65 -17t64 -41q28 -22 60 -56q22 -23 57 -62q19 -20 30 -73t17 -102q5 -29 6 -61q2 -44 2 -68q29 23 49 53q16 24 30 52q6 11 18 46q7 20 16 34q7 14 28 14q11 0 15 -12 q4 -11 4 -21q-1 -61 -28 -113q-26 -50 -54 -87q-18 -24 -36 -41q-26 -24 -40 -35q-2 -35 -3 -48q-2 -16 -3 -22q-5 -33 -21 -78q-17 -49 -46 -92q-32 -48 -71 -77q-41 -31 -98 -31q-21 0 -42 4q-32 6 -48 11q-32 10 -47 16q-20 8 -39 20q-52 29 -84 67q-31 36 -50 83 q-17 40 -23 90q-7 54 -7 90zM178 207q0 -23 6 -47q6 -23 20 -45q13 -20 38 -34q23 -13 61 -13q47 0 77 17q33 19 51 44q20 28 29 57q9 30 9 56q-26 -18 -68 -25q-46 -8 -71 -8q-53 0 -85 8q-27 7 -65 33zM199 481q0 -84 32 -120q33 -37 113 -37q60 0 97 18q38 18 38 29v39 q0 17 -1 36l-4 68q-3 44 -10 81q-8 43 -21 77q-14 37 -33 58q-21 24 -52 24q-29 0 -59 -25q-29 -24 -51 -63q-23 -39 -36 -88q-13 -48 -13 -97z" />
<glyph unicode="p" horiz-adv-x="659" d="M35 897q0 5 11 10l6 3t6.5 3.5t6.5 3.5t7 3q15 6 27 10t16 4q34 0 54 -23q19 -22 19 -88v-284q12 29 24 75q13 49 33 94q19 42 56 79q34 34 90 34q66 0 108 -44q41 -43 67 -106t36 -133q10 -67 10 -126v-19q0 -87 -15 -163q-14 -73 -46 -133q-28 -53 -78 -90 q-46 -34 -108 -34q-54 0 -95 22q-39 21 -39 75q0 21 16 34t27 13q16 0 24 -9q4 -4 14 -21q5 -8 17 -20q10 -10 29 -10q36 0 55 33q18 31 29 82q11 52 14 107q3 57 3 106v94q0 15 -2 69q-1 28 -11 76q-8 36 -25 61q-18 26 -46 26q-43 0 -75 -63q-30 -61 -52 -158 q-21 -94 -30 -210t-9 -223v-182q1 -16 2.5 -41.5t1.5 -30.5q1 -22 5 -57q2 -18 8 -52q2 -10 7 -31t7 -28t15 -11t13 -19q0 -18 -11 -26q-13 -10 -29 -14q-18 -5 -38 -6q-14 -1 -36 -1h-29q-27 0 -49 7q-25 8 -25 38v1200q0 39 -8 65q-1 2 -2.5 8t-1.5 8q-1 3 -2.5 7t-1.5 6z " />
<glyph unicode="q" horiz-adv-x="673" d="M31 373q0 2 0.5 8t1 17t0.5 21q1 37 12 90q9 47 29 109q18 57 50 106q32 48 80 80q49 32 115 32q36 0 78 -10q38 -9 86 -31v2q1 4 6 19q6 18 9 26t9 22q4 10 7 10q5 0 22 -5q10 -3 32 -14q20 -10 30 -20q12 -12 12 -24q0 -4 -8 -7q-9 -3 -10 -9q-6 -13 -8 -31 q0 -4 -0.5 -8t-1 -7t-0.5 -5v-3q0 -3 9 -11q10 -8 20 -21q13 -16 21 -35q9 -21 9 -51q0 -23 -23 -23l-34 8q-27 0 -33 -38q-6 -37 -6 -85v-706q1 -15 3 -36q1 -7 1.5 -22t0.5 -23q1 -16 3 -46q1 -20 8 -37q4 -10 16 -7q6 2 8.5 -1t2.5 -10q0 -13 -15 -21q-17 -9 -31 -11 q-12 -2 -34 -4q-11 -1 -21 -1l-14 -2q-33 0 -54 8q-20 8 -29 18q-10 11 -11 23q-2 16 -2 22t1 11q2 8 3 18q1 4 2 10t1 10q2 12 3 17v276l8 158q0 14 -2 20q-7 -17 -15 -45t-21 -57q-15 -32 -33 -50q-22 -22 -54 -22q-18 0 -50 17q-30 15 -54 22q-48 12 -76 54 q-26 39 -40 95q-13 52 -16 110q-3 57 -3 100zM172 367q0 -28 1 -57q2 -44 9 -92q7 -47 26 -86q18 -38 48 -38q17 0 22 8q7 12 15 21q6 6 22 50q13 36 31 102q6 23 18.5 70t15.5 58q14 53 31 128q4 18 8 36.5t8 38t6 28.5q9 42 9 50q0 12 -15 27q-9 9 -35 25q-18 11 -40 19 q-20 7 -30 7q-56 0 -86 -53q-31 -55 -46 -122q-14 -66 -16 -133q-2 -86 -2 -87z" />
<glyph unicode="r" horiz-adv-x="518" d="M-4 205q0 9 4 24q15 64 20 119q6 64 7 84v14q0 15 1 25t1 35v53v47q0 28 -4 53l-7 121q0 12 11 23t26 18q21 9 35 13q16 4 33 4q35 0 35 -45v-11l-2 -45v-12q0 -14 6 -17q8 -4 24 -8h7q37 -3 53 -4q31 -1 73 -8q40 -6 65 -19q28 -14 28 -38q0 -11 -4 -24q-3 -10 -11 -30 q-2 -6 -5.5 -15.5t-4.5 -12.5q-4 -11 -4 -17q-37 -139 -37 -294q0 -1 2 -45q1 -30 8 -68q6 -32 19 -62q12 -26 31 -26q31 0 55 38q25 40 43 88q18 49 30 101q4 16 15 76q5 24 13 28q10 5 18 5q28 0 28 -37q0 -10 -1 -22q-1 -17 -3 -25q0 -15 -9 -69q-9 -56 -33 -115 q-26 -64 -63 -107q-41 -47 -102 -47q-65 0 -104 46q-39 47 -60 111q-20 60 -26 135q-6 71 -6 117q0 54 6 108q7 60 8 107q0 17 -16 21q-15 4 -31 4q-25 0 -31 -6q-7 -6 -8 -14l-8 -66q-3 -25 -18 -126q-10 -68 -20 -106q-12 -47 -27 -74q-16 -28 -36 -28h-2q-8 0 -15 4 t-7 21z" />
<glyph unicode="s" horiz-adv-x="552" d="M20 119q0 23 18 32t34 9q22 0 44 -17q7 -5 45 -34q29 -21 52 -35q29 -17 66 -17q17 0 44 12t27 40q0 29 -23 55q-22 25 -60 55q-58 46 -77 60q-39 29 -76 66t-60 79t-23 94q0 72 46 121q48 51 108 78q66 30 128 41q66 12 103 12t69 -14q35 -15 35 -56q0 -8 -5 -35 q-5 -26 -16 -47q-10 -19 -30 -39q-18 -18 -47 -18q-9 0 -16 7q-5 5 -19 17q-12 11 -21 16q-11 7 -26 7q-72 0 -100 -42q-29 -43 -29 -89q0 -41 48 -86q46 -43 107 -90q52 -40 106 -89q48 -44 48 -85q0 -49 -33 -76q-34 -27 -74 -39q-42 -12 -84 -15t-61 -3q-28 0 -70 6 q-44 6 -82 19q-40 13 -68 38t-28 62z" />
<glyph unicode="t" horiz-adv-x="475" d="M-100 883q0 25 53 30q47 4 158 4q8 0 11 25q2 17 4 63q1 13 1.5 39.5t0.5 40.5q2 43 3 81q1 33 7 63q4 24 14 24q12 0 36 -4q39 -6 56 -11q34 -9 50 -17q21 -11 21 -23l-22 -266q0 -14 21 -18t56 -6q23 -1 71 -1q37 0 72 -6t55 -19q22 -14 22 -40q0 -6 -4 -14 q-4 -9 -11 -9q-3 0 -11 6t-38 6q-2 0 -7.5 -0.5t-16.5 -1t-21 -0.5q-37 -1 -78 -6q-34 -4 -74 -9q-33 -4 -38 -13q-2 -6 -5 -48q-3 -43 -6 -116q-5 -131 -6 -165q-2 -124 -2 -196q0 -42 4 -75q3 -29 13 -67q7 -30 21 -48t32 -18q27 0 49 22q23 23 41 62q18 40 33 88 q11 35 24 100q5 27 15 44q7 13 24 13q14 0 26 -9q11 -8 11 -42q0 -19 -2 -27q-7 -44 -23 -101q-19 -68 -47 -127q-30 -63 -73 -109q-45 -48 -101 -48q-55 0 -96 32q-42 32 -68 88q-27 57 -42 133q-15 77 -15 165v19q2 105 6 213q5 111 9 200q0 17 -33 23q-31 6 -74 12 q-39 6 -74 20q-32 13 -32 44z" />
<glyph unicode="u" d="M53 264v494l5 20q2 6 18 6q13 0 36 -4q34 -6 52 -11q29 -8 48 -19q21 -12 21 -29v-363q0 -52 1 -82q1 -33 7 -82q4 -37 17 -64q12 -26 35 -26q59 0 92 120q32 118 37 378q0 15 -8 33t-8 39q4 16 33 20q27 4 55 4q62 0 90 -12t28 -74q-7 -56 -7 -58q-2 -13 -4 -39 q-1 -6 -1.5 -18.5t-0.5 -18.5q-1 -13 -1 -56q0 -53 4 -98q5 -58 14 -95q10 -41 26 -70q16 -28 40 -28q23 0 35 13q10 12 22 30q11 16 21 30q10 13 28 13t25 -11q8 -13 8 -22q0 -39 -19 -65q-18 -26 -47 -43q-26 -16 -57 -24q-27 -7 -47 -7q-33 0 -59 8q-23 7 -49 25l-19 16 q-40 40 -67 125q-8 -15 -16 -53q-9 -43 -27 -85q-18 -44 -48 -80t-75 -36q-131 0 -180 76q-51 78 -58 223z" />
<glyph unicode="v" horiz-adv-x="647" d="M37 430q0 171 35 354q12 1 41 8q20 5 41 5h18q10 0 30 -2q11 -1 27 -7q13 -5 13 -10q0 -3 -2 -27q-1 -7 -3.5 -20.5t-2.5 -16.5q-4 -26 -6 -38l-5 -31q-9 -65 -16 -145q-6 -73 -6 -148q0 -35 4 -79q5 -53 16 -99q12 -49 36 -85t62 -36q37 0 60 38t35 88q11 45 16 101 q4 44 4 76q0 11 -13 23q-11 10 -31 33q-19 22 -33 49t-19 69v43q0 24 1 39q2 30 4 46q2 18 8 45q4 18 14 34q0 2 7 6l15 9q3 2 16 7q8 3 11 3q1 0 17 -2q4 0 12 -1.5t13 -2.5q7 -1 24 -5q5 -1 10 -3l6 -3q11 -6 12 -19q2 -14 6 -21q10 -32 15 -61q6 -36 7 -55 q1 -9 1.5 -28.5t0.5 -29.5q2 -36 3 -66q0 -6 19 -13q21 -8 26 -8q28 0 47 17q17 16 24 16q11 0 14 -13q3 -14 3 -20q0 -32 -11 -47q-12 -17 -30 -24q-23 -10 -42 -12q-33 -4 -46 -5v-10q0 -36 -13 -108q-13 -70 -35 -127q-24 -62 -60 -107t-85 -49q-14 -2 -20 -2h-21 q-98 0 -153 46t-82 117t-33 154q-6 84 -6 160z" />
<glyph unicode="w" horiz-adv-x="1026" d="M25 295v100q0 31 4 86t9 128q2 26 6 72.5t4 49.5q1 16 2.5 31t3 26t1.5 13q4 10 20 13q15 3 23 3q11 0 35 -3q19 -2 49 -8q20 -4 44 -13q20 -8 20 -19q2 -5 -7 -12q-9 -8 -14 -29q-3 -15 -10 -76q-6 -53 -12 -115q-5 -49 -10 -136q-5 -80 -5 -138q0 -91 12 -154t44 -63 q16 0 34 36q13 26 33 84q14 41 28 95q3 10 15 68q1 6 6 35.5t9 53.5q10 60 10 140v43q0 18 -1 23t-1 12v12q0 23 12 27q11 4 31 4q23 0 46 -4q31 -5 48 -10q5 -1 40 -13q18 -6 19 -10v-164q0 -5 2 -89q1 -42 11 -126q8 -63 24 -111t43 -48q19 0 34 27q15 28 29 70 q12 38 22 92q1 8 7.5 42t9.5 51q6 37 10 73q3 30 3 32q0 10 -12 18q-13 8 -28 23q-18 18 -28 38q-12 24 -12 68q0 31 7 65q8 39 19 66q14 35 26 52q16 22 34 22q24 0 47 -6q20 -5 40 -25q18 -18 27 -50q9 -31 9 -81v-84q45 0 94 22q47 21 90 70q9 0 13 -10q6 -15 6 -35 q0 -25 -19 -53q-18 -27 -48 -48q-32 -22 -66 -36q-32 -13 -76 -18q0 -7 -1 -16.5t-3 -24.5t-3 -26q-2 -23 -17 -98q-17 -75 -28 -111q-18 -58 -43 -103q-26 -47 -60 -77t-79 -30q-33 0 -68 20q-32 18 -64 50q-28 28 -52 68q-23 39 -35 77q-12 -41 -22 -75q-17 -54 -38 -95 q-27 -52 -57 -82q-34 -34 -81 -34q-39 0 -87 13q-51 14 -75 42q-14 17 -25 61q-10 40 -16 91q-6 47 -9 92q-3 44 -3 59z" />
<glyph unicode="x" horiz-adv-x="804" d="M-72 479q0 46 35 113q34 65 87 127q50 59 111 104q58 43 105 43q44 0 71 -31q29 -34 46 -75q20 -49 28 -88q11 -55 15 -74l6.5 6.5t12 13t13.5 14.5q23 25 55 61q24 27 69 76q50 54 70 74q34 34 61 55q28 22 39 22q29 0 66 -23q36 -22 36 -61q0 -13 -10 -13q-6 0 -11 5 q-6 6 -14 6q-12 0 -31 -11q-21 -12 -53 -47q-43 -49 -70 -78q-62 -68 -92 -103q-25 -29 -77 -93q-33 -41 -33 -47t7 -31q11 -41 20 -65q13 -36 32 -82q17 -41 41 -81t47 -63q24 -24 52 -24q42 0 68 22q28 24 47 58q18 34 31 78q10 34 17 81q5 18 11 31q6 12 16 12 q14 0 22 -8q9 -9 12 -21q2 -9 4 -26q1 -10 1 -27v-6q-1 -19 -14 -71q-12 -50 -42 -102q-29 -51 -82 -92q-53 -40 -132 -42h-5q-106 0 -172 69t-118 224q-7 -2 -37 -51q-43 -70 -66 -113q-35 -63 -63 -126q-29 -64 -29 -91v-4q0 -9 10 -13q-1 -11 -15 -15q-15 -5 -26 -5l-2 1 q-3 0 -7.5 0.5t-9.5 0.5q-16 1 -36 8q-17 5 -34 16q-15 9 -15 23l278 506q0 15 -7 57q-9 56 -20 95q-14 50 -34 88q-21 39 -47 39q-33 0 -54 -23q-20 -22 -36 -53q-14 -27 -22 -61l-11 -44q-7 -17 -40 -42q-30 -23 -52 -23q-23 0 -23 20z" />
<glyph unicode="y" horiz-adv-x="663" d="M27 360q0 51 2 167q1 76 10 161q8 74 24 122t43 48q12 0 33 -4q27 -5 51 -13t48 -25q20 -14 20 -38q0 -6 -5 -9q-6 -4 -9 -7q-12 -8 -23 -32q-9 -21 -17 -67q-6 -34 -11 -115q-5 -78 -5 -173q0 -153 12 -219t46 -66q36 0 66 55q32 59 55 146q23 88 45 205q19 102 37 231 q12 0 46 -2q22 -1 49 -8q20 -5 40 -16q16 -9 16 -25q0 -10 -12 -14v-607q22 -1 43 -9q20 -7 20 -34q0 -16 -8 -22q-8 -7 -18 -8q-3 0 -10.5 -1.5t-11.5 -2.5q-11 -1 -15 -7v-325q0 -54 -1 -85q-1 -46 -9 -91q-7 -43 -26 -84q-19 -42 -50 -64q-1 -1 -14 -9q-4 -2 -7.5 -4.5 t-8.5 -6t-8 -5.5q-4 -2 -13 -8.5t-13 -9.5q-2 -2 -5 -3.5t-5 -3t-3.5 -2.5t-2.5 -1q-26 -17 -46 -43q-19 -25 -44 -25q-13 0 -16 1q-2 0 -5.5 1t-4.5 2q-1 0 -6 2t-8 3q-15 5 -26 8q-92 18 -128 54t-36 116q0 78 25 170q23 84 68 170q45 85 102 152q60 70 129 120v262 q-16 -59 -25 -90q-17 -57 -35 -96q-20 -44 -51 -76q-29 -31 -67 -31q-34 0 -76 25q-36 21 -74 49q-24 21 -39 65q-12 36 -21 93q-8 50 -9 94q-2 60 -2 65zM215 -571q0 -18 1 -34q1 -23 9 -46q6 -19 24 -40q15 -18 46 -18q45 0 71 49q24 45 38 112q14 64 18 129q4 57 4 95v9 v227q-49 -39 -88 -100q-42 -66 -67 -130q-27 -68 -42 -137q-14 -63 -14 -116z" />
<glyph unicode="z" horiz-adv-x="696" d="M10 203q77 55 156 128q73 67 134 133q61 65 94 107q36 45 36 52v2q0 9 -7 17q-7 9 -48 9h-17l-270 -12q-21 16 -34 37q-14 22 -21 41q-1 3 -6 16.5t-7 19.5q-4 13 -4 19l2 16h250l244 7q29 0 47 -26t30 -61q11 -33 16 -71t5 -53v-12q0 -7 -2 -9q-72 -52 -129 -110 q-54 -55 -102 -120q-45 -61 -68 -105q-24 -46 -24 -64q0 -9 17 -13q29 -7 45 -9q19 -2 63 -4q23 -1 69 -1h154q22 0 33 -32q10 -30 10 -60v-31l-8 -8q-6 -6 -19 -6h-481q-30 0 -59 23q-32 25 -51 54q-20 30 -34 66t-14 60z" />
<glyph unicode="{" horiz-adv-x="485" d="M53 676q0 10 10 14q2 1 26 8q19 6 34 12q20 8 35 25q26 26 26 66q0 38 -14 77q-5 14 -15.5 44t-15.5 45q-7 19 -30 98q-15 51 -15 102q0 61 23 112q23 49 63 87q38 35 101 57q60 21 133 21q35 0 75 -8q37 -7 68 -29q17 -16 20 -24q3 -9 3 -19q0 -16 -23 -39 q-22 -22 -57 -22q-24 0 -41 11q-16 11 -41 19q-55 0 -85 -18q-28 -17 -44 -47q-15 -28 -18 -61q-3 -31 -3 -60q0 -28 8 -65q3 -14 10 -39t8 -29q12 -46 17 -69q8 -37 8 -68q0 -22 -2 -62q-2 -30 -17 -58q-16 -28 -49 -50q-35 -23 -97 -39q50 -6 86 -28q34 -21 56 -52t31 -69 q9 -37 9 -81q0 -36 -6 -77q-1 -4 -15 -76q-2 -9 -7 -33t-7 -36q-6 -32 -6 -54q0 -71 29 -111q28 -39 63 -57q21 -10 42 -18t48 -9v-2q0 -9 -8 -22q-7 -12 -24 -25q-15 -12 -35 -22q-23 -12 -45 -13h-31q-79 0 -125 35q-45 35 -68 80q-22 45 -27 89q-5 48 -5 62q5 69 17 109 q14 45 27 81q4 12 12 34.5t12 33.5q11 29 11 68q0 53 -23 93q-25 43 -95 71q-11 5 -14 15q-3 12 -3 22z" />
<glyph unicode="|" horiz-adv-x="636" d="M225 352q0 20 2 116q2 74 6 157q6 109 8 174q4 111 7 168q5 79 6 137q2 80 2 82q0 52 -6 93q-6 39 -23 58v2q0 3 13 18q4 4 8 8.5t10 10t9 8.5q17 17 30 26q15 12 20 13q24 19 64 19q52 0 63 -32q11 -33 11 -83q0 -105 -8 -259q-12 -230 -16 -299q-12 -211 -17 -307 q-11 -221 -13 -284q0 -30 7 -84q6 -47 6 -67q3 -5 7.5 -14l6.5 -13q6 -12 6 -25q0 -25 -34 -41q-33 -16 -81 -16q-18 0 -33 3q-16 3 -26 13q-10 7 -16 46q-7 44 -11 94q-4 57 -6 130q-2 96 -2 148z" />
<glyph unicode="}" horiz-adv-x="569" d="M10 -37q0 16 23 39t57 23q23 0 41 -12q16 -11 41 -19q55 0 85 18q28 17 44 47q14 26 17 62q4 44 4 59q0 24 -9 65q-4 17 -17 68q-11 41 -17 70q-9 41 -9 68q0 21 2 61q1 28 18 58q16 29 49 52q30 21 97 37q-101 16 -142 80q-40 62 -40 150q0 37 6 77q3 23 14 76 q2 11 7.5 34.5t7.5 35.5q6 33 6 53q0 71 -28 111q-27 39 -62 57q-22 11 -43 18q-23 8 -49 9q0 19 29 48q30 30 83 36h31q79 0 125 -35q45 -35 68 -80q22 -45 27 -89q5 -48 5 -62q-2 -64 -15 -109q-15 -49 -28 -81q-6 -14 -14.5 -38t-10.5 -29q-12 -31 -12 -69q0 -51 24 -93 q25 -43 95 -71q11 -5 14 -15q3 -12 3 -22q0 -9 -11 -14q-4 -2 -25 -8q-19 -6 -34 -12q-20 -8 -35 -25q-24 -22 -24 -66q0 -33 13 -75q17 -55 31 -91q13 -33 30 -98q14 -53 14 -102q0 -61 -23 -112q-23 -50 -63 -87q-38 -35 -101 -57q-60 -21 -133 -21q-36 0 -76 8 q-36 7 -67 29q-17 16 -20 24q-3 9 -3 19z" />
<glyph unicode="~" horiz-adv-x="929" d="M45 514q0 17 5 40q5 22 20 40q29 40 66 58q36 18 77 18q52 0 110 -23q48 -19 110 -50q50 -25 105 -50q51 -23 89 -23q31 0 56 20q24 20 36 66q11 35 26 49q17 15 39 15q29 0 52 -23q22 -22 22 -57q0 -10 -4 -25q-10 -82 -70 -125q-59 -43 -141 -43q-81 0 -164 43 q-16 9 -41 26q-39 26 -47 31q-22 14 -51 25q-28 11 -55 11q-46 0 -86 -31q-39 -30 -39 -84q-16 -16 -39 -16q-31 0 -53 31q-23 32 -23 77z" />
<glyph unicode="&#xa1;" horiz-adv-x="563" d="M104 739q12 33 65 60q51 26 132 26q26 0 55 -8q23 -6 47 -20q20 -11 34 -27t14 -27q0 -1 -8 -6q-7 -4 -7 -10q0 -7 13 -12q-33 -50 -85 -72q-51 -22 -88 -22q-13 0 -34 6t-42 15q-23 10 -41 21q-23 14 -30 21q-5 5 -7 13q-1 5 -1 15q0 6 -3 14q-3 6 -14 13zM158 -416 q0 34 9 68t21 87q14 61 22 132q9 79 9 203q0 18 -1 36t-1 59t-1 59t-1 38l-18 248q0 27 10 34t24 7q5 0 35 -5q27 -4 57 -15t52 -28q22 -18 22 -40q0 -87 -2 -209t-2 -166q0 -114 1 -158q1 -62 3 -113q1 -48 6 -84q4 -32 11 -67q5 -29 13 -59q9 -33 9 -55q0 -32 -10 -46 q-11 -16 -27 -20q-5 4 -16 10q-12 7 -45 11l-79 7q-33 3 -56 9q-22 6 -34 19q-11 12 -11 38z" />
<glyph unicode="&#xa2;" horiz-adv-x="946" d="M45 672v16q0 69 25 141q24 70 75 128q51 59 130 99q78 40 186 52l-6 104q-4 26 -14 45q-9 19 -11 37q0 24 19 34q18 9 57 9q70 0 92 -11q26 -13 27 -50q-1 -17 -3.5 -44.5t-3.5 -36.5q-2 -26 -3 -38q-2 -13 -3 -20q-3 -14 -4 -31q43 -5 74 -15q38 -12 67 -31 q28 -18 47 -45q17 -24 17 -59q0 -33 -9 -57t-38 -29q-8 0 -16 5q-2 1 -24 10q-15 6 -42 12q-23 5 -72 10q0 -44 -1 -71q-1 -14 -2 -41.5t-1 -40.5q-2 -40 -3 -78q-1 -25 -1 -57v-226q59 16 87 35q30 21 43 44q14 24 18 46q1 4 3.5 19t4.5 22q5 20 15 30q11 11 38 11 q39 0 73 -27t34 -69t-26 -80q-24 -35 -70 -67q-43 -30 -101 -48q-55 -17 -121 -22v-213q0 -28 7 -36t7 -18q0 -15 -20 -19q-23 -5 -41 -5h-49q-66 0 -74 47q-2 6 -2 12v15q0 9 3 33q6 50 7 55q3 21 7 65q4 46 4 66q-77 11 -150 42q-70 30 -130 82q-57 49 -91 115 q-35 67 -35 144zM195 653q0 -21 5 -54q4 -29 15 -52q16 -36 41 -62q28 -29 60 -49q34 -21 71 -34q38 -14 74 -15q1 52 3 119q1 21 1.5 66t0.5 67q1 46 1 140v139l-29 -3q-60 -5 -102 -27q-47 -25 -77 -61q-32 -38 -48 -82t-16 -92z" />
<glyph unicode="&#xa3;" horiz-adv-x="1079" d="M0 29q0 56 37 87q38 32 85 48q44 15 95 20q41 4 68 4q45 0 66 -4t32 -4q6 0 8 14q0 3 1.5 13.5l2.5 17.5q2 24 2 36v26q0 18 -1 28t-1 31h-182q-51 0 -90 15t-39 57v2q0 21 10 37t49 16h7q54 -2 79 -2h80h80q-3 19 -5 57q0 10 -1 29t-2 29h-168q-51 0 -90 15t-39 56v2 q0 21 10 37q11 17 49 17h7q54 -2 79 -2h80h68q5 148 31 258q28 116 69 190q45 80 98 119q56 41 117 41h43q37 0 60 -9q19 -8 43 -23q19 -12 44 -31q21 -16 60 -33q61 -27 82 -77q20 -47 20 -130q0 -39 -1 -58q-2 -31 -11 -52q-10 -23 -33 -40q-21 -15 -65 -20q-57 0 -72 35 q-14 32 -14 82q0 28 4 44t4 56q0 50 -29 87q-29 36 -75 36q-78 0 -130 -118q-53 -119 -57 -357l383 2q31 -1 44 -28q12 -25 12 -48q0 -20 -12 -35q-11 -14 -48 -14h-375q2 -37 3 -62q1 -19 1 -55l375 2q31 -1 44 -28q12 -25 12 -48q0 -19 -12 -34t-48 -15h-369 q0 -83 -4 -120q-5 -48 -14 -81q94 -29 158 -62q69 -36 126 -69q53 -31 100 -55q43 -22 81 -22q19 2 44 24t36 41q22 -10 22 -63q0 -19 -12 -35q-13 -17 -30 -29q-19 -13 -33 -19q-18 -8 -27 -8q-96 0 -183 26q-90 27 -152 55q-64 29 -113 56q-46 25 -68 25q-4 0 -22 -25 q-18 -26 -52 -48q-47 -29 -97 -38q-55 -10 -110 -10q-25 0 -67 8q-43 8 -74 23q-36 17 -59 43q-25 28 -25 64zM78 41q0 -21 20 -35q19 -13 46 -23q30 -11 48 -13q22 -3 27 -3q21 0 41 4q22 4 43 15q23 11 37 27q18 20 25 42q-31 12 -78 26q-45 13 -105 13h-20q-15 0 -35 -5 t-34 -15q-15 -10 -15 -33z" />
<glyph unicode="&#xa5;" horiz-adv-x="1230" d="M96 446v3q0 19 11 36t51 17h6q58 -2 92 -2h90h60q2 10 4.5 29.5t3.5 27.5q1 5 3.5 25.5t4.5 29.5h-184q-52 0 -95 16q-41 15 -41 56v2q0 20 11 37q10 16 51 16h6q58 -2 92 -2h90h84q8 80 11 144q4 96 4 147q0 22 -4 74q-3 41 -13 76q-7 20 -8 21q-4 8 -4 18q0 28 33 28 q19 0 30 -4q13 -5 23 -12q6 -5 13 -7q3 -1 9 -1h9q2 0 15 -8q11 -7 17 -17q50 -77 60 -141q10 -63 10 -131q0 -40 -3 -87q-4 -60 -5 -100h248q7 57 12 129q4 64 4 142q0 17 -2 47t-2 41q0 12 20 16q19 4 37 4q14 0 35 -4q24 -4 51 -12q14 -4 47 -18q21 -9 21 -19 q0 -38 -10 -74q-2 -13 -5 -38.5t-6 -47.5t-5 -42q-3 -24 -11 -122h143q34 0 46 -26q12 -27 12 -49q0 -20 -12 -35t-50 -15h-147q-2 -36 -2 -39v-38v-35h147q34 -1 46 -28q12 -26 12 -48q0 -20 -12 -35q-11 -14 -50 -14h-137q2 -24 4.5 -70.5t3.5 -64.5q4 -64 4 -144 q0 -83 -8 -171q-7 -78 -31 -148q-23 -67 -61 -108q-39 -42 -103 -48q-40 -4 -91 -6q-66 -2 -91 -2q-38 0 -82 10q-49 11 -89 34q-42 24 -70 58q-29 35 -29 84q0 11 7 28t22 17q41 0 61 -26q15 -20 41 -60q20 -32 52 -59t95 -27q60 0 95 30q34 30 54 80q19 48 25 115 q7 75 7 132q0 65 -3 128q-4 84 -4 115q0 29 1 43q1 8 2.5 20.5t1.5 16.5q-20 -70 -35 -129q-17 -70 -47 -135q-28 -61 -71 -106q-42 -43 -103 -43q-59 0 -102 25q-45 26 -73 69t-43 97q-14 50 -14 110q0 43 1 65t3 68h-162q-53 0 -94 15t-41 56zM578 223q0 -8 2 -50 q2 -31 9 -63q9 -37 21 -55q15 -22 41 -22q20 0 41 28q19 26 40 77q21 52 38 111q24 84 35 128l-221 -2q-6 -77 -6 -152zM598 500h236q6 30 13 58q3 13 7.5 31t5.5 23h-244z" />
<glyph unicode="&#xa8;" horiz-adv-x="704" d="M10 1020q0 59 44 89t87 30q10 0 32 -10q19 -9 36 -24t29 -35t12 -38q0 -11 -17 -25q-16 -13 -37 -25q-19 -11 -42 -19q-25 -9 -29 -9q-11 0 -32 8q-26 10 -38 17q-21 13 -31 21q-14 12 -14 20zM381 1036q0 26 14 43q17 20 35 32q22 14 43 21t39 7q11 0 31 -10 q19 -10 35 -24q15 -13 28 -35q12 -20 12 -38q0 -12 -16 -25q-13 -11 -38 -25q-19 -11 -42 -19q-25 -9 -28 -9q-11 0 -34 7q-21 7 -37 17q-20 13 -30 26q-12 15 -12 32z" />
<glyph unicode="&#xa9;" horiz-adv-x="1669" d="M82 610q0 159 59 293q62 141 161 240q102 102 240 162q136 59 294 59t292 -59q139 -61 240 -162t162 -240q59 -134 59 -293q0 -158 -59 -294t-162 -239q-99 -99 -240 -161q-134 -59 -292 -59t-294 59q-140 61 -240 161q-101 101 -161 239q-59 136 -59 294zM166 580 q0 -135 53 -255q51 -115 145 -203q91 -85 214 -133t260 -48q140 0 261 57t212 154q89 95 142 223q52 126 52 264q0 140 -52 256q-53 119 -142 203q-91 86 -212 134t-261 48q-137 0 -260 -57q-120 -56 -214 -154t-145 -223q-53 -129 -53 -266zM399 567q0 123 37 216 q39 98 103 162q69 69 156 103q89 35 200 35q40 0 97 -10q66 -12 104 -26q4 -4 10 -26q6 -21 6 -44q0 -12 -3 -32q-3 -19 -12 -39q-9 -19 -23 -33q-13 -13 -36 -13h-24q-23 0 -39 10q-19 17 -23 31q-7 23 -8 26q-4 11 -15 18t-46 7q-74 0 -134 -27t-105 -78q-45 -52 -69 -121 q-24 -70 -24 -157q0 -61 16 -116q17 -58 51 -104t89 -74q54 -27 124 -27q68 0 109 20q44 21 69 54t37 74q11 40 13 85q22 48 43 58t45 10q28 0 49 -21t21 -61q0 -68 -32 -132q-31 -62 -84 -109q-49 -43 -119 -72q-66 -27 -138 -27q-92 0 -176 32q-82 31 -142 90 q-58 56 -93 139q-34 80 -34 179zM1126 1032l4 -2z" />
<glyph unicode="&#xab;" horiz-adv-x="1243" d="M96 418q0 35 33 62q27 22 64 48q32 21 68 58q9 10 20 20.5t24.5 24l20.5 20.5v-2q66 69 138 129q79 65 144 135v2q14 14 27 18q17 5 26 5q30 0 50 -20t20 -52q0 -10 -3 -17t-3 -15q-55 -62 -103 -103q-71 -61 -108 -96q-22 -20 -54 -55q-36 -40 -58 -62q-40 -40 -60 -58 q-27 -24 -66 -48q19 -22 30 -29l10.5 -7t11.5 -7q40 -23 90 -72q54 -54 90 -94q23 -25 50 -49q10 -9 56 -55q20 -20 46 -52q20 -25 20 -43q0 -29 -20 -51q-20 -21 -48 -21q-8 0 -20 5q-9 4 -21 4q-41 35 -71 66l-66 68q-22 23 -69 70q-39 39 -86 76q-88 74 -131 115 q-52 49 -52 82zM567 406q0 35 33 62q27 22 64 48q35 22 68 57q21 22 65 66v-2q66 69 138 129q79 65 144 135v2q14 14 27 18q17 5 27 5q28 0 49 -21q20 -20 20 -51q0 -9 -3 -17q-3 -7 -3 -16q-51 -57 -103 -102q-71 -61 -108 -96q-18 -16 -54 -56q-27 -30 -58 -61 q-50 -50 -60 -59q-29 -26 -65 -48q18 -21 29 -28q4 -2 11 -7.5t11 -7.5q43 -24 90 -71q45 -45 90 -95q23 -25 50 -49q20 -18 56 -54q25 -25 47 -52q19 -23 19 -43q0 -31 -19 -51q-20 -21 -49 -21q-11 0 -20 4t-21 4q-36 31 -71 67l-66 67q-44 46 -69 71q-39 39 -86 76 q-78 66 -130 115q-53 50 -53 82z" />
<glyph unicode="&#xad;" horiz-adv-x="741" d="M123 496q0 28 12 46q11 17 47 17h6q13 -1 25 -4q4 -1 14 -3q5 -1 26 -1h56q93 0 150 3q60 3 108 13l8 -10q15 -21 18 -26q11 -18 17 -33q8 -19 8 -37q0 -31 -16 -57q-16 -27 -72 -27h-12q-30 0 -88 5q-60 5 -149 5h-33q-46 0 -86 31q-39 30 -39 78z" />
<glyph unicode="&#xae;" horiz-adv-x="1673" d="M82 610q0 159 59 293q62 141 161 240q102 102 240 162q136 59 294 59t292 -59q139 -61 240 -162t162 -240q59 -134 59 -293q0 -158 -59 -294t-162 -239q-99 -99 -240 -161q-134 -59 -292 -59t-294 59q-140 61 -240 161q-101 101 -161 239q-59 136 -59 294zM166 580 q0 -135 53 -255q51 -115 145 -203q91 -85 214 -133t260 -48q140 0 261 57t212 154q89 95 142 223q52 126 52 264q0 140 -52 256q-53 119 -142 203q-91 86 -212 134t-261 48q-137 0 -260 -57q-120 -56 -214 -154t-145 -223q-53 -129 -53 -266zM459 932v4q0 9 6 30t39 42 q16 10 41 21q19 8 26 46q7 32 28 48t42 16q22 0 42 -17q19 -16 24 -45q20 2 45 2h45q117 0 191 -16q77 -17 124 -44t67 -64q19 -35 19 -74q0 -61 -33 -108q-31 -44 -86 -80q-47 -31 -121 -54q-70 -22 -139 -29q42 -28 82 -68q32 -32 82 -87l16 -17q11 -13 31 -33l26 -26 q26 -27 51 -45q26 -18 55 -30q25 -10 73 -15q18 -18 18 -58q0 -27 -22 -50t-57 -23h-21q-64 6 -117 47q-52 41 -102 99q-48 57 -100 124q-49 63 -113 121v-348q0 -37 -23 -57q-22 -19 -47 -19t-45 16q-19 15 -24 52v378q-16 4 -31 15q-14 10 -14 45q0 34 45 55v47 q0 18 -2 70q-1 14 -3 37.5t-2 31.5q-9 0 -19 -1t-19 -1q-27 0 -53 14q-25 13 -25 48zM713 940q2 -60 3 -107q2 -57 3 -108v-12q53 0 105 11q61 13 105 32q51 22 80 47q31 27 31 59q0 21 -16 37q-18 18 -43 29q-28 12 -60 18q-35 6 -69 6q-27 0 -73 -2q-27 -1 -66 -10z" />
<glyph unicode="&#xaf;" horiz-adv-x="643" d="M31 1108v2q0 21 10 37t49 16h6q54 -2 80 -2h80l244 2q32 -1 44 -27q11 -23 11 -49q0 -20 -11 -34q-12 -15 -48 -15h-13h-58q-53 0 -84 -1t-93 -1h-88q-51 0 -90 15t-39 57z" />
<glyph unicode="&#xb0;" horiz-adv-x="557" d="M53 1167q0 32 13 69q12 34 36 58q0 18 18 32q21 16 44 22q30 8 55 11q29 3 51 3q30 0 64 -6q35 -6 65 -24q32 -19 52 -49t20 -85q0 -87 -60 -150t-165 -63q-43 0 -88 16q-48 17 -68 43q-15 22 -27 54q-10 27 -10 69zM127 1135q0 -28 11 -46q13 -21 28 -32q20 -14 36 -18 q22 -5 36 -5q32 0 73 23q42 23 58 55q22 44 22 90q0 72 -69 84v-10q0 -39 -39 -39l-52 12q-8 0 -26 -6t-29 -6q0 -7 -18 -25q-15 -15 -19 -20q-12 -27 -12 -57z" />
<glyph unicode="&#xb4;" horiz-adv-x="641" d="M109 920v24q0 18 4 26q4 9 22 25q60 56 92 82q18 15 94 75q43 34 79 55q38 22 55 22q14 0 20 -12t6 -70q0 -33 -7 -46q-8 -15 -20 -20q-10 -5 -32 -10q-24 -6 -43 -18l-170 -119q-12 -18 -31 -39q-21 -23 -33 -23q-5 0 -10 5q-6 12 -13 19l-8 8q-1 1 -2 3l-2 2 q-1 1 -1 11z" />
<glyph unicode="&#xb6;" horiz-adv-x="1097" d="M12 774q0 35 15 92q16 61 49 121q36 65 97 122q63 59 157 93q9 4 21 13q22 17 27 20q15 11 39 18q29 9 56 9q41 -4 90 -21q63 -21 90 -31q0 61 -7 123t-7 103q0 37 15 46t44 9q13 0 30 -10q18 -10 34 -44t30 -98q12 -57 17 -172q9 -1 25 -7q8 -3 24 -11q114 -69 155 -153 q40 -81 40 -160q0 -14 -1 -22q0 -4 -0.5 -7.5t-1.5 -7.5t-1 -6q-1 -22 -13 -74q-11 -48 -36 -97q-28 -54 -73 -95q-49 -44 -126 -68v-48q0 -11 1 -14t1 -12q0 -20 1 -45t1 -112v-212q1 -25 7 -58q5 -28 5 -34q0 -26 -51 -26q-38 0 -70 5q-28 4 -53 23q0 81 1 120t1 119 q0 83 1 127t1 144h-37q-21 0 -45 3q-42 5 -53 7v-552q4 -15 12 -27q8 -13 8 -19q0 -16 -29 -19q-30 -3 -52 -3q-14 0 -30 4q-19 5 -33 13q-15 9 -27 24q-11 14 -11 37q0 42 1 61t3 61q2 35 3 71q1 27 1 96q0 66 -1 105t-1 169l-26 4q-97 7 -160 41q-61 33 -96 77 q-34 43 -48 93q-14 51 -14 92zM203 784q0 -66 35 -127q34 -59 120 -94q2 72 3 107q1 36 1 106q0 85 -1 128q-2 86 -3 130q-33 -8 -60 -18q-28 -11 -49 -35q-22 -25 -34 -71t-12 -126zM512 532h53q16 0 44 2t40 3q0 72 1 110t1 126q0 98 1 156t1 199q0 2 -2 2h-18 q-46 0 -73 -8t-48 -22v-568zM803 586q48 33 83 93q33 57 38 144v25q0 53 -31 118q-28 59 -84 107q0 -82 -2 -244q0 -40 -1.5 -121t-2.5 -122z" />
<glyph unicode="&#xb7;" horiz-adv-x="526" d="M96 686v10q0 23 22 45q19 19 51 35q29 14 61 22q29 7 53 7q20 0 44 -10q28 -12 50 -28q26 -20 42 -38q17 -20 17 -41q0 -14 -23 -28q-19 -12 -55 -28q-35 -16 -59 -22q-30 -8 -41 -8q-44 0 -81 20q-28 15 -75 35q7 7 7 17q0 7 -13 12z" />
<glyph unicode="&#xb8;" horiz-adv-x="890" d="M270 -358q0 14 12 26q13 13 31 13q15 0 26 -9q6 -5 18 -17q6 -6 22 -16q13 -8 35 -8q9 0 37 2q17 1 38 10t31 21q12 15 12 41q0 29 -31 36t-69 12q-33 4 -68 19q-32 14 -32 56q0 24 11 41q13 20 27 31t31 19q15 7 25 7l27 -16q0 -1 -1 -3t-2 -4.5t-1 -4.5q-3 -15 -3 -19 q0 -9 8 -20t29 -15q62 -12 97 -47q34 -34 34 -82q0 -91 -61 -131q-62 -41 -141 -41q-59 0 -101 25q-41 24 -41 74z" />
<glyph unicode="&#xbb;" horiz-adv-x="1130" d="M96 854q0 30 21 51t49 21q9 0 26 -5q13 -4 27 -18v-2q65 -70 144 -135q77 -64 139 -129v2q22 -22 64 -66q32 -33 69 -57q30 -21 63 -48t33 -62q0 -33 -52 -82t-130 -115q-47 -37 -86 -76q-48 -48 -70 -71q-62 -65 -64 -67q-27 -29 -73 -67q-12 0 -21 -4t-20 -4 q-29 0 -48 21q-20 22 -20 51q0 18 20 43q26 32 46 52q36 36 56 54q27 24 50 49q36 40 91 95q47 47 90 71q4 2 10.5 7.5t10.5 7.5q13 8 30 28q-65 43 -125 109q-54 59 -113 115q-47 45 -106 95q-57 48 -105 103q0 9 -3 16q-3 8 -3 17zM567 866q0 31 21 52q20 20 49 20 q10 0 27 -5q11 -3 26 -18v-2q62 -66 145 -135q72 -60 138 -129v2q43 -43 64 -65q34 -36 69 -58q30 -21 63 -48t33 -62q0 -33 -52 -82t-130 -115q-47 -37 -86 -76l-70 -70q-42 -44 -64 -68q-23 -25 -73 -66q-11 0 -20 -4q-12 -5 -21 -5q-28 0 -48 21q-20 22 -20 51 q0 18 20 43q26 32 46 52q46 46 56 55q33 30 51 49q36 40 90 94q49 49 90 72q4 2 10.5 7t10.5 7q11 7 30 29q-67 44 -125 108q-54 59 -113 115q-47 45 -106 95q-54 45 -105 104q0 8 -3 15t-3 17z" />
<glyph unicode="&#xbf;" horiz-adv-x="1075" d="M76 -186q0 70 22 120q23 53 59 93q35 39 81 73q30 22 90 68q40 31 85 74q37 36 66 90q17 31 17 61t6 54q6 23 28 38t84 15q14 0 24 -1q22 -2 31 -4q12 -2 27 -10q14 -7 15 -16q-12 -17 -16 -40q-6 -33 -8 -54q-4 -41 -7 -57q-5 -28 -12 -50q-21 -54 -61 -102 q-39 -47 -87 -94q-52 -50 -96 -89q-47 -42 -90 -89q-41 -46 -67 -93q-25 -46 -25 -98q0 -81 49 -121q50 -41 121 -41q100 0 155 33q54 32 85 83q28 46 44 107q16 62 33 108q18 49 50 83q31 33 95 33q29 0 50 -15q20 -14 32 -35q14 -24 18 -48q5 -28 5 -50q0 -89 -55 -168 q-56 -80 -138 -141t-176 -97t-174 -36q-68 0 -131 39q-64 39 -112 95q-51 58 -80 120q-31 64 -35 115q-2 16 -2 23v24zM416 715q0 15 13 34q12 17 33 35q22 19 40 29q21 12 35 12q18 0 27 1t26 1q22 0 56 -8q36 -9 60 -22q30 -17 46 -34q18 -19 18 -42q0 -13 -12 -29 q-10 -13 -31 -31q-10 -8 -37 -24q-17 -10 -31 -10q-4 0 -6 2t-6 2q-17 0 -36 -8q-22 -9 -38 -9q-41 0 -89 28q-43 25 -66 69z" />
<glyph unicode="&#xc0;" horiz-adv-x="1034" d="M-121 113q0 24 17 44q16 19 41 19q41 0 53 -28q8 -18 23 -61q12 -35 37 -61q26 -28 93 -28q47 0 91 25q43 25 77 63q36 41 61 86t42 92q17 50 24 74q5 16 11 31q0 4 -7 4q-55 -6 -91 -9q-50 -4 -70 -4q-34 0 -72 6q-29 5 -29 37q0 18 18 30q19 13 50 17q40 5 77 8 q85 6 99 7q22 1 39 3t18 7q22 69 35 117l33 119q25 97 47 228q20 119 20 243q0 24 -1 33t-1 20q9 4 27 4t33 4q20 5 40 13q27 10 54 10q7 0 34 -5q16 -3 48 -15q29 -11 44 -20q19 -12 19 -24v-325q0 -158 17 -313q16 -149 39 -268q22 -117 48 -193q25 -75 46 -85 q-12 -12 -51 -30q-41 -19 -107 -19q-45 0 -75 21q-29 20 -29 96q-6 101 -10 155q-2 21 -4.5 45.5t-5.5 54t-5 46.5q-70 -2 -117 -2q-69 0 -110 -4q-21 -79 -60 -172q-35 -84 -87 -146q-52 -63 -124 -100q-71 -37 -174 -37q-38 0 -78 9q-37 8 -73 31q-30 19 -53 58 q-21 36 -21 89zM561 1503q4 5 4 19v8q0 48 14 78q13 28 27 28q10 0 36 -17q34 -23 65 -45q18 -13 77 -61t75 -62q34 -30 56 -53q23 -25 23 -34l4 -45q0 -31 -22 -31q-13 0 -25 15q-10 12 -35 24q-34 20 -74 53q-47 39 -116 78q-4 2 -18 9.5t-24 12.5q-22 11 -42 17zM571 471 h193q-9 93 -11 107q-7 60 -18 124q-3 16 -9.5 58.5t-10.5 64.5q-11 60 -21 99q-2 -5 -4.5 -13t-6 -20.5t-6.5 -22.5q-4 -13 -12.5 -42.5t-13.5 -45.5q-5 -17 -27 -102q-4 -14 -26 -98q-4 -15 -19 -75q-8 -32 -8 -34z" />
<glyph unicode="&#xc1;" horiz-adv-x="1034" d="M-121 113q0 24 17 44q16 19 41 19q41 0 53 -28q8 -18 23 -61q12 -35 37 -61q26 -28 93 -28q47 0 91 25q43 25 77 63q36 41 61 86t42 92q17 50 24 74q5 16 11 31q0 4 -7 4q-55 -6 -91 -9q-50 -4 -70 -4q-34 0 -72 6q-29 5 -29 37q0 18 18 30q19 13 50 17q40 5 77 8 q85 6 99 7q22 1 39 3t18 7q22 69 35 117l33 119q25 97 47 228q20 119 20 243q0 24 -1 33t-1 20q9 4 27 4t33 4q20 5 40 13q27 10 54 10q7 0 34 -5q16 -3 48 -15q29 -11 44 -20q19 -12 19 -24v-325q0 -158 17 -313q16 -149 39 -268q22 -117 48 -193q25 -75 46 -85 q-12 -12 -51 -30q-41 -19 -107 -19q-45 0 -75 21q-29 20 -29 96q-6 101 -10 155q-2 21 -4.5 45.5t-5.5 54t-5 46.5q-70 -2 -117 -2q-69 0 -110 -4q-21 -79 -60 -172q-35 -84 -87 -146q-52 -63 -124 -100q-71 -37 -174 -37q-38 0 -78 9q-37 8 -73 31q-30 19 -53 58 q-21 36 -21 89zM539 1329v25q0 17 4 25q5 11 22 26q60 56 92 82q18 15 94 75q43 34 79 55t55 21q14 0 20 -12t6 -70q0 -33 -7 -46t-20 -19q-10 -5 -32 -10q-21 -5 -43 -19l-170 -119q-10 -15 -31 -38t-33 -23q-6 0 -10 4q-7 14 -13 20l-8 8q-1 1 -2 3l-2 2q-1 1 -1 10z M571 471h193q-9 93 -11 107q-7 60 -18 124q-3 16 -9.5 58.5t-10.5 64.5q-11 60 -21 99q-2 -5 -4.5 -13t-6 -20.5t-6.5 -22.5q-4 -13 -12.5 -42.5t-13.5 -45.5q-5 -17 -27 -102q-4 -14 -26 -98q-4 -15 -19 -75q-8 -32 -8 -34z" />
<glyph unicode="&#xc2;" horiz-adv-x="1034" d="M-121 113q0 24 17 44q16 19 41 19q41 0 53 -28q8 -18 23 -61q12 -35 37 -61q26 -28 93 -28q47 0 91 25q43 25 77 63q36 41 61 86t42 92q17 50 24 74q5 16 11 31q0 4 -7 4q-55 -6 -91 -9q-50 -4 -70 -4q-34 0 -72 6q-29 5 -29 37q0 18 18 30q19 13 50 17q40 5 77 8 q85 6 99 7q22 1 39 3t18 7q22 69 35 117l33 119q25 97 47 228q20 119 20 243q0 24 -1 33t-1 20q9 4 27 4t33 4q20 5 40 13q27 10 54 10q7 0 34 -5q16 -3 48 -15q29 -11 44 -20q19 -12 19 -24v-325q0 -158 17 -313q16 -149 39 -268q22 -117 48 -193q25 -75 46 -85 q-12 -12 -51 -30q-41 -19 -107 -19q-45 0 -75 21q-29 20 -29 96q-6 101 -10 155q-2 21 -4.5 45.5t-5.5 54t-5 46.5q-70 -2 -117 -2q-69 0 -110 -4q-21 -79 -60 -172q-35 -84 -87 -146q-52 -63 -124 -100q-71 -37 -174 -37q-38 0 -78 9q-37 8 -73 31q-30 19 -53 58 q-21 36 -21 89zM467 1450q0 59 44 89q43 30 87 30q12 0 32 -9q17 -8 36 -25q15 -13 28 -35q13 -21 13 -38q0 -11 -17 -25q-13 -11 -38 -25q-19 -11 -42 -19q-25 -9 -28 -9q-11 0 -32 8q-26 10 -38 17q-21 12 -32 22q-13 12 -13 19zM571 471h193q-9 93 -11 107q-7 60 -18 124 q-3 16 -9.5 58.5t-10.5 64.5q-11 60 -21 99q-2 -5 -4.5 -13t-6 -20.5t-6.5 -22.5q-4 -13 -12.5 -42.5t-13.5 -45.5q-5 -17 -27 -102q-4 -14 -26 -98q-4 -15 -19 -75q-8 -32 -8 -34zM838 1466q0 26 14 43q17 20 35 32q22 14 43 21t39 7q12 0 30 -9q17 -8 35 -25 q17 -15 29 -35t12 -38q0 -12 -16 -25q-13 -11 -38 -25q-19 -11 -42 -19q-25 -9 -29 -9q-11 0 -34 7q-20 6 -36 17q-20 13 -30 26q-12 15 -12 32z" />
<glyph unicode="&#xc3;" horiz-adv-x="1034" d="M-121 113q0 24 17 44q16 19 41 19q41 0 53 -28q8 -18 23 -61q12 -35 37 -61q26 -28 93 -28q47 0 91 25q43 25 77 63q36 41 61 86t42 92q17 50 24 74q5 16 11 31q0 4 -7 4q-55 -6 -91 -9q-50 -4 -70 -4q-34 0 -72 6q-29 5 -29 37q0 18 18 30q19 13 50 17q40 5 77 8 q85 6 99 7q22 1 39 3t18 7q22 69 35 117l33 119q25 97 47 228q20 119 20 243q0 24 -1 33t-1 20q9 4 27 4t33 4q20 5 40 13q27 10 54 10q7 0 34 -5q16 -3 48 -15q29 -11 44 -20q19 -12 19 -24v-325q0 -158 17 -313q16 -149 39 -268q22 -117 48 -193q25 -75 46 -85 q-12 -12 -51 -30q-41 -19 -107 -19q-45 0 -75 21q-29 20 -29 96q-6 101 -10 155q-2 21 -4.5 45.5t-5.5 54t-5 46.5q-70 -2 -117 -2q-69 0 -110 -4q-21 -79 -60 -172q-35 -84 -87 -146q-52 -63 -124 -100q-71 -37 -174 -37q-38 0 -78 9q-37 8 -73 31q-30 19 -53 58 q-21 36 -21 89zM467 1425q0 66 47 98q46 31 107 31q49 0 84 -17q39 -18 67 -37q7 -5 18.5 -12.5t21 -13.5t17.5 -11q26 -17 54 -17q46 0 64 22t18 54q0 16 12 22t20 6q21 0 34 -19t13 -54q0 -41 -17 -65q-19 -27 -43 -41q-23 -14 -53 -22q-29 -8 -50 -8q-37 0 -81 13 q-41 12 -81 49q-12 28 -38 39q-24 10 -48 10q-47 0 -68 -23q-20 -22 -22 -55q-4 -4 -14 -6q-12 -2 -15 -2q-47 0 -47 59zM571 471h193q-9 93 -11 107q-7 60 -18 124q-3 16 -9.5 58.5t-10.5 64.5q-11 60 -21 99q-2 -5 -4.5 -13t-6 -20.5t-6.5 -22.5q-4 -13 -12.5 -42.5 t-13.5 -45.5q-5 -17 -27 -102q-4 -14 -26 -98q-4 -15 -19 -75q-8 -32 -8 -34z" />
<glyph unicode="&#xc4;" horiz-adv-x="1034" d="M-121 113q0 24 17 44q16 19 41 19q41 0 53 -28q8 -18 23 -61q12 -35 37 -61q26 -28 93 -28q47 0 91 25q43 25 77 63q36 41 61 86t42 92q17 50 24 74q5 16 11 31q0 4 -7 4q-55 -6 -91 -9q-50 -4 -70 -4q-34 0 -72 6q-29 5 -29 37q0 18 18 30q19 13 50 17q40 5 77 8 q85 6 99 7q22 1 39 3t18 7q22 69 35 117l33 119q25 97 47 228q20 119 20 243q0 24 -1 33t-1 20q9 4 27 4t33 4q20 5 40 13q27 10 54 10q7 0 34 -5q16 -3 48 -15q29 -11 44 -20q19 -12 19 -24v-325q0 -158 17 -313q16 -149 39 -268q22 -117 48 -193q25 -75 46 -85 q-12 -12 -51 -30q-41 -19 -107 -19q-45 0 -75 21q-29 20 -29 96q-6 101 -10 155q-2 21 -4.5 45.5t-5.5 54t-5 46.5q-70 -2 -117 -2q-69 0 -110 -4q-21 -79 -60 -172q-35 -84 -87 -146q-52 -63 -124 -100q-71 -37 -174 -37q-38 0 -78 9q-37 8 -73 31q-30 19 -53 58 q-21 36 -21 89zM461 1430q0 59 44 89q42 29 87 29q12 0 32 -9q15 -7 35 -25q18 -17 29 -34q12 -20 12 -38q0 -13 -16 -26q-9 -8 -38 -24q-23 -13 -42 -20q-22 -8 -29 -8q-13 0 -31 7q-21 8 -38 18q-24 14 -32 21q-13 12 -13 20zM571 471h193q-9 93 -11 107q-7 60 -18 124 q-3 16 -9.5 58.5t-10.5 64.5q-11 60 -21 99q-2 -5 -4.5 -13t-6 -20.5t-6.5 -22.5q-4 -13 -12.5 -42.5t-13.5 -45.5q-5 -17 -27 -102q-4 -14 -26 -98q-4 -15 -19 -75q-8 -32 -8 -34zM831 1446q0 25 15 43q17 20 35 32t43 20q21 7 39 7q12 0 30 -9q17 -8 35 -25t29 -34 q12 -20 12 -38q0 -13 -16 -26q-9 -8 -38 -24q-23 -13 -42 -20q-22 -8 -29 -8q-15 0 -34 6t-37 18q-19 13 -29 25q-13 16 -13 33z" />
<glyph unicode="&#xc5;" horiz-adv-x="1034" d="M-121 113q0 24 17 44q16 19 41 19q41 0 53 -28q8 -18 23 -61q12 -35 37 -61q26 -28 93 -28q47 0 91 25q43 25 77 63q36 41 61 86t42 92q17 50 24 74q5 16 11 31q0 4 -7 4q-55 -6 -91 -9q-50 -4 -70 -4q-34 0 -72 6q-29 5 -29 37q0 18 18 30q19 13 50 17q40 5 77 8 q85 6 99 7q22 1 39 3t18 7q22 69 35 117l33 119q25 97 47 228q20 119 20 243q0 24 -1 33t-1 20q9 4 27 4t33 4q20 5 40 13q27 10 54 10q7 0 34 -5q16 -3 48 -15q29 -11 44 -20q19 -12 19 -24v-325q0 -158 17 -313q16 -149 39 -268q22 -117 48 -193q25 -75 46 -85 q-12 -12 -51 -30q-41 -19 -107 -19q-45 0 -75 21q-29 20 -29 96q-6 101 -10 155q-2 21 -4.5 45.5t-5.5 54t-5 46.5q-70 -2 -117 -2q-69 0 -110 -4q-21 -79 -60 -172q-35 -84 -87 -146q-52 -63 -124 -100q-71 -37 -174 -37q-38 0 -78 9q-37 8 -73 31q-30 19 -53 58 q-21 36 -21 89zM571 471h193q-9 93 -11 107q-7 60 -18 124q-3 16 -9.5 58.5t-10.5 64.5q-11 60 -21 99q-2 -5 -4.5 -13t-6 -20.5t-6.5 -22.5q-4 -13 -12.5 -42.5t-13.5 -45.5q-5 -17 -27 -102q-4 -14 -26 -98q-4 -15 -19 -75q-8 -32 -8 -34zM573 1473q0 50 45 83q0 12 16 23 q15 10 38 18q29 10 47 13q21 4 45 4q25 0 55 -6q32 -6 58 -21q28 -15 45 -37q18 -22 18 -57q0 -56 -50 -97q-49 -40 -142 -40q-38 0 -75 6q-39 6 -67 33q-22 21 -27 36q-6 20 -6 42zM647 1452q0 -29 34 -41q35 -12 64 -12t59 9q29 9 46 30q13 16 15 28q3 15 3 29 q0 49 -59 53v-4q0 -24 -35 -24l-45 8q-7 0 -23 -4t-26 -4q0 -3 -14 -17l-15 -14q-4 -5 -4 -19v-18z" />
<glyph unicode="&#xc6;" horiz-adv-x="1976" d="M-10 113q0 25 16 44t41 19q41 0 53 -28q13 -29 24 -61q12 -35 37 -61q26 -28 93 -28q47 0 89 25q39 23 73 63q30 35 56 86q22 42 40 92q23 67 25 74q7 23 10 31q0 4 -6 4l-17 -2q-4 -1 -61 -11q-33 -6 -84 -6q-42 0 -72 8q-28 7 -28 41q0 19 17 30q19 13 50 17q40 5 77 8 q85 6 99 7q22 1 39 3q18 2 19 7q21 57 39 117q15 51 34 119q32 119 52 228q22 122 22 243q0 24 -1 33t-1 20q9 4 27 4q17 0 32 4q20 5 40 13q27 10 55 10q6 0 33 -5q18 -3 49 -15q29 -11 44 -20q19 -12 19 -24v-135q39 51 108 90q72 41 146 65q81 26 156 38q78 12 137 12h84 h10q17 0 31 -1q7 -1 21 -1t21 -1q26 -2 39 -4q17 -3 19 -8q26 -26 40 -42q24 -27 41 -51q19 -27 33 -57t15 -58q0 -27 -7 -47q-7 -18 -26 -41q-8 33 -30 54q-24 22 -53 34q-32 13 -61 17q-35 5 -56 5h-129q-38 0 -107 -6q-66 -6 -138 -26q-71 -20 -120 -56q-51 -37 -51 -98 q0 -129 126 -191q125 -61 337 -61q2 0 25 5q22 5 26 15q21 -12 39 -52q19 -42 20 -77q0 -16 -3 -40q-3 -23 -13 -33q-64 1 -101 3q-24 1 -77 1q-46 0 -101 -3t-109 -18q-56 -16 -103 -45q-45 -28 -80 -84q-17 -29 -17 -59q5 -62 40 -96q38 -37 86 -54q47 -17 104 -22 q47 -4 90 -4q62 0 136 8q66 7 105 49q57 63 92 89t70 26q40 0 61 -16q19 -15 19 -36q0 -26 -25 -57q-57 -60 -121 -92q-67 -33 -141 -52q-75 -19 -141 -23q-77 -5 -127 -5q-46 0 -107 6q-60 6 -120 39q-11 -7 -55 -23q-37 -14 -89 -14q-44 0 -74 21t-30 96q-6 101 -10 155 q-2 21 -4.5 45.5t-5.5 54t-5 46.5q-70 -2 -105 -2q-59 0 -100 -4q-22 -91 -56 -170q-35 -80 -89 -145t-127 -102q-74 -38 -172 -38q-39 0 -79 9q-36 8 -72 31q-32 20 -54 58q-20 34 -20 89zM682 471h170q-1 6 -8 107q-6 82 -9 124q-3 44 -13 123q-8 67 -17 99 q-5 -14 -18 -56q-4 -13 -12 -42t-13 -46q-12 -39 -28 -102q-3 -11 -11.5 -46t-13.5 -52q-3 -11 -7.5 -27t-7.5 -27.5t-5 -20.5q-7 -28 -7 -34zM1024 815q1 -54 7 -164q2 -38 14 -155q49 26 106 51q47 20 107 39q-88 35 -144 99q-58 65 -90 130z" />
<glyph unicode="&#xc7;" horiz-adv-x="901" d="M53 543q0 148 28 286q26 129 75 233q47 101 111 157q65 57 139 57h43q38 0 62 -10q22 -9 49 -26q24 -15 48 -33q18 -14 62 -33q61 -27 82 -98q20 -67 20 -150q0 -40 -1 -60q-2 -33 -11 -56q-11 -26 -33 -44q-23 -19 -65 -23q-59 0 -82 41t-23 88q0 32 4 65t4 77 q0 51 -15 90t-63 39q-75 0 -123 -54q-49 -55 -76 -139t-39 -186q-11 -94 -11 -199q0 -89 5 -181q5 -84 25 -148q21 -66 60 -114q40 -50 108 -79q28 -12 64 -12q52 0 97 23q47 24 81 63q33 37 55 89q21 49 21 103q0 55 19 94q20 41 65 41q33 0 43 -20t10 -47q0 -49 -10 -78 q-15 -56 -46 -115q-29 -56 -79 -112q-69 -80 -154 -107q-81 -26 -151 -26q-203 0 -300 155q-98 157 -98 449zM305 -328q0 16 11 27q12 12 32 12q16 0 26 -8q6 -5 18 -17q9 -9 22 -17q11 -7 35 -7q8 0 36 2q21 2 39 9q20 8 31 22q12 15 12 41q0 29 -31 36q-32 8 -69 12 t-69 18q-31 13 -31 57q0 24 11 41q13 20 26 30q16 13 32 20q15 7 25 7l26 -16q-3 -10 -4 -13q-2 -10 -2 -18q0 -11 7 -21q7 -9 30 -14q61 -12 96 -47t35 -82q0 -91 -61 -131q-62 -41 -142 -41q-58 0 -100 25q-41 24 -41 73z" />
<glyph unicode="&#xc8;" horiz-adv-x="1046" d="M0 354q18 64 57 101q36 35 85 60q40 21 97 38q51 15 89 33q-65 28 -119 76q-51 45 -90 100q-36 51 -58 105q-20 50 -20 91q0 80 60 139q58 57 148 97q85 38 184 58q100 20 171 20h84h10q17 0 31 -1q7 -1 21 -1t21 -1q26 -2 39 -4q17 -3 19 -8q26 -26 41 -42 q20 -21 43 -51q21 -27 36 -57q17 -33 18 -58q0 -26 -6 -47q-5 -18 -25 -41q-10 33 -33 54q-25 23 -52 34q-32 13 -60 17q-33 5 -58 5h-129q-37 0 -103 -6q-64 -6 -132 -26q-67 -20 -114 -55q-48 -36 -48 -95q0 -67 34 -114q36 -50 96 -80q65 -33 149 -47q87 -15 192 -15 q2 0 25 5q22 5 26 15q22 -15 43 -59q21 -45 21 -84q0 -11 -2 -33q-1 -14 -13 -26q-64 1 -101 3q-24 1 -77 1q-44 0 -100 -3q-57 -3 -109 -18q-54 -16 -100 -45q-48 -31 -78 -84q-11 -17 -12 -30q-2 -18 -2 -29q6 -62 46 -96q44 -38 92 -54q51 -17 107 -22q49 -4 93 -4t68 1 q40 2 69 7q35 6 59 17q27 12 43 32q59 67 89 89q35 26 69 26q39 0 61 -16q21 -15 21 -36q0 -16 -3 -28t-20 -29q-50 -56 -117 -91q-63 -33 -138 -52q-78 -20 -140 -24q-77 -5 -129 -5q-18 0 -78 2q-44 1 -92 17t-93 43t-83 81q-17 24 -42 64q-28 46 -40 69q-19 37 -30 65 q-11 29 -11 52zM354 1329v25q0 17 4 25q5 9 23 26q60 56 92 82q49 41 93 75q40 32 80 55q36 21 54 21q15 0 21 -12t6 -70q0 -33 -7 -46t-21 -19q-12 -5 -31 -10q-21 -5 -43 -19l-170 -119q-10 -15 -31 -38t-33 -23q-6 0 -10 4q-7 14 -13 20l-9 8l-3 3l-1 2q-1 1 -1 10z" />
<glyph unicode="&#xc9;" horiz-adv-x="1046" d="M0 354q18 64 57 101q36 35 85 60q40 21 97 38q51 15 89 33q-65 28 -119 76q-51 45 -90 100q-36 51 -58 105q-20 50 -20 91q0 80 60 139q58 57 148 97q85 38 184 58q100 20 171 20h84h10q17 0 31 -1q7 -1 21 -1t21 -1q26 -2 39 -4q17 -3 19 -8q26 -26 41 -42 q20 -21 43 -51q21 -27 36 -57q17 -33 18 -58q0 -26 -6 -47q-5 -18 -25 -41q-10 33 -33 54q-25 23 -52 34q-32 13 -60 17q-33 5 -58 5h-129q-37 0 -103 -6q-64 -6 -132 -26q-67 -20 -114 -55q-48 -36 -48 -95q0 -67 34 -114q36 -50 96 -80q65 -33 149 -47q87 -15 192 -15 q2 0 25 5q22 5 26 15q22 -15 43 -59q21 -45 21 -84q0 -11 -2 -33q-1 -14 -13 -26q-64 1 -101 3q-24 1 -77 1q-44 0 -100 -3q-57 -3 -109 -18q-54 -16 -100 -45q-48 -31 -78 -84q-11 -17 -12 -30q-2 -18 -2 -29q6 -62 46 -96q44 -38 92 -54q51 -17 107 -22q49 -4 93 -4t68 1 q40 2 69 7q35 6 59 17q27 12 43 32q59 67 89 89q35 26 69 26q39 0 61 -16q21 -15 21 -36q0 -16 -3 -28t-20 -29q-50 -56 -117 -91q-63 -33 -138 -52q-78 -20 -140 -24q-77 -5 -129 -5q-18 0 -78 2q-44 1 -92 17t-93 43t-83 81q-17 24 -42 64q-28 46 -40 69q-19 37 -30 65 q-11 29 -11 52zM354 1329v25q0 17 4 25q5 9 23 26q60 56 92 82q49 41 93 75q40 32 80 55q36 21 54 21q15 0 21 -12t6 -70q0 -33 -7 -46t-21 -19q-12 -5 -31 -10q-21 -5 -43 -19l-170 -119q-10 -15 -31 -38t-33 -23q-6 0 -10 4q-7 14 -13 20l-9 8l-3 3l-1 2q-1 1 -1 10z" />
<glyph unicode="&#xca;" horiz-adv-x="1046" d="M0 354q18 64 57 101q36 35 85 60q40 21 97 38q51 15 89 33q-65 28 -119 76q-51 45 -90 100q-36 51 -58 105q-20 50 -20 91q0 80 60 139q58 57 148 97q85 38 184 58q100 20 171 20h84h10q17 0 31 -1q7 -1 21 -1t21 -1q26 -2 39 -4q17 -3 19 -8q26 -26 41 -42 q20 -21 43 -51q21 -27 36 -57q17 -33 18 -58q0 -26 -6 -47q-5 -18 -25 -41q-10 33 -33 54q-25 23 -52 34q-32 13 -60 17q-33 5 -58 5h-129q-37 0 -103 -6q-64 -6 -132 -26q-67 -20 -114 -55q-48 -36 -48 -95q0 -67 34 -114q36 -50 96 -80q65 -33 149 -47q87 -15 192 -15 q2 0 25 5q22 5 26 15q22 -15 43 -59q21 -45 21 -84q0 -11 -2 -33q-1 -14 -13 -26q-64 1 -101 3q-24 1 -77 1q-44 0 -100 -3q-57 -3 -109 -18q-54 -16 -100 -45q-48 -31 -78 -84q-11 -17 -12 -30q-2 -18 -2 -29q6 -62 46 -96q44 -38 92 -54q51 -17 107 -22q49 -4 93 -4t68 1 q40 2 69 7q35 6 59 17q27 12 43 32q59 67 89 89q35 26 69 26q39 0 61 -16q21 -15 21 -36q0 -16 -3 -28t-20 -29q-50 -56 -117 -91q-63 -33 -138 -52q-78 -20 -140 -24q-77 -5 -129 -5q-18 0 -78 2q-44 1 -92 17t-93 43t-83 81q-17 24 -42 64q-28 46 -40 69q-19 37 -30 65 q-11 29 -11 52zM297 1341v5q0 6 2 14q1 5 12 16l35 39q9 9 61 52q43 36 115 112q6 6 24 26q14 15 38 15q23 0 28 -4q7 -6 11 -14q6 -15 13 -27q10 -17 36 -41q82 -92 110 -120q49 -49 49 -77q0 -32 -24 -32q-19 0 -28 6q-8 5 -16 15q-5 6 -17 22q-9 12 -25 22l-100 66 q-26 18 -30 29q-5 14 -11 14h-5q-8 0 -19 -9q-8 -7 -28 -20l-215 -150q-4 0 -10 16q-6 15 -6 25z" />
<glyph unicode="&#xcb;" horiz-adv-x="1046" d="M0 354q18 64 57 101q36 35 85 60q40 21 97 38q51 15 89 33q-65 28 -119 76q-51 45 -90 100q-36 51 -58 105q-20 50 -20 91q0 80 60 139q58 57 148 97q85 38 184 58q100 20 171 20h84h10q17 0 31 -1q7 -1 21 -1t21 -1q26 -2 39 -4q17 -3 19 -8q26 -26 41 -42 q20 -21 43 -51q21 -27 36 -57q17 -33 18 -58q0 -26 -6 -47q-5 -18 -25 -41q-10 33 -33 54q-25 23 -52 34q-32 13 -60 17q-33 5 -58 5h-129q-37 0 -103 -6q-64 -6 -132 -26q-67 -20 -114 -55q-48 -36 -48 -95q0 -67 34 -114q36 -50 96 -80q65 -33 149 -47q87 -15 192 -15 q2 0 25 5q22 5 26 15q22 -15 43 -59q21 -45 21 -84q0 -11 -2 -33q-1 -14 -13 -26q-64 1 -101 3q-24 1 -77 1q-44 0 -100 -3q-57 -3 -109 -18q-54 -16 -100 -45q-48 -31 -78 -84q-11 -17 -12 -30q-2 -18 -2 -29q6 -62 46 -96q44 -38 92 -54q51 -17 107 -22q49 -4 93 -4t68 1 q40 2 69 7q35 6 59 17q27 12 43 32q59 67 89 89q35 26 69 26q39 0 61 -16q21 -15 21 -36q0 -16 -3 -28t-20 -29q-50 -56 -117 -91q-63 -33 -138 -52q-78 -20 -140 -24q-77 -5 -129 -5q-18 0 -78 2q-44 1 -92 17t-93 43t-83 81q-17 24 -42 64q-28 46 -40 69q-19 37 -30 65 q-11 29 -11 52zM297 1450q0 59 44 89q43 30 87 30q12 0 32 -9q17 -8 36 -25q15 -13 28 -35q13 -21 13 -38q0 -11 -17 -25q-13 -11 -38 -25q-19 -11 -42 -19q-25 -9 -28 -9q-11 0 -32 8q-26 10 -38 17q-21 12 -32 22q-13 12 -13 19zM668 1466q0 26 14 43q17 20 35 32 q22 14 43 21t39 7q12 0 30 -9q17 -8 35 -25q17 -15 29 -35t12 -38q0 -12 -16 -25q-13 -11 -38 -25q-19 -11 -42 -19q-25 -9 -29 -9q-11 0 -34 7q-19 6 -36 17q-20 13 -30 26q-12 15 -12 32z" />
<glyph unicode="&#xcc;" horiz-adv-x="804" d="M-72 250q0 45 12 87q13 45 32 74t53 51q29 19 69 19q37 0 47 -19q11 -20 11 -40q0 -43 -19 -75q-15 -26 -40 -52q-28 -30 -40 -45q-18 -22 -18 -55q0 -99 65 -142t164 -43q86 0 150 35q62 34 105 88q42 52 63 116q20 60 20 118l-31 -2q-76 0 -128 33q-55 35 -90 85 q-34 49 -53 111q-17 57 -17 111v71q0 41 10 91q9 47 29 109q17 54 45 110t57 98q27 39 65 69q35 27 72 27q15 0 33 -6l143 -10q10 -1 28 -11q13 -7 13 -28q-1 -1 -5 -11q-3 -8 -3 -28q0 -26 8 -55v-678q0 -110 -20 -201q-21 -95 -71 -171q-50 -75 -137 -119 q-88 -44 -222 -44h-27q-116 0 -189 32q-74 33 -114 81q-40 49 -55 107t-15 112zM406 1503q4 5 4 19v8q0 51 13 78q13 28 28 28q9 0 35 -17q34 -23 65 -45q27 -19 78 -61q43 -35 74 -62q40 -34 57 -53q22 -23 22 -34l4 -45q0 -31 -22 -31q-13 0 -25 15q-10 13 -34 24 q-34 20 -74 53q-45 38 -117 78q-4 2 -18 9.5t-24 12.5q-22 11 -42 17zM408 791q0 -33 4 -77q5 -53 19 -100q14 -45 43 -86q26 -36 75 -36q1 0 4 0.5t8.5 1t10.5 0.5q20 2 30 6v479q1 4 3.5 14.5t4.5 16.5q4 13 4 32q0 29 -13 49q-13 21 -48 21q-46 0 -74 -37 q-30 -39 -44 -88q-15 -51 -21 -106t-6 -90z" />
<glyph unicode="&#xcd;" horiz-adv-x="804" d="M-72 250q0 45 12 87q13 45 32 74t53 51q29 19 69 19q37 0 47 -19q11 -20 11 -40q0 -43 -19 -75q-15 -26 -40 -52q-28 -30 -40 -45q-18 -22 -18 -55q0 -99 65 -142t164 -43q86 0 150 35q62 34 105 88q42 52 63 116q20 60 20 118l-31 -2q-76 0 -128 33q-55 35 -90 85 q-34 49 -53 111q-17 57 -17 111v71q0 41 10 91q9 47 29 109q17 54 45 110t57 98q27 39 65 69q35 27 72 27q15 0 33 -6l143 -10q10 -1 28 -11q13 -7 13 -28q-1 -1 -5 -11q-3 -8 -3 -28q0 -26 8 -55v-678q0 -110 -20 -201q-21 -95 -71 -171q-50 -75 -137 -119 q-88 -44 -222 -44h-27q-116 0 -189 32q-74 33 -114 81q-40 49 -55 107t-15 112zM334 1329v25q0 17 4 25q5 11 22 26q52 49 93 82q49 41 93 75q40 32 80 55q36 21 54 21q14 0 20 -12q7 -14 7 -70q0 -32 -8 -46q-7 -13 -20 -19q-10 -5 -32 -10q-21 -5 -43 -19l-170 -119 q-10 -15 -31 -38t-32 -23q-7 0 -11 4q-7 14 -13 20l-8 8l-3 3l-1 2q-1 1 -1 10zM408 791q0 -33 4 -77q5 -53 19 -100q14 -45 43 -86q26 -36 75 -36q1 0 4 0.5t8.5 1t10.5 0.5q20 2 30 6v479q1 4 3.5 14.5t4.5 16.5q4 13 4 32q0 29 -13 49q-13 21 -48 21q-46 0 -74 -37 q-30 -39 -44 -88q-15 -51 -21 -106t-6 -90z" />
<glyph unicode="&#xce;" horiz-adv-x="804" d="M-72 250q0 45 12 87q13 45 32 74t53 51q29 19 69 19q37 0 47 -19q11 -20 11 -40q0 -43 -19 -75q-15 -26 -40 -52q-28 -30 -40 -45q-18 -22 -18 -55q0 -99 65 -142t164 -43q86 0 150 35q62 34 105 88q42 52 63 116q20 60 20 118l-31 -2q-76 0 -128 33q-55 35 -90 85 q-34 49 -53 111q-17 57 -17 111v71q0 41 10 91q9 47 29 109q17 54 45 110t57 98q27 39 65 69q35 27 72 27q15 0 33 -6l143 -10q10 -1 28 -11q13 -7 13 -28q-1 -1 -5 -11q-3 -8 -3 -28q0 -26 8 -55v-678q0 -110 -20 -201q-21 -95 -71 -171q-50 -75 -137 -119 q-88 -44 -222 -44h-27q-116 0 -189 32q-74 33 -114 81q-40 49 -55 107t-15 112zM317 1321v4q0 6 2 14q1 5 13 17l35 39q14 14 60 52q48 40 116 112q5 5 23 25q14 15 38 15t29 -4q6 -4 10 -14q6 -15 13 -27q10 -17 36 -41q66 -74 111 -119q49 -49 49 -77q0 -33 -25 -33 q-18 0 -27 6q-8 6 -17 16q-3 3 -16 21q-9 12 -26 23l-100 65q-26 18 -30 30q-4 13 -11 13h-4q-9 0 -19 -8q-8 -7 -28 -20l-215 -150q-4 0 -10 15q-7 17 -7 26zM408 791q0 -33 4 -77q5 -53 19 -100q14 -45 43 -86q26 -36 75 -36q1 0 4 0.5t8.5 1t10.5 0.5q20 2 30 6v479 q1 4 3.5 14.5t4.5 16.5q4 13 4 32q0 29 -13 49q-13 21 -48 21q-46 0 -74 -37q-30 -39 -44 -88q-15 -51 -21 -106t-6 -90z" />
<glyph unicode="&#xcf;" horiz-adv-x="804" d="M-72 250q0 45 12 87q13 45 32 74t53 51q29 19 69 19q37 0 47 -19q11 -20 11 -40q0 -43 -19 -75q-15 -26 -40 -52q-28 -30 -40 -45q-18 -22 -18 -55q0 -99 65 -142t164 -43q86 0 150 35q62 34 105 88q42 52 63 116q20 60 20 118l-31 -2q-76 0 -128 33q-55 35 -90 85 q-34 49 -53 111q-17 57 -17 111v71q0 41 10 91q9 47 29 109q17 54 45 110t57 98q27 39 65 69q35 27 72 27q15 0 33 -6l143 -10q10 -1 28 -11q13 -7 13 -28q-1 -1 -5 -11q-3 -8 -3 -28q0 -26 8 -55v-678q0 -110 -20 -201q-21 -95 -71 -171q-50 -75 -137 -119 q-88 -44 -222 -44h-27q-116 0 -189 32q-74 33 -114 81q-40 49 -55 107t-15 112zM264 1430q0 59 44 89q42 29 87 29q13 0 32 -9t36 -24t29 -35t12 -38q0 -12 -17 -26q-12 -9 -37 -24q-23 -13 -42 -20q-22 -8 -29 -8q-14 0 -32 7q-21 8 -38 18q-21 13 -31 21q-14 12 -14 20z M408 791q0 -33 4 -77q5 -53 19 -100q14 -45 43 -86q26 -36 75 -36q1 0 4 0.5t8.5 1t10.5 0.5q20 2 30 6v479q1 4 3.5 14.5t4.5 16.5q4 13 4 32q0 29 -13 49q-13 21 -48 21q-46 0 -74 -37q-30 -39 -44 -88q-15 -51 -21 -106t-6 -90zM635 1446q0 26 14 43q17 20 35 32t43 20 q21 7 39 7q13 0 31 -9q17 -8 34 -24q17 -15 29 -35t12 -38q0 -13 -16 -26q-9 -8 -38 -24q-23 -13 -42 -20q-22 -8 -28 -8q-14 0 -34 6q-19 6 -37 18q-21 14 -30 25q-12 15 -12 33z" />
<glyph unicode="&#xd0;" horiz-adv-x="1024" d="M-90 872q0 99 72 180t187 139q115 59 258 90q145 32 284 32q123 0 235 -30t201 -99q86 -67 140 -183q52 -111 52 -278v-16q2 -64 -8 -118q-13 -72 -22 -114q-17 -87 -65 -184q-47 -95 -110 -170t-146 -124q-81 -48 -167 -48h-4q-54 0 -104 25q-58 29 -121 55q-6 3 -32 10 q-26 6 -49 16q-28 11 -47 28q-23 19 -28 44v362q-30 -13 -55 -22q-14 -5 -38 -15l-36 -15q-6 -3 -22.5 -9t-26.5 -10q-5 -2 -14 -5t-15.5 -5.5t-12.5 -3.5q-22 -5 -38 -5q-28 0 -55 18t-27 52q0 10 7 20q8 12 30 19l4 2q31 15 72 28q50 16 76 27l151 60v266q0 59 -6 110 t-31 74h19q45 0 93 15q45 14 79 14q20 0 32 -9q11 -8 11 -34v-361l192 74q6 2 17 2q15 0 30 -9q10 -6 26 -22q11 -11 17 -25q7 -16 7 -22q0 -24 -39 -39l-250 -94v-422q41 -13 58 -23q28 -17 33 -20q18 -10 26 -13q13 -5 36 -5q95 0 165 53q68 52 114 144q47 94 67 207 q21 118 21 245q0 101 -24 187q-25 89 -79 150q-57 64 -152 102q-97 39 -241 40h-14q-289 0 -429 -79t-140 -216q0 -27 9 -45q12 -24 19 -36q10 -18 21 -39q10 -21 12 -52q-7 -16 -22 -32q-15 -17 -33 -17q-21 0 -52 14q-33 15 -57 36q-25 22 -44 57q-17 31 -17 71z" />
<glyph unicode="&#xd1;" horiz-adv-x="1157" d="M-59 739q0 100 25 199t74 183q48 82 116 135t149 53q39 0 80 -22q37 -20 73 -56q29 -29 60 -77q28 -43 45 -85q16 -34 27 -83q10 -44 16 -100q6 -52 9 -106q1 -12 3 -45.5t3 -50.5q0 -6 1 -18.5t2 -25.5t1 -26q2 -48 3 -91q1 -32 1 -96v-87q11 41 42 142q9 29 19 63.5 t23 78.5t21 72q33 112 66 236t50 205q7 33 30 39q21 6 35 6q37 0 75 -27q43 -31 69 -62q31 -38 50 -72q19 -35 19 -54q-19 -9 -34 -65q-15 -54 -24 -140q-10 -92 -14 -198q-5 -123 -5 -234q0 -22 2 -92q1 -50 13 -101q12 -47 36 -80q23 -32 69 -32q5 0 11 3q7 4 18 5 q4 -11 4 -15q0 -18 -9 -30t-23 -20q-10 -6 -28 -11q-13 -4 -26 -4q-88 0 -136 49t-72 122q-23 70 -28 157q-5 93 -5 153q0 3 2 73t3 108q2 57 3 102q0 13 0.5 25.5t1 19t0.5 8.5q0 27 -10 27q-12 -18 -32 -70q-17 -45 -42 -121q-14 -42 -46 -149q-24 -79 -42 -156 q-19 -79 -30 -139q-11 -58 -11 -103q0 -19 9 -36t9 -21q2 -6 -9 -10q-3 -1 -26 -8q-15 -4 -34 -4h-15q-38 0 -64 8q-23 7 -50 28q-36 30 -52 62t-16 86q0 35 3 98q1 29 8 135q6 96 8 142q4 92 4 116q0 130 -9 256q-7 102 -26 169q-18 64 -46 95q-26 29 -65 29 q-73 0 -123 -50q-48 -48 -79 -122q-30 -73 -42 -152q-12 -81 -12 -143q0 -1 2 -55q1 -38 11 -84q9 -41 29 -76q19 -33 52 -33l37 3q3 0 27 -4q18 -3 37 -11q16 -7 32 -21q15 -14 15 -34q0 -12 -14 -20q-11 -6 -29 -11q-16 -4 -32 -6q-3 0 -6.5 -0.5t-5.5 -1t-4 -0.5h-3 q-65 0 -114 29q-51 30 -79 77q-32 52 -46 114q-15 65 -15 136zM399 1425q0 66 47 98q46 31 107 31q49 0 84 -17q42 -20 68 -37q7 -5 18.5 -12.5t21 -13.5t17.5 -11q26 -17 53 -17q47 0 65 22q17 21 17 54q0 16 12 22t21 6q21 0 34 -19t13 -54q0 -39 -18 -65q-19 -27 -43 -41 q-23 -14 -53 -22q-29 -8 -50 -8q-37 0 -81 13q-41 12 -81 49q-12 28 -38 39q-24 10 -48 10q-46 0 -67 -23q-22 -23 -23 -55q-5 -5 -13 -6q-12 -2 -16 -2q-47 0 -47 59z" />
<glyph unicode="&#xd2;" horiz-adv-x="1157" d="M53 545q0 62 7 126t29 143t58 152q38 78 99 146q35 74 91 111t126 37q19 0 42 -7q7 -2 21.5 -7t22.5 -7q22 -7 56 -15q31 -7 77 -12q93 -6 160 -69q65 -61 112 -159q45 -95 68 -210q22 -111 22 -227q0 -133 -32 -235t-97 -181q-63 -77 -156 -117q-94 -41 -214 -41 q-124 0 -220 51q-95 50 -154 132q-61 85 -89 183q-29 104 -29 206zM240 559q0 -82 11 -158q12 -84 47 -151q37 -71 102 -115q66 -45 175 -45q102 0 163 53t95 129q33 73 44 162q10 81 10 150q0 28 -5 90q-4 48 -19 117q-13 58 -36 123q-23 64 -57 113q-35 50 -82 82t-110 32 q-48 0 -79 -21q-34 -22 -52 -52q-19 -31 -27 -71q-8 -42 -8 -75q0 -52 18 -99q19 -48 51 -82t78 -55q43 -20 96 -20q37 0 70 18q31 17 47 41q5 -26 11 -39q8 -18 8 -27q0 -26 -26 -43q-25 -16 -58 -25t-65 -12q-42 -4 -46 -4q-39 0 -92 16q-48 14 -95 45q-45 29 -82 75 t-53 104q-22 -64 -28 -132q-6 -66 -6 -124zM397 1503q4 5 4 19v8q0 48 14 78q13 28 27 28q11 0 36 -17q34 -23 65 -45q27 -19 78 -61q43 -35 74 -62q40 -34 57 -53q22 -23 22 -34l4 -45q0 -31 -22 -31q-13 0 -25 15q-10 12 -35 24q-31 18 -73 53q-45 38 -117 78 q-4 2 -18 9.5t-24 12.5q-22 11 -42 17z" />
<glyph unicode="&#xd3;" horiz-adv-x="1157" d="M53 545q0 62 7 126t29 143t58 152q38 78 99 146q35 74 91 111t126 37q19 0 42 -7q7 -2 21.5 -7t22.5 -7q22 -7 56 -15q31 -7 77 -12q93 -6 160 -69q65 -61 112 -159q45 -95 68 -210q22 -111 22 -227q0 -133 -32 -235t-97 -181q-63 -77 -156 -117q-94 -41 -214 -41 q-124 0 -220 51q-95 50 -154 132q-61 85 -89 183q-29 104 -29 206zM240 559q0 -82 11 -158q12 -84 47 -151q37 -71 102 -115q66 -45 175 -45q102 0 163 53t95 129q33 73 44 162q10 81 10 150q0 28 -5 90q-4 48 -19 117q-13 58 -36 123q-23 64 -57 113q-35 50 -82 82t-110 32 q-48 0 -79 -21q-34 -22 -52 -52q-19 -31 -27 -71q-8 -42 -8 -75q0 -52 18 -99q19 -48 51 -82t78 -55q43 -20 96 -20q37 0 70 18q31 17 47 41q5 -26 11 -39q8 -18 8 -27q0 -26 -26 -43q-25 -16 -58 -25t-65 -12q-42 -4 -46 -4q-39 0 -92 16q-48 14 -95 45q-45 29 -82 75 t-53 104q-22 -64 -28 -132q-6 -66 -6 -124zM367 1350v24q0 18 4 26q4 9 22 25q60 55 92 82q18 15 94 75q43 34 79 55q38 22 55 22q14 0 20 -12t6 -70q0 -33 -7 -46q-8 -15 -20 -20q-10 -5 -32 -10q-24 -6 -43 -18l-170 -119q-12 -18 -31 -39q-21 -22 -33 -22q-6 0 -10 4 q-6 12 -13 19l-8 8q-1 1 -2 3l-2 2q-1 1 -1 11z" />
<glyph unicode="&#xd4;" horiz-adv-x="1157" d="M53 545q0 62 7 126t29 143t58 152q38 78 99 146q35 74 91 111t126 37q19 0 42 -7q7 -2 21.5 -7t22.5 -7q22 -7 56 -15q31 -7 77 -12q93 -6 160 -69q65 -61 112 -159q45 -95 68 -210q22 -111 22 -227q0 -133 -32 -235t-97 -181q-63 -77 -156 -117q-94 -41 -214 -41 q-124 0 -220 51q-95 50 -154 132q-61 85 -89 183q-29 104 -29 206zM240 559q0 -82 11 -158q12 -84 47 -151q37 -71 102 -115q66 -45 175 -45q102 0 163 53t95 129q33 73 44 162q10 81 10 150q0 28 -5 90q-4 48 -19 117q-13 58 -36 123q-23 64 -57 113q-35 50 -82 82t-110 32 q-48 0 -79 -21q-34 -22 -52 -52q-19 -31 -27 -71q-8 -42 -8 -75q0 -52 18 -99q19 -48 51 -82t78 -55q43 -20 96 -20q37 0 70 18q31 17 47 41q5 -26 11 -39q8 -18 8 -27q0 -26 -26 -43q-25 -16 -58 -25t-65 -12q-42 -4 -46 -4q-39 0 -92 16q-48 14 -95 45q-45 29 -82 75 t-53 104q-22 -64 -28 -132q-6 -66 -6 -124zM285 1321v4q0 6 2 14q2 7 12 17l35 39q14 14 60 52q48 40 116 112q5 5 23 25q13 15 38 15q24 0 29 -4q6 -4 10 -14q3 -6 14 -27q10 -19 35 -41q66 -74 111 -119q49 -49 49 -77q0 -33 -24 -33q-19 0 -28 6q-6 4 -16 16 q-12 15 -17 21q-10 14 -25 23l-101 65q-25 17 -29 30t-12 13h-4q-9 0 -19 -8q-8 -7 -28 -20l-215 -150q-4 0 -10 15t-6 26z" />
<glyph unicode="&#xd5;" horiz-adv-x="1157" d="M53 545q0 62 7 126t29 143t58 152q38 78 99 146q35 74 91 111t126 37q19 0 42 -7q7 -2 21.5 -7t22.5 -7q22 -7 56 -15q31 -7 77 -12q93 -6 160 -69q65 -61 112 -159q45 -95 68 -210q22 -111 22 -227q0 -133 -32 -235t-97 -181q-63 -77 -156 -117q-94 -41 -214 -41 q-124 0 -220 51q-95 50 -154 132q-61 85 -89 183q-29 104 -29 206zM240 559q0 -82 11 -158q12 -84 47 -151q37 -71 102 -115q66 -45 175 -45q102 0 163 53t95 129q33 73 44 162q10 81 10 150q0 28 -5 90q-4 48 -19 117q-13 58 -36 123q-23 64 -57 113q-35 50 -82 82t-110 32 q-48 0 -79 -21q-34 -22 -52 -52q-19 -31 -27 -71q-8 -42 -8 -75q0 -52 18 -99q19 -48 51 -82t78 -55q43 -20 96 -20q37 0 70 18q31 17 47 41q5 -26 11 -39q8 -18 8 -27q0 -26 -26 -43q-25 -16 -58 -25t-65 -12q-42 -4 -46 -4q-39 0 -92 16q-48 14 -95 45q-45 29 -82 75 t-53 104q-22 -64 -28 -132q-6 -66 -6 -124zM297 1425q0 66 47 98q46 31 107 31q49 0 84 -17q39 -18 67 -37q7 -5 18.5 -12.5t21 -13.5t17.5 -11q26 -17 54 -17q46 0 64 22t18 54q0 16 12 22t20 6q21 0 34 -19t13 -54q0 -41 -17 -65q-19 -27 -43 -41q-23 -14 -53 -22 q-29 -8 -50 -8q-37 0 -81 13q-41 12 -81 49q-12 28 -38 39q-24 10 -48 10q-47 0 -68 -22q-20 -22 -22 -56q-4 -4 -14 -6q-12 -2 -15 -2q-47 0 -47 59z" />
<glyph unicode="&#xd6;" horiz-adv-x="1157" d="M53 545q0 62 7 126t29 143t58 152q38 78 99 146q35 74 91 111t126 37q19 0 42 -7q7 -2 21.5 -7t22.5 -7q22 -7 56 -15q31 -7 77 -12q93 -6 160 -69q65 -61 112 -159q45 -95 68 -210q22 -111 22 -227q0 -133 -32 -235t-97 -181q-63 -77 -156 -117q-94 -41 -214 -41 q-124 0 -220 51q-95 50 -154 132q-61 85 -89 183q-29 104 -29 206zM240 559q0 -82 11 -158q12 -84 47 -151q37 -71 102 -115q66 -45 175 -45q102 0 163 53t95 129q33 73 44 162q10 81 10 150q0 28 -5 90q-4 48 -19 117q-13 58 -36 123q-23 64 -57 113q-35 50 -82 82t-110 32 q-48 0 -79 -21q-34 -22 -52 -52q-19 -31 -27 -71q-8 -42 -8 -75q0 -52 18 -99q19 -48 51 -82t78 -55q43 -20 96 -20q37 0 70 18q31 17 47 41q5 -26 11 -39q8 -18 8 -27q0 -26 -26 -43q-25 -16 -58 -25t-65 -12q-42 -4 -46 -4q-39 0 -92 16q-48 14 -95 45q-45 29 -82 75 t-53 104q-22 -64 -28 -132q-6 -66 -6 -124zM276 1430q0 59 44 89q42 29 88 29q12 0 31 -9t36 -24t29 -35t12 -38q0 -13 -16 -26q-9 -8 -38 -24q-23 -13 -42 -20q-22 -8 -29 -8q-14 0 -32 7t-37 18q-24 14 -32 21q-14 12 -14 20zM647 1446q0 26 14 43q17 20 35 32t43 20 q21 7 39 7q13 0 31 -9q17 -8 35 -25q16 -15 28 -34q13 -21 13 -38q0 -12 -17 -26q-9 -8 -38 -24q-23 -13 -42 -20q-22 -8 -28 -8q-14 0 -34 6q-19 6 -37 18q-21 14 -30 25q-12 15 -12 33z" />
<glyph unicode="&#xd8;" horiz-adv-x="1024" d="M-10 -59q0 7 4 18q68 121 141 240q-46 91 -63 197q-17 108 -17 198q0 54 6 123q5 61 22 143q14 67 40 146q23 70 63 128q38 55 94 91q55 35 125 35q10 0 33 -5q28 -6 43 -9l45 -10q21 -4 37 -9q66 -12 114 -24q50 -12 95 -46q6 14 10 20q1 1 6 8t7 11q10 19 31 57t30 55 q34 61 78 107q28 12 57 12q43 0 72 -20q31 -22 31 -49q0 -13 -9 -31q-16 -15 -29 -34q-10 -15 -24 -29q-34 -43 -84 -107l-82 -106q23 -39 47 -103q18 -49 35 -117q17 -66 23 -115q8 -61 8 -98v-135q0 -64 -14 -130q-15 -69 -42 -136q-27 -66 -71 -119q-46 -55 -100 -78 q-10 -6 -52 -21q-30 -11 -53 -11h-112q-26 0 -68 8q-27 5 -68 16q-45 10 -84 24q-34 12 -75 38q-2 -4 -16 -35t-21 -48q-24 -56 -35 -85q-11 -24 -30 -31q-21 -8 -42 -8q-37 0 -72 21q-34 21 -34 53zM238 614q0 -38 5 -103q4 -54 17 -120q18 26 20 29q8 13 19 29 q64 89 148 198t145 209q19 31 57 95q52 88 58 98q-5 0 -5 4q-34 34 -86 46q-47 11 -96 11q-93 0 -150 -51q-56 -50 -85 -126q-29 -77 -38 -161q-9 -86 -9 -158zM315 233q28 -52 75 -91q44 -36 110 -36h86q46 0 86 28q36 25 67 69q29 41 47 89q20 53 25 87q8 51 11 92 q3 45 3 92q0 74 -10 170q-11 104 -43 193v-2q-61 -85 -128 -167q-70 -85 -124 -167q-42 -64 -108 -178q-49 -85 -97 -179z" />
<glyph unicode="&#xd9;" horiz-adv-x="1187" d="M-55 651q0 32 9 95q8 57 29 139q19 74 49 154q32 84 68 144q39 64 89 105t112 41q43 0 77 -22q29 -19 62 -45q50 -38 81 -88q31 -51 48 -125q17 -77 23 -172q6 -99 6 -232q0 -37 -3 -86q-4 -66 -6 -101q-3 -52 -6 -108q-3 -55 -3 -104q0 -32 1 -57q2 -44 8 -75 q9 -44 21 -67q15 -29 41 -29q15 0 27 14q11 13 22 31q9 16 18 37q3 6 6.5 16t4.5 13q83 200 104 402q21 204 21 419q0 29 -7 51t-7 50q0 10 12 19q10 8 30 16q21 9 33 12q15 4 25 4q14 0 34 -7q24 -9 45 -19q38 -19 45 -23q21 -12 32 -23q-18 -11 -29 -29q-9 -21 -16 -87 q-11 -97 -16 -171q-6 -75 -11 -230q-4 -113 -4 -263q0 -16 3 -55q3 -43 10 -78q8 -41 22 -69q15 -30 35 -30q8 0 16 14l9 15t8 13q11 18 21 28q12 12 23 12q-3 -9 -4 -18q-2 -20 -2 -27q0 -3 2 -21l2 -18q0 -18 -17 -39q-18 -22 -71 -22q-72 0 -115 32q-44 33 -64 76 q-22 48 -28 92q-7 54 -8 74q-16 -33 -34 -78q-18 -46 -49 -110q-24 -50 -58 -97q-30 -42 -62 -42q-82 0 -133 32q-53 33 -85 84q-31 51 -45 114q-13 61 -13 122q0 3 0.5 10t1 19.5t0.5 24.5q1 17 2.5 58t2.5 55q3 68 9 160q2 33 7.5 98t7.5 97q0 11 1 25t1 45t1 45t1 24 q0 8 -2 74q-1 43 -13 98q-11 51 -29 86q-19 37 -55 37q-50 0 -97 -59q-50 -62 -86 -145q-35 -81 -61 -183q-24 -96 -24 -170q0 -32 4 -65q4 -35 17 -70q12 -33 34 -55q23 -23 62 -23q25 0 41 14q13 11 25 30l11 16.5t10 14.5q9 13 26 13q19 0 31 -22t12 -41q0 -49 -37 -67 q-35 -17 -78 -17q-130 0 -197 76t-67 194zM508 1483q4 5 4 18v8q0 51 13 78q14 29 28 29q9 0 36 -18q20 -13 64 -45q37 -27 78 -60q59 -48 75 -62q29 -25 56 -54q23 -25 23 -34l4 -45q0 -30 -23 -30q-13 0 -24 14t-35 25q-34 20 -74 53q-45 38 -117 78l-42 21q-27 13 -42 18 z" />
<glyph unicode="&#xda;" horiz-adv-x="1187" d="M-55 651q0 32 9 95q8 57 29 139q19 74 49 154q32 84 68 144q39 64 89 105t112 41q43 0 77 -22q29 -19 62 -45q50 -38 81 -88q31 -51 48 -125q17 -77 23 -172q6 -99 6 -232q0 -37 -3 -86q-4 -66 -6 -101q-3 -52 -6 -108q-3 -55 -3 -104q0 -32 1 -57q2 -44 8 -75 q9 -44 21 -67q15 -29 41 -29q15 0 27 14q11 13 22 31q9 16 18 37q3 6 6.5 16t4.5 13q83 200 104 402q21 204 21 419q0 29 -7 51t-7 50q0 10 12 19q10 8 30 16q21 9 33 12q15 4 25 4q14 0 34 -7q24 -9 45 -19q38 -19 45 -23q21 -12 32 -23q-18 -11 -29 -29q-9 -21 -16 -87 q-11 -97 -16 -171q-6 -75 -11 -230q-4 -113 -4 -263q0 -16 3 -55q3 -43 10 -78q8 -41 22 -69q15 -30 35 -30q8 0 16 14l9 15t8 13q11 18 21 28q12 12 23 12q-3 -9 -4 -18q-2 -20 -2 -27q0 -3 2 -21l2 -18q0 -18 -17 -39q-18 -22 -71 -22q-72 0 -115 32q-44 33 -64 76 q-22 48 -28 92q-7 54 -8 74q-16 -33 -34 -78q-18 -46 -49 -110q-24 -50 -58 -97q-30 -42 -62 -42q-82 0 -133 32q-53 33 -85 84q-31 51 -45 114q-13 61 -13 122q0 3 0.5 10t1 19.5t0.5 24.5q1 17 2.5 58t2.5 55q3 68 9 160q2 33 7.5 98t7.5 97q0 11 1 25t1 45t1 45t1 24 q0 8 -2 74q-1 43 -13 98q-11 51 -29 86q-19 37 -55 37q-50 0 -97 -59q-50 -62 -86 -145q-35 -81 -61 -183q-24 -96 -24 -170q0 -32 4 -65q4 -35 17 -70q12 -33 34 -55q23 -23 62 -23q25 0 41 14q13 11 25 30l11 16.5t10 14.5q9 13 26 13q19 0 31 -22t12 -41q0 -49 -37 -67 q-35 -17 -78 -17q-130 0 -197 76t-67 194zM539 1350v24q0 18 4 26q4 9 22 25q60 55 92 82q18 15 94 75q43 34 79 55q38 22 55 22q14 0 20 -12t6 -70q0 -33 -7 -46q-8 -15 -20 -20q-10 -5 -32 -10q-24 -6 -43 -18l-170 -119q-12 -18 -31 -39q-21 -22 -33 -22q-6 0 -10 4 q-6 12 -13 19l-8 8q-1 1 -2 3l-2 2q-1 1 -1 11z" />
<glyph unicode="&#xdb;" horiz-adv-x="1187" d="M-55 651q0 32 9 95q8 57 29 139q19 74 49 154q32 84 68 144q39 64 89 105t112 41q43 0 77 -22q29 -19 62 -45q50 -38 81 -88q31 -51 48 -125q17 -77 23 -172q6 -99 6 -232q0 -37 -3 -86q-4 -66 -6 -101q-3 -52 -6 -108q-3 -55 -3 -104q0 -32 1 -57q2 -44 8 -75 q9 -44 21 -67q15 -29 41 -29q15 0 27 14q11 13 22 31q9 16 18 37q3 6 6.5 16t4.5 13q83 200 104 402q21 204 21 419q0 29 -7 51t-7 50q0 10 12 19q10 8 30 16q21 9 33 12q15 4 25 4q14 0 34 -7q24 -9 45 -19q38 -19 45 -23q21 -12 32 -23q-18 -11 -29 -29q-9 -21 -16 -87 q-11 -97 -16 -171q-6 -75 -11 -230q-4 -113 -4 -263q0 -16 3 -55q3 -43 10 -78q8 -41 22 -69q15 -30 35 -30q8 0 16 14l9 15t8 13q11 18 21 28q12 12 23 12q-3 -9 -4 -18q-2 -20 -2 -27q0 -3 2 -21l2 -18q0 -18 -17 -39q-18 -22 -71 -22q-72 0 -115 32q-44 33 -64 76 q-22 48 -28 92q-7 54 -8 74q-16 -33 -34 -78q-18 -46 -49 -110q-24 -50 -58 -97q-30 -42 -62 -42q-82 0 -133 32q-53 33 -85 84q-31 51 -45 114q-13 61 -13 122q0 3 0.5 10t1 19.5t0.5 24.5q1 17 2.5 58t2.5 55q3 68 9 160q2 33 7.5 98t7.5 97q0 11 1 25t1 45t1 45t1 24 q0 8 -2 74q-1 43 -13 98q-11 51 -29 86q-19 37 -55 37q-50 0 -97 -59q-50 -62 -86 -145q-35 -81 -61 -183q-24 -96 -24 -170q0 -32 4 -65q4 -35 17 -70q12 -33 34 -55q23 -23 62 -23q25 0 41 14q13 11 25 30l11 16.5t10 14.5q9 13 26 13q19 0 31 -22t12 -41q0 -49 -37 -67 q-35 -17 -78 -17q-130 0 -197 76t-67 194zM487 1321v4q0 6 2 14q1 5 13 17l35 39q14 14 60 52q48 40 116 112q5 5 23 25q14 15 38 15t29 -4q6 -4 10 -14q6 -15 13 -27q10 -17 36 -41q66 -74 111 -119q49 -49 49 -77q0 -33 -25 -33q-18 0 -27 6q-8 6 -17 16q-3 3 -16 21 q-9 12 -26 23l-100 65q-26 18 -30 30q-4 13 -11 13h-4q-10 0 -20 -8q-18 -15 -27 -21l-215 -149q-4 0 -10 15q-7 17 -7 26z" />
<glyph unicode="&#xdc;" horiz-adv-x="1187" d="M-55 651q0 32 9 95q8 57 29 139q19 74 49 154q32 84 68 144q39 64 89 105t112 41q43 0 77 -22q29 -19 62 -45q50 -38 81 -88q31 -51 48 -125q17 -77 23 -172q6 -99 6 -232q0 -37 -3 -86q-4 -66 -6 -101q-3 -52 -6 -108q-3 -55 -3 -104q0 -32 1 -57q2 -44 8 -75 q9 -44 21 -67q15 -29 41 -29q15 0 27 14q11 13 22 31q9 16 18 37q3 6 6.5 16t4.5 13q83 200 104 402q21 204 21 419q0 29 -7 51t-7 50q0 10 12 19q10 8 30 16q21 9 33 12q15 4 25 4q14 0 34 -7q24 -9 45 -19q38 -19 45 -23q21 -12 32 -23q-18 -11 -29 -29q-9 -21 -16 -87 q-11 -97 -16 -171q-6 -75 -11 -230q-4 -113 -4 -263q0 -16 3 -55q3 -43 10 -78q8 -41 22 -69q15 -30 35 -30q8 0 16 14l9 15t8 13q11 18 21 28q12 12 23 12q-3 -9 -4 -18q-2 -20 -2 -27q0 -3 2 -21l2 -18q0 -18 -17 -39q-18 -22 -71 -22q-72 0 -115 32q-44 33 -64 76 q-22 48 -28 92q-7 54 -8 74q-16 -33 -34 -78q-18 -46 -49 -110q-24 -50 -58 -97q-30 -42 -62 -42q-82 0 -133 32q-53 33 -85 84q-31 51 -45 114q-13 61 -13 122q0 3 0.5 10t1 19.5t0.5 24.5q1 17 2.5 58t2.5 55q3 68 9 160q2 33 7.5 98t7.5 97q0 11 1 25t1 45t1 45t1 24 q0 8 -2 74q-1 43 -13 98q-11 51 -29 86q-19 37 -55 37q-50 0 -97 -59q-50 -62 -86 -145q-35 -81 -61 -183q-24 -96 -24 -170q0 -32 4 -65q4 -35 17 -70q12 -33 34 -55q23 -23 62 -23q25 0 41 14q13 11 25 30l11 16.5t10 14.5q9 13 26 13q19 0 31 -22t12 -41q0 -49 -37 -67 q-35 -17 -78 -17q-130 0 -197 76t-67 194zM420 1430q0 59 44 89q42 29 87 29q13 0 32 -9q15 -7 35 -25q18 -17 29 -34q12 -20 12 -38q0 -13 -16 -26q-9 -8 -38 -24q-23 -13 -42 -20q-22 -8 -28 -8q-14 0 -32 7q-21 8 -38 18q-24 14 -32 21q-13 12 -13 20zM791 1446 q0 26 14 43q17 20 35 32t43 20q21 7 39 7q12 0 30 -9q17 -8 35 -25t29 -34q12 -20 12 -38q0 -13 -16 -26q-9 -8 -38 -24q-23 -13 -42 -20q-22 -8 -29 -8q-15 0 -34 6q-17 5 -36 18q-21 14 -30 25q-12 15 -12 33z" />
<glyph unicode="&#xdd;" horiz-adv-x="1155" d="M-43 664q0 66 13 141q14 79 39 158t63 156t85 136q49 61 107 96t127 35q53 0 82 -27q24 -23 59 -63q4 -3 15 -12t19 -15q28 -24 32 -28q15 -15 24 -52q10 -41 14 -81q6 -59 7 -84q2 -54 2 -63q0 -96 -10 -183q-11 -96 -24 -184q-9 -61 -23 -185q-10 -89 -10 -186 q0 -8 2 -50q2 -31 9 -63q9 -37 21 -55q15 -22 41 -22q25 0 49 40q28 48 48 104q25 70 44 144q20 76 37 156q19 90 29 146q18 101 19 108q11 66 15 132q5 73 5 145q0 17 -2 47t-2 41q0 12 20 16q19 4 37 4q14 0 35 -4q24 -4 51 -12q14 -4 47 -18q21 -9 21 -19q0 -38 -10 -74 q-17 -124 -27 -232q-10 -104 -10 -220q0 -76 9 -193t9 -246q0 -83 -8 -171q-7 -78 -31 -148q-23 -67 -61 -108q-39 -42 -103 -48q-40 -4 -91 -6q-66 -2 -91 -2q-38 0 -82 10q-49 11 -89 34q-42 24 -70 58q-29 35 -29 84q0 11 7 28t22 17q41 0 61 -26q15 -20 41 -60 q20 -32 52 -59t95 -27q60 0 95 30q34 30 54 80q19 48 25 115q7 75 7 132q0 65 -3 128q-4 84 -4 115q0 29 1 43q1 8 2.5 20.5t1.5 16.5q-20 -70 -35 -129q-17 -70 -47 -135q-28 -61 -71 -106q-42 -43 -103 -43q-59 0 -102 25q-45 26 -73 69t-43 97q-14 50 -14 110 q0 102 10 198q7 67 23 203q8 68 22 206q11 108 11 210q0 12 -2 58q-1 28 -12 66q-9 31 -27 54t-52 23q-33 0 -60 -21q-32 -24 -50 -43q-92 -95 -144 -226q-53 -133 -53 -280q0 -24 3 -56q3 -33 15 -61q13 -31 31 -49q20 -20 54 -20q19 0 30 11q16 16 23 25q10 14 21 24 q11 11 26 11q22 0 39 -30q16 -29 16 -49q0 -30 -14 -44q-16 -16 -35 -23q-18 -6 -44 -8q-16 -1 -44 -1q-21 0 -50 11q-33 13 -48 22q-66 35 -93 87q-28 54 -28 124zM641 1329v25q0 17 4 25q5 9 23 26q60 56 92 82q50 41 93 75q40 32 80 55q36 21 54 21q15 0 21 -12t6 -70 q0 -33 -7 -46t-21 -19q-10 -5 -32 -10q-21 -5 -43 -19l-170 -119q-12 -18 -30 -38q-21 -23 -33 -23q-6 0 -10 4q-6 12 -14 20l-8 8q-1 1 -2 3l-2 2q-1 1 -1 10z" />
<glyph unicode="&#xde;" horiz-adv-x="1024" d="M-88 868q0 67 51 127t132 108t180 84q95 35 198 58q3 30 5 89q1 25 1 55q0 53 -6 93q-6 41 -22 58v2q0 4 12 18l27 27q17 17 30 26q14 11 21 13q24 19 63 19q53 0 64 -32q10 -30 10 -83q0 -112 -6 -252l33 3q11 1 32 1q73 0 143 -9t140 -44q74 -38 114 -103t58 -131 t21 -116q1 -14 2 -29l1.5 -22.5t0.5 -10.5q0 -39 -19 -104q-18 -63 -52 -127q-36 -69 -79 -129q-47 -66 -98 -114q-54 -51 -112 -82q-59 -32 -120 -32q-24 0 -49 14q-45 25 -51 29l-10 7q-8 -86 -10 -120q-5 -78 -5 -157q0 -35 1 -43t1 -39q0 -22 12 -45q11 -21 11 -27 q0 -18 -25 -21q-24 -3 -30 -3q-54 0 -83 16q-28 16 -44 70q-15 52 -18 155q-3 102 -3 269q0 131 6 248q9 167 11 227q0 11 3 60q4 63 5 108q1 43 5 107q3 49 3 61q-39 -11 -111 -38q-74 -28 -132 -59q-66 -35 -111 -73q-47 -39 -47 -78l34 -115q0 -15 -6 -33t-35 -18t-55 13 q-25 12 -47 33q-21 19 -33 44q-12 24 -12 47zM637 483q0 -72 12 -106q12 -35 70 -35q48 0 107 62q61 64 116 152t93 185t38 164q0 95 -42 148q-43 54 -103 80q-57 25 -132 33t-128 8q-1 -30 -4.5 -92t-5.5 -94q-6 -124 -9 -187z" />
<glyph unicode="&#xdf;" horiz-adv-x="817" d="M31 86q0 120 16 229t16 240q0 47 -4 83q-6 54 -9 83q-5 51 -9 92q-4 44 -4 107q0 67 20 113q21 48 53 80t69 47q40 16 73 16q38 0 66 -7q22 -5 41 -15q24 -12 36 -19q19 -11 49 -17q38 -8 69 -21q30 -13 55 -38q24 -23 36 -61q12 -36 12 -89q0 -19 -6 -47t-21 -58 t-41 -59t-67 -47q54 -17 93 -35q45 -20 85 -62q40 -41 63 -101q23 -59 23 -158v-18q0 -106 -25 -172q-26 -68 -70 -106t-101 -53q-61 -16 -119 -16q-52 0 -94 13q-39 12 -39 63q0 12 7 29q9 21 19 35q17 24 21 28q11 13 16 13q16 0 21 -16q4 -12 7 -32q3 -18 9 -33 q6 -16 27 -16q28 0 60 13q31 12 55 41q25 30 40 80q15 51 15 127v24q0 130 -48 210q-48 79 -147 79q-23 0 -51 -6h-14q-23 0 -32 12t-9 29q0 24 12 45q16 -2 23 -3t20 -1q38 0 64 13q25 13 44 36q15 19 24 50q7 25 7 56v15q-6 91 -50 135q-43 43 -105 43q-61 0 -101 -34 q-41 -35 -41 -126q0 -24 4 -86q4 -65 7 -95t7 -95q3 -47 3 -86q0 -95 -6 -200t-6 -185v-50q5 -94 22 -165q17 -70 60 -146q5 -7 16 -11q12 -4 12 -20q0 -17 -11 -25q-16 -12 -29 -15q-18 -5 -38 -6q-14 -1 -36 -1h-29q-23 0 -44 8q-19 7 -30 37q-34 92 -48 171 q-13 77 -13 157z" />
<glyph unicode="&#xe0;" d="M20 276q0 119 14 234q13 108 44 196q30 85 80 135t118 50q43 0 63 -7q21 -8 40 -17q6 -3 19.5 -9t20.5 -10q22 -11 60 -17q43 -24 61 -58q17 -33 22 -73q4 -39 3 -80q-2 -45 4 -83q0 -2 10 -7q9 -4 21 -9q13 -5 22 -14t9 -24v-8q-20 -52 -25 -94q-4 -36 -4 -98 q0 -29 3 -63q3 -35 10 -63q8 -30 22 -49q15 -20 37 -20q24 0 44 25q19 23 33 56q13 29 22 64q10 36 11 50q4 24 21 24q11 0 19 -11q10 -13 10 -40v-15q0 -3 -1.5 -9.5t-1.5 -8.5q-5 -31 -20 -67q-17 -39 -42 -75q-28 -39 -59 -61q-34 -24 -75 -24q-61 0 -108 47 q-45 45 -56 133q-5 -13 -15.5 -40t-13.5 -36q-15 -39 -41 -80q-22 -35 -56 -62q-32 -26 -75 -26q-10 0 -18 2q-2 1 -6.5 3t-6.5 3q-9 4 -17 5q-12 2 -25 2q-49 0 -83 31t-55 81q-19 46 -29 108q-10 65 -10 109zM152 1135q4 5 4 18v8q0 51 13 78q14 29 28 29q8 0 35 -18 q34 -23 65 -45q37 -27 78 -60t75 -63t56 -53t22 -34l4 -45q0 -30 -22 -30q-14 0 -25 14q-10 13 -34 24q-30 17 -74 54q-45 38 -117 78l-42 21q-22 11 -42 17zM166 291q0 -33 3 -79q3 -42 11 -87q7 -38 24 -70q15 -28 40 -28q60 0 91 46q32 47 48 114q17 69 24 148 q3 31 7.5 83t5.5 61q5 36 18 44q15 9 15 14v18q0 26 -4 53q-5 32 -15 58q-11 28 -31 45q-21 18 -55 18q-57 0 -93 -52q-34 -50 -56 -123q-21 -71 -27 -145q-6 -75 -6 -118z" />
<glyph unicode="&#xe1;" d="M20 276q0 119 14 234q13 108 44 196q30 85 80 135t118 50q43 0 63 -7q21 -8 40 -17q6 -3 19.5 -9t20.5 -10q22 -11 60 -17q43 -24 61 -58q17 -33 22 -73q4 -39 3 -80q-2 -45 4 -83q0 -2 10 -7q9 -4 21 -9q13 -5 22 -14t9 -24v-8q-20 -52 -25 -94q-4 -36 -4 -98 q0 -29 3 -63q3 -35 10 -63q8 -30 22 -49q15 -20 37 -20q24 0 44 25q19 23 33 56q13 29 22 64q10 36 11 50q4 24 21 24q11 0 19 -11q10 -13 10 -40v-15q0 -3 -1.5 -9.5t-1.5 -8.5q-5 -31 -20 -67q-17 -39 -42 -75q-28 -39 -59 -61q-34 -24 -75 -24q-61 0 -108 47 q-45 45 -56 133q-5 -13 -15.5 -40t-13.5 -36q-15 -39 -41 -80q-22 -35 -56 -62q-32 -26 -75 -26q-10 0 -18 2q-2 1 -6.5 3t-6.5 3q-9 4 -17 5q-12 2 -25 2q-49 0 -83 31t-55 81q-19 46 -29 108q-10 65 -10 109zM150 961v24q0 18 4 26q4 9 22 25q60 56 92 82q50 40 93 75 q40 32 80 55q38 22 55 22q14 0 20 -13q6 -12 6 -69q0 -33 -7 -46q-8 -15 -20 -20q-10 -5 -32 -10q-24 -6 -43 -18l-170 -119q-12 -18 -31 -39q-21 -23 -33 -23q-5 0 -10 5q-6 12 -13 19l-8 8l-3 3l-1 2q-1 1 -1 11zM166 291q0 -33 3 -79q3 -42 11 -87q7 -38 24 -70 q15 -28 40 -28q60 0 91 46q32 47 48 114q17 69 24 148q3 31 7.5 83t5.5 61q5 36 18 44q15 9 15 14v18q0 26 -4 53q-5 32 -15 58q-11 28 -31 45q-21 18 -55 18q-57 0 -93 -52q-34 -50 -56 -123q-21 -71 -27 -145q-6 -75 -6 -118z" />
<glyph unicode="&#xe2;" d="M20 276q0 119 14 234q13 108 44 196q30 85 80 135t118 50q43 0 63 -7q21 -8 40 -17q6 -3 19.5 -9t20.5 -10q22 -11 60 -17q43 -24 61 -58q17 -33 22 -73q4 -39 3 -80q-2 -45 4 -83q0 -2 10 -7q9 -4 21 -9q13 -5 22 -14t9 -24v-8q-20 -52 -25 -94q-4 -36 -4 -98 q0 -29 3 -63q3 -35 10 -63q8 -30 22 -49q15 -20 37 -20q24 0 44 25q19 23 33 56q13 29 22 64q10 36 11 50q4 24 21 24q11 0 19 -11q10 -13 10 -40v-15q0 -3 -1.5 -9.5t-1.5 -8.5q-5 -31 -20 -67q-17 -39 -42 -75q-28 -39 -59 -61q-34 -24 -75 -24q-61 0 -108 47 q-45 45 -56 133q-5 -13 -15.5 -40t-13.5 -36q-15 -39 -41 -80q-22 -35 -56 -62q-32 -26 -75 -26q-10 0 -18 2q-2 1 -6.5 3t-6.5 3q-9 4 -17 5q-12 2 -25 2q-49 0 -83 31t-55 81q-19 46 -29 108q-10 65 -10 109zM72 958v5q0 6 2 14q1 5 12 16l35 39q14 14 60 52 q48 40 116 112q6 6 24 26q13 15 37 15t29 -4q6 -4 10 -14q3 -6 14 -27q10 -19 35 -41q74 -83 111 -120q49 -49 49 -77q0 -32 -24 -32q-19 0 -28 6q-8 5 -16 15q-5 6 -17 22q-9 12 -25 22l-101 66q-25 17 -29 29q-5 14 -12 14h-4q-8 0 -19 -9q-8 -7 -28 -20l-215 -149 q-4 0 -10 15t-6 25zM166 291q0 -33 3 -79q3 -42 11 -87q7 -38 24 -70q15 -28 40 -28q60 0 91 46q32 47 48 114q17 69 24 148q3 31 7.5 83t5.5 61q5 36 18 44q15 9 15 14v18q0 26 -4 53q-5 32 -15 58q-11 28 -31 45q-21 18 -55 18q-57 0 -93 -52q-34 -50 -56 -123 q-21 -71 -27 -145q-6 -75 -6 -118z" />
<glyph unicode="&#xe3;" d="M20 276q0 119 14 234q13 108 44 196q30 85 80 135t118 50q43 0 63 -7q21 -8 40 -17q6 -3 19.5 -9t20.5 -10q22 -11 60 -17q43 -24 61 -58q17 -33 22 -73q4 -39 3 -80q-2 -45 4 -83q0 -2 10 -7q9 -4 21 -9q13 -5 22 -14t9 -24v-8q-20 -52 -25 -94q-4 -36 -4 -98 q0 -29 3 -63q3 -35 10 -63q8 -30 22 -49q15 -20 37 -20q24 0 44 25q19 23 33 56q13 29 22 64q10 36 11 50q4 24 21 24q11 0 19 -11q10 -13 10 -40v-15q0 -3 -1.5 -9.5t-1.5 -8.5q-5 -31 -20 -67q-17 -39 -42 -75q-28 -39 -59 -61q-34 -24 -75 -24q-61 0 -108 47 q-45 45 -56 133q-5 -13 -15.5 -40t-13.5 -36q-15 -39 -41 -80q-22 -35 -56 -62q-32 -26 -75 -26q-10 0 -18 2q-2 1 -6.5 3t-6.5 3q-9 4 -17 5q-12 2 -25 2q-49 0 -83 31t-55 81q-19 46 -29 108q-10 65 -10 109zM72 1057q0 65 47 97t106 32q47 0 84 -18q48 -23 68 -36 q7 -5 18.5 -12.5t21 -13.5t17.5 -11q27 -18 53 -18q47 0 65 23q17 21 17 53q0 17 13 23q12 6 20 6q20 0 34 -20q13 -19 13 -54q0 -41 -17 -65q-19 -27 -43 -41q-23 -14 -53 -22q-25 -7 -51 -7q-41 0 -81 12t-80 49q-12 28 -38 39q-24 10 -48 10q-47 0 -68 -22 q-22 -23 -23 -55q-6 -6 -13 -7q-12 -2 -15 -2q-47 0 -47 60zM166 291q0 -33 3 -79q3 -42 11 -87q7 -38 24 -70q15 -28 40 -28q60 0 91 46q32 47 48 114q17 69 24 148q3 31 7.5 83t5.5 61q5 36 18 44q15 9 15 14v18q0 26 -4 53q-5 32 -15 58q-11 28 -31 45q-21 18 -55 18 q-57 0 -93 -52q-34 -50 -56 -123q-21 -71 -27 -145q-6 -75 -6 -118z" />
<glyph unicode="&#xe4;" d="M20 276q0 119 14 234q13 108 44 196q30 85 80 135t118 50q43 0 63 -7q21 -8 40 -17q6 -3 19.5 -9t20.5 -10q22 -11 60 -17q43 -24 61 -58q17 -33 22 -73q4 -39 3 -80q-2 -45 4 -83q0 -2 10 -7q9 -4 21 -9q13 -5 22 -14t9 -24v-8q-20 -52 -25 -94q-4 -36 -4 -98 q0 -29 3 -63q3 -35 10 -63q8 -30 22 -49q15 -20 37 -20q24 0 44 25q19 23 33 56q13 29 22 64q10 36 11 50q4 24 21 24q11 0 19 -11q10 -13 10 -40v-15q0 -3 -1.5 -9.5t-1.5 -8.5q-5 -31 -20 -67q-17 -39 -42 -75q-28 -39 -59 -61q-34 -24 -75 -24q-61 0 -108 47 q-45 45 -56 133q-5 -13 -15.5 -40t-13.5 -36q-15 -39 -41 -80q-22 -35 -56 -62q-32 -26 -75 -26q-10 0 -18 2q-2 1 -6.5 3t-6.5 3q-9 4 -17 5q-12 2 -25 2q-49 0 -83 31t-55 81q-19 46 -29 108q-10 65 -10 109zM31 1061q0 59 44 89q43 30 87 30q10 0 32 -10q17 -8 35 -24 q17 -15 29 -35q12 -19 12 -38q0 -12 -16 -25q-13 -11 -38 -25q-19 -11 -42 -19q-25 -9 -29 -9q-13 0 -31 7q-21 8 -38 18q-24 14 -32 21q-13 12 -13 20zM166 291q0 -33 3 -79q3 -42 11 -87q7 -38 24 -70q15 -28 40 -28q60 0 91 46q32 47 48 114q17 69 24 148q3 31 7.5 83 t5.5 61q5 36 18 44q15 9 15 14v18q0 26 -4 53q-5 32 -15 58q-11 28 -31 45q-21 18 -55 18q-57 0 -93 -52q-34 -50 -56 -123q-21 -71 -27 -145q-6 -75 -6 -118zM401 1077q0 25 15 43q17 20 35 32t43 20q24 8 38 8q11 0 31 -10q19 -10 35 -24q17 -15 29 -35q12 -19 12 -38 q0 -12 -16 -25q-13 -11 -38 -25q-19 -11 -42 -19q-25 -9 -29 -9q-15 0 -34 6t-37 18q-19 13 -29 25q-13 16 -13 33z" />
<glyph unicode="&#xe5;" d="M20 276q0 119 14 234q13 108 44 196q30 85 80 135t118 50q43 0 63 -7q21 -8 40 -17q6 -3 19.5 -9t20.5 -10q22 -11 60 -17q43 -24 61 -58q17 -33 22 -73q4 -39 3 -80q-2 -45 4 -83q0 -2 10 -7q9 -4 21 -9q13 -5 22 -14t9 -24v-8q-20 -52 -25 -94q-4 -36 -4 -98 q0 -29 3 -63q3 -35 10 -63q8 -30 22 -49q15 -20 37 -20q24 0 44 25q19 23 33 56q13 29 22 64q10 36 11 50q4 24 21 24q11 0 19 -11q10 -13 10 -40v-15q0 -3 -1.5 -9.5t-1.5 -8.5q-5 -31 -20 -67q-17 -39 -42 -75q-28 -39 -59 -61q-34 -24 -75 -24q-61 0 -108 47 q-45 45 -56 133q-5 -13 -15.5 -40t-13.5 -36q-15 -39 -41 -80q-22 -35 -56 -62q-32 -26 -75 -26q-10 0 -18 2q-2 1 -6.5 3t-6.5 3q-9 4 -17 5q-12 2 -25 2q-49 0 -83 31t-55 81q-19 46 -29 108q-10 65 -10 109zM166 291q0 -33 3 -79q3 -42 11 -87q7 -38 24 -70 q15 -28 40 -28q60 0 91 46q32 47 48 114q17 69 24 148q3 31 7.5 83t5.5 61q5 36 18 44q15 9 15 14v18q0 26 -4 53q-5 32 -15 58q-11 28 -31 45q-21 18 -55 18q-57 0 -93 -52q-34 -50 -56 -123q-21 -71 -27 -145q-6 -75 -6 -118zM184 1145q0 51 45 84q0 11 16 22q17 12 38 19 q22 7 47 12q21 4 45 4q25 0 55 -6q33 -7 57 -20q28 -15 45 -37q19 -24 19 -58q0 -56 -50 -97q-49 -40 -143 -40q-36 0 -74 6q-39 6 -67 33q-24 22 -28 36q-5 17 -5 42zM258 1124q0 -29 34 -41t64 -12q29 0 59 9q29 9 46 30q12 15 15 29q3 15 3 28q0 50 -59 54v-4 q0 -25 -35 -25l-45 8q-8 0 -24 -4t-25 -4q0 -1 -15 -16l-14 -15q-4 -5 -4 -18v-19z" />
<glyph unicode="&#xe6;" horiz-adv-x="997" d="M23 289q0 38 5 108q4 59 17 134q12 70 32 141q20 72 49 125q30 55 69 90q40 35 88 35q39 0 65 -7q24 -6 41 -15l40 -20q22 -12 63 -20q46 -27 64 -64q17 -36 22 -81q32 42 75 69t97 27q36 0 69 -15t58 -40q21 -21 38 -58q16 -34 17 -67l2 -29q0 -50 -16 -107 q-16 -56 -48 -109q-30 -50 -75 -84q-44 -34 -103 -34q-5 0 -25 2q-15 2 -30 6v-36v-23q1 -8 10 -41q6 -23 27 -52q18 -26 48 -45q31 -20 73 -20q59 0 97 24q40 26 62 60q25 40 38 83q16 56 22 89q6 29 12 39q6 11 21 11q30 0 30 -35v-15q0 -51 -18 -114q-18 -62 -58 -118 q-38 -53 -99 -91q-59 -37 -144 -37q-123 0 -189 60t-90 159q-13 -42 -28 -79q-16 -40 -41 -78q-23 -35 -58 -60q-34 -25 -76 -25q-10 0 -18 2q-2 1 -6.5 3t-6.5 3q-9 4 -18 5q-14 2 -26 2q-52 0 -86 34q-35 35 -56 84q-20 48 -28 110q-8 64 -8 114zM156 315q0 -4 2 -68 q1 -46 11 -95q9 -45 29 -84q19 -37 52 -37q42 0 73 43q31 44 54 123q19 65 32 143q6 36 21 158q4 34 20 45q15 11 15 14v18q0 29 -4 62q-5 39 -16 73q-12 37 -32 61q-21 26 -57 26q-54 0 -93 -54q-38 -53 -62 -128q-25 -78 -35 -157t-10 -143zM651 395q0 -17 3 -29t22 -12 h10q41 0 70 31q27 29 46 74q17 42 25 88q9 54 9 74v12q0 15 -10 35q-9 18 -33 18q-37 0 -64 -39q-25 -35 -44 -89q-19 -52 -26 -96q-8 -50 -8 -61v-6z" />
<glyph unicode="&#xe7;" horiz-adv-x="618" d="M39 334q0 82 21 172q21 91 87 164q54 63 135 104q76 39 156 39q42 0 71 -11q32 -12 36 -28q3 -16 5 -56q1 -23 1 -89q0 -49 -7 -70q-7 -22 -30 -22q-25 2 -35 25q-2 3 -20 51q-11 29 -27 52q-16 24 -53 25q-53 0 -88 -41t-54 -96t-27 -111q-7 -52 -7 -86q0 -118 36 -203 q36 -86 128 -94l22 -2q63 0 103 32q36 29 62 70q22 35 37 69q14 32 27 32h7q26 -1 26 -35q0 -15 -10 -41q-49 -116 -126 -169q-76 -52 -181 -52h-20q-5 0 -19 2q-50 6 -98 32t-82 72q-36 48 -56 112q-20 63 -20 153zM192 -305q0 14 12 26q13 13 32 13q15 0 25 -8 q6 -5 19 -18q8 -8 21 -16q11 -7 35 -7q9 0 37 2q21 1 39 9q20 8 30 21q13 16 13 41q0 28 -32 36q-31 8 -69 12q-33 4 -68 19q-32 14 -32 56q0 25 11 41q13 20 27 31q13 10 32 19q18 8 24 8l27 -17q0 -1 -1 -3t-2 -4.5t-1 -4.5q-2 -10 -2 -19q0 -10 7 -20t29 -14 q61 -12 97 -48q35 -35 35 -81q0 -90 -62 -131t-141 -41q-60 0 -101 24t-41 74z" />
<glyph unicode="&#xe8;" horiz-adv-x="555" d="M23 317q0 75 16 158q17 86 51 161q34 74 88 125q53 50 129 50q37 0 70 -15q31 -14 57 -40q23 -23 39 -58q14 -32 16 -67l3 -29q0 -47 -17 -107q-17 -59 -47 -109q-29 -48 -76 -84q-44 -34 -102 -34q-6 0 -26 2q-13 1 -29 6v-59q0 -14 9 -41q9 -26 27 -52q17 -24 49 -45 q31 -20 72 -20q60 0 98 24q40 26 62 60q25 40 38 83q14 48 21 89q5 26 13 39q6 11 20 11q31 0 31 -35v-15q0 -47 -19 -114q-18 -65 -57 -118q-38 -53 -99 -91q-59 -37 -145 -37q-79 0 -135 29t-91 77q-36 49 -51 116q-15 66 -15 140zM111 1094q4 5 4 18v8q0 51 13 78 q14 29 28 29q9 0 36 -18q20 -14 64 -45q38 -27 78 -60t75 -63q34 -30 56 -53t22 -34l5 -45q0 -30 -23 -30q-14 0 -25 14q-12 15 -34 25q-34 20 -74 53q-45 37 -117 78l-42 21q-22 11 -42 17zM209 395q0 -17 3 -29t21 -12h11q40 0 69 31q27 29 46 74q19 46 26 88q8 48 8 74 v12q0 17 -9 35t-34 18q-36 0 -63 -39q-25 -35 -44 -89q-19 -52 -26 -96q-8 -50 -8 -61v-6z" />
<glyph unicode="&#xe9;" horiz-adv-x="555" d="M23 317q0 75 16 158q17 86 51 161q34 74 88 125q53 50 129 50q37 0 70 -15q31 -14 57 -40q23 -23 39 -58q14 -32 16 -67l3 -29q0 -47 -17 -107q-17 -59 -47 -109q-29 -48 -76 -84q-44 -34 -102 -34q-6 0 -26 2q-13 1 -29 6v-59q0 -14 9 -41q9 -26 27 -52q17 -24 49 -45 q31 -20 72 -20q60 0 98 24q40 26 62 60q25 40 38 83q14 48 21 89q5 26 13 39q6 11 20 11q31 0 31 -35v-15q0 -47 -19 -114q-18 -65 -57 -118q-38 -53 -99 -91q-59 -37 -145 -37q-79 0 -135 29t-91 77q-36 49 -51 116q-15 66 -15 140zM109 920v24q0 18 4 26q4 9 22 25 q60 56 92 82q18 15 94 75q43 34 79 55q38 22 55 22q14 0 20 -12t6 -70q0 -33 -7 -46q-8 -15 -20 -20q-10 -5 -32 -10q-24 -6 -43 -18l-170 -119q-12 -18 -31 -39q-21 -23 -33 -23q-5 0 -10 5q-6 12 -13 19l-8 8q-1 1 -2 3l-2 2q-1 1 -1 11zM209 395q0 -17 3 -29t21 -12h11 q40 0 69 31q27 29 46 74q19 46 26 88q8 48 8 74v12q0 17 -9 35t-34 18q-36 0 -63 -39q-25 -35 -44 -89q-19 -52 -26 -96q-8 -50 -8 -61v-6z" />
<glyph unicode="&#xea;" horiz-adv-x="555" d="M23 317q0 75 16 158q17 86 51 161q34 74 88 125q53 50 129 50q37 0 70 -15q31 -14 57 -40q23 -23 39 -58q14 -32 16 -67l3 -29q0 -47 -17 -107q-17 -59 -47 -109q-29 -48 -76 -84q-44 -34 -102 -34q-6 0 -26 2q-13 1 -29 6v-59q0 -14 9 -41q9 -26 27 -52q17 -24 49 -45 q31 -20 72 -20q60 0 98 24q40 26 62 60q25 40 38 83q14 48 21 89q5 26 13 39q6 11 20 11q31 0 31 -35v-15q0 -47 -19 -114q-18 -65 -57 -118q-38 -53 -99 -91q-59 -37 -145 -37q-79 0 -135 29t-91 77q-36 49 -51 116q-15 66 -15 140zM51 911v4q0 7 2 15q1 4 13 16l34 39 q9 9 61 52q43 36 115 112q6 6 24 26q14 15 38 15t29 -4t10 -15q4 -10 13 -26q10 -17 36 -41q74 -83 111 -120q49 -49 49 -77q0 -32 -25 -32q-18 0 -27 6q-10 7 -17 15q-3 3 -8.5 11t-7.5 11q-8 10 -26 22l-100 66q-26 18 -30 29q-5 14 -11 14h-4q-9 0 -20 -9 q-12 -10 -27 -20l-215 -150q-5 0 -11 16q-6 15 -6 25zM209 395q0 -17 3 -29t21 -12h11q40 0 69 31q27 29 46 74q19 46 26 88q8 48 8 74v12q0 17 -9 35t-34 18q-36 0 -63 -39q-25 -35 -44 -89q-19 -52 -26 -96q-8 -50 -8 -61v-6z" />
<glyph unicode="&#xeb;" horiz-adv-x="555" d="M10 1020q0 59 44 89t87 30q10 0 32 -10q19 -9 36 -24t29 -35t12 -38q0 -11 -17 -25q-16 -13 -37 -25q-19 -11 -42 -19q-25 -9 -29 -9q-11 0 -32 8q-26 10 -38 17q-21 13 -31 21q-14 12 -14 20zM23 317q0 75 16 158q17 86 51 161q34 74 88 125q53 50 129 50q37 0 70 -15 q31 -14 57 -40q23 -23 39 -58q14 -32 16 -67l3 -29q0 -47 -17 -107q-17 -59 -47 -109q-29 -48 -76 -84q-44 -34 -102 -34q-6 0 -26 2q-13 1 -29 6v-59q0 -14 9 -41q9 -26 27 -52q17 -24 49 -45q31 -20 72 -20q60 0 98 24q40 26 62 60q25 40 38 83q14 48 21 89q5 26 13 39 q6 11 20 11q31 0 31 -35v-15q0 -47 -19 -114q-18 -65 -57 -118q-38 -53 -99 -91q-59 -37 -145 -37q-79 0 -135 29t-91 77q-36 49 -51 116q-15 66 -15 140zM209 395q0 -17 3 -29t21 -12h11q40 0 69 31q27 29 46 74q19 46 26 88q8 48 8 74v12q0 17 -9 35t-34 18q-36 0 -63 -39 q-25 -35 -44 -89q-19 -52 -26 -96q-8 -50 -8 -61v-6zM381 1036q0 26 14 43q17 20 35 32q22 14 43 21t39 7q11 0 31 -10q19 -10 35 -24q15 -13 28 -35q13 -21 13 -38q0 -11 -17 -25q-13 -11 -38 -25q-19 -11 -42 -19q-25 -9 -28 -9q-11 0 -34 7q-21 7 -37 17q-20 13 -30 26 q-12 15 -12 32z" />
<glyph unicode="&#xec;" horiz-adv-x="417" d="M-20 1094q4 5 4 18v8q0 51 13 78q14 29 28 29q8 0 35 -18q34 -23 65 -45q37 -27 78 -60t75 -63t56 -53t22 -34l4 -45q0 -30 -22 -30q-14 0 -25 14q-10 13 -34 24q-30 17 -74 54q-45 37 -117 78l-42 21q-22 11 -42 17zM45 723q0 9 10 13q14 6 23 7q16 2 23 2h12 q13 0 28 -1q26 -2 47 -7q26 -6 44 -19q20 -14 20 -38q2 -7 -7 -23q-11 -21 -18 -57q-1 -6 -2.5 -16t-1.5 -14t-1.5 -13.5t-2.5 -15.5q0 -2 -1.5 -16.5t-2.5 -23.5q0 -1 -1.5 -23.5l-2.5 -37.5v-123q0 -20 2 -66q2 -35 9 -62q8 -27 24 -45q16 -17 43 -17q38 0 61 23 q27 27 35 38q23 31 35 77q10 40 22 95l4 21q6 31 37 31t31 -43v-11l-4 -30q-6 -49 -23 -103t-46 -99q-30 -47 -74 -76q-45 -30 -111 -30q-51 0 -104 35q-54 39 -73 97q-20 62 -20 114q0 5 2 49t2 80v226q0 22 -1 34q-2 24 -5 35q-1 5 -7 19q-5 12 -5 14z" />
<glyph unicode="&#xed;" horiz-adv-x="417" d="M-18 920v24q0 18 4 26q4 9 22 25q60 56 92 82q18 15 94 75q43 34 79 55q38 22 55 22q14 0 20 -12t6 -70q0 -33 -7 -46q-8 -15 -20 -20q-10 -5 -32 -10q-24 -6 -43 -18l-170 -119q-12 -18 -31 -39q-21 -23 -33 -23q-5 0 -10 5q-6 12 -13 19l-8 8l-3 3l-1 2q-1 1 -1 11z M45 723q0 9 10 13q14 6 23 7q16 2 23 2h12q13 0 28 -1q26 -2 47 -7q26 -6 44 -19q20 -14 20 -38q2 -7 -7 -23q-11 -21 -18 -57q-1 -6 -2.5 -16t-1.5 -14t-1.5 -13.5t-2.5 -15.5q0 -2 -1.5 -16.5t-2.5 -23.5q0 -1 -1.5 -23.5l-2.5 -37.5v-123q0 -20 2 -66q2 -35 9 -62 q8 -27 24 -45q16 -17 43 -17q38 0 61 23q27 27 35 38q23 31 35 77q10 40 22 95l4 21q6 31 37 31t31 -43v-11l-4 -30q-6 -49 -23 -103t-46 -99q-30 -47 -74 -76q-45 -30 -111 -30q-51 0 -104 35q-54 39 -73 97q-20 62 -20 114q0 5 2 49t2 80v226q0 22 -1 34q-2 24 -5 35 q-1 5 -7 19q-5 12 -5 14z" />
<glyph unicode="&#xee;" horiz-adv-x="417" d="M-109 911v4q0 3 3 15q1 5 12 16l35 39q14 14 60 52q48 40 116 112q4 4 12 13.5t11 12.5q13 15 38 15q24 0 29 -4t10 -15q4 -10 13 -26q10 -17 36 -41q74 -83 111 -120q49 -49 49 -77q0 -33 -25 -33q-17 0 -27 7t-17 15q-3 3 -16 21q-9 12 -26 23l-100 66q-26 18 -30 29 q-5 14 -11 14h-4q-8 0 -19 -9q-8 -7 -28 -20l-215 -150q-4 0 -10 16q-7 18 -7 25zM45 723q0 9 10 13q14 6 23 7q16 2 23 2h12q13 0 28 -1q26 -2 47 -7q26 -6 44 -19q20 -14 20 -38q2 -7 -7 -23q-11 -21 -18 -57q-1 -6 -2.5 -16t-1.5 -14t-1.5 -13.5t-2.5 -15.5 q0 -2 -1.5 -16.5t-2.5 -23.5q0 -1 -1.5 -23.5l-2.5 -37.5v-123q0 -20 2 -66q2 -35 9 -62q8 -27 24 -45q16 -17 43 -17q38 0 61 23q27 27 35 38q23 31 35 77q10 40 22 95l4 21q6 31 37 31t31 -43v-11l-4 -30q-6 -49 -23 -103t-46 -99q-30 -47 -74 -76q-45 -30 -111 -30 q-51 0 -104 35q-54 39 -73 97q-20 62 -20 114q0 5 2 49t2 80v226q0 22 -1 34q-2 24 -5 35q-1 5 -7 19q-5 12 -5 14z" />
<glyph unicode="&#xef;" horiz-adv-x="417" d="M-139 1020q0 59 44 89q43 30 87 30q10 0 32 -10q17 -8 35 -24q17 -15 29 -35t12 -38q0 -12 -16 -25q-13 -11 -38 -25q-19 -11 -42 -19q-25 -9 -29 -9q-10 0 -31 8q-26 10 -38 17q-24 14 -32 21q-13 12 -13 20zM45 723q0 9 10 13q14 6 23 7q16 2 23 2h12q13 0 28 -1 q26 -2 47 -7q26 -6 44 -19q20 -14 20 -38q2 -7 -7 -23q-11 -21 -18 -57q-1 -6 -2.5 -16t-1.5 -14t-1.5 -13.5t-2.5 -15.5q0 -2 -1.5 -16.5t-2.5 -23.5q0 -1 -1.5 -23.5l-2.5 -37.5v-123q0 -20 2 -66q2 -35 9 -62q8 -27 24 -45q16 -17 43 -17q38 0 61 23q27 27 35 38 q23 31 35 77q10 40 22 95l4 21q6 31 37 31t31 -43v-11l-4 -30q-6 -49 -23 -103t-46 -99q-30 -47 -74 -76q-45 -30 -111 -30q-51 0 -104 35q-54 39 -73 97q-20 62 -20 114q0 5 2 49t2 80v226q0 22 -1 34q-2 24 -5 35q-1 5 -7 19q-5 12 -5 14zM231 1036q0 25 15 43 q17 20 35 32q22 14 43 21t38 7q11 0 31 -10q19 -10 35 -24q17 -15 29 -35t12 -38q0 -12 -16 -25q-13 -11 -38 -25q-19 -11 -42 -19q-25 -9 -29 -9q-11 0 -34 7q-21 7 -37 17q-18 12 -29 26q-13 16 -13 32z" />
<glyph unicode="&#xf0;" horiz-adv-x="862" d="M33 328q0 44 4 85q5 53 18 94q15 49 43 94q27 44 76 85q4 4 12 14q9 11 16 17q14 11 22 16q15 9 38 10q23 0 46 -5q21 -4 39 -18q17 -13 29 -37q12 -23 13 -62q-67 -44 -108 -91q-39 -45 -57 -88q-17 -41 -20 -85q-3 -42 -3 -83q0 -35 11 -68q13 -38 35 -66 q24 -30 60 -49q37 -19 86 -19q61 0 104 56q44 58 72 144t43 195q15 107 15 205q0 70 -6 159q-6 87 -29 175q-55 -19 -94 -35q-20 -8 -58 -23t-44 -17q-46 -18 -94 -33q-42 -13 -75 -13q-22 0 -36 10t-25 45q0 11 8 24q6 9 31 21l356 127q-18 51 -43 94q-29 50 -65 86 q-40 40 -89 64t-114 24q-47 -5 -64 -25t-27 -46q-6 -15 -19 -44q-9 -20 -38 -20q-28 0 -40 20q-11 18 -11 44q0 67 71 111t181 44q77 0 137 -23q65 -25 116 -64t92 -94q39 -52 67 -116l180 68q6 2 16 2q23 0 39 -20q17 -22 17 -44t-37 -38l-180 -68q10 -39 18 -94 q9 -64 14 -109q8 -75 10 -108q3 -52 3 -97q0 -136 -23 -265q-23 -128 -67 -222q-44 -95 -112 -153q-65 -56 -157 -56q-95 0 -171 29q-74 28 -127 78q-52 49 -79 115q-26 64 -26 143z" />
<glyph unicode="&#xf1;" horiz-adv-x="624" d="M12 1016q0 65 47 97t107 32q46 0 84 -18q44 -21 67 -36q9 -6 28.5 -18t29.5 -19q27 -18 53 -18q47 0 65 23q17 21 17 53q0 17 12 23t21 6q20 0 34 -20q13 -19 13 -54q0 -39 -18 -65q-18 -25 -43 -40q-27 -16 -53 -23q-25 -7 -50 -7q-40 0 -81 12t-81 49q-12 28 -38 39 q-24 10 -48 10q-46 0 -67 -22q-22 -23 -23 -55q-6 -6 -13 -7q-12 -2 -16 -2q-47 0 -47 60zM23 158l26 608q0 27 29 27q10 0 28 -3q10 -2 39 -10q19 -5 35 -15q15 -9 15 -22v-415q2 2 6 16q5 14 17 45t18 46q22 57 45 104q22 46 52 84q27 34 56 34q38 0 56 -17q20 -19 30 -44 q11 -27 12 -57q2 -40 2 -60q0 -26 -4 -67t-4 -142q0 -50 11 -96q10 -43 40 -43q23 0 41 21q20 24 34 51q16 32 26 65q10 34 12 66q1 39 31 39q18 0 24 -13q7 -14 7 -28v-4q-1 -37 -16 -92q-14 -53 -39 -97q-26 -47 -66 -76q-40 -30 -101 -30q-91 0 -117 66q-26 67 -26 198 l4 149q-32 -46 -50 -95q-19 -52 -34 -108q-13 -49 -23 -113q-7 -42 -20 -107q-5 -12 -32 -17q-24 -4 -40 -4q-39 0 -60 4q-24 4 -36 20q-12 15 -18 47q-5 26 -10 85z" />
<glyph unicode="&#xf2;" horiz-adv-x="669" d="M18 324q0 67 16 149q14 71 38 145q23 70 51 125q30 58 55 86q26 28 60 40q33 12 59 12q31 0 65 -17t64 -41q28 -22 60 -56q22 -23 57 -62q19 -20 30 -73t17 -102q5 -29 6 -61q2 -44 2 -68q29 23 49 53q16 24 30 52q6 11 18 46q7 20 16 34q7 14 28 14q11 0 15 -12 q4 -11 4 -21q-1 -61 -28 -113q-26 -50 -54 -87q-18 -24 -36 -41q-26 -24 -40 -35q-2 -35 -3 -48q-2 -16 -3 -22q-5 -33 -21 -78q-17 -49 -46 -92q-32 -48 -71 -77q-41 -31 -98 -31q-21 0 -42 4q-32 6 -48 11q-32 10 -47 16q-20 8 -39 20q-52 29 -84 67q-31 36 -50 83 q-17 40 -23 90q-7 54 -7 90zM154 1094q4 5 4 18v8q0 51 13 78q14 29 28 29q8 0 35 -18q34 -23 65 -45q37 -27 78 -60t75 -63t56 -53t22 -34l5 -45q0 -30 -23 -30q-14 0 -25 14q-10 13 -34 24q-30 17 -74 54q-45 37 -117 78l-42 21q-22 11 -42 17zM178 207q0 -23 6 -47 q6 -23 20 -45q13 -20 38 -34q23 -13 61 -13q47 0 77 17q33 19 51 44q20 28 29 57q9 30 9 56q-26 -18 -68 -25q-46 -8 -71 -8q-53 0 -85 8q-27 7 -65 33zM199 481q0 -84 32 -120q33 -37 113 -37q60 0 97 18q38 18 38 29v39q0 17 -1 36l-4 68q-3 44 -10 81q-8 43 -21 77 q-14 37 -33 58q-21 24 -52 24q-29 0 -59 -25q-29 -24 -51 -63q-23 -39 -36 -88q-13 -48 -13 -97z" />
<glyph unicode="&#xf3;" horiz-adv-x="669" d="M18 324q0 67 16 149q14 71 38 145q23 70 51 125q30 58 55 86q26 28 60 40q33 12 59 12q31 0 65 -17t64 -41q28 -22 60 -56q22 -23 57 -62q19 -20 30 -73t17 -102q5 -29 6 -61q2 -44 2 -68q29 23 49 53q16 24 30 52q6 11 18 46q7 20 16 34q7 14 28 14q11 0 15 -12 q4 -11 4 -21q-1 -61 -28 -113q-26 -50 -54 -87q-18 -24 -36 -41q-26 -24 -40 -35q-2 -35 -3 -48q-2 -16 -3 -22q-5 -33 -21 -78q-17 -49 -46 -92q-32 -48 -71 -77q-41 -31 -98 -31q-21 0 -42 4q-32 6 -48 11q-32 10 -47 16q-20 8 -39 20q-52 29 -84 67q-31 36 -50 83 q-17 40 -23 90q-7 54 -7 90zM135 920v24q0 18 4 26q4 7 23 25q60 56 92 82q50 41 93 75q40 32 80 55q38 22 54 22q15 0 21 -12t6 -70q0 -33 -7 -46q-8 -14 -21 -20q-12 -5 -31 -10q-25 -6 -44 -18l-169 -119q-12 -18 -31 -39q-21 -23 -33 -23q-5 0 -10 5q-5 10 -14 19l-8 8 q-1 1 -2 3l-2 2q-1 1 -1 11zM178 207q0 -23 6 -47q6 -23 20 -45q13 -20 38 -34q23 -13 61 -13q47 0 77 17q33 19 51 44q20 28 29 57q9 30 9 56q-26 -18 -68 -25q-46 -8 -71 -8q-53 0 -85 8q-27 7 -65 33zM199 481q0 -84 32 -120q33 -37 113 -37q60 0 97 18q38 18 38 29v39 q0 17 -1 36l-4 68q-3 44 -10 81q-8 43 -21 77q-14 37 -33 58q-21 24 -52 24q-29 0 -59 -25q-29 -24 -51 -63q-23 -39 -36 -88q-13 -48 -13 -97z" />
<glyph unicode="&#xf4;" horiz-adv-x="669" d="M18 324q0 67 16 149q14 71 38 145q23 70 51 125q30 58 55 86q26 28 60 40q33 12 59 12q31 0 65 -17t64 -41q28 -22 60 -56q22 -23 57 -62q19 -20 30 -73t17 -102q5 -29 6 -61q2 -44 2 -68q29 23 49 53q16 24 30 52q6 11 18 46q7 20 16 34q7 14 28 14q11 0 15 -12 q4 -11 4 -21q-1 -61 -28 -113q-26 -50 -54 -87q-18 -24 -36 -41q-26 -24 -40 -35q-2 -35 -3 -48q-2 -16 -3 -22q-5 -33 -21 -78q-17 -49 -46 -92q-32 -48 -71 -77q-41 -31 -98 -31q-21 0 -42 4q-32 6 -48 11q-32 10 -47 16q-20 8 -39 20q-52 29 -84 67q-31 36 -50 83 q-17 40 -23 90q-7 54 -7 90zM51 911v4q0 7 2 15q1 4 13 16l34 39q9 9 61 52q43 36 115 112q6 6 24 26q14 15 38 15t29 -4t10 -15q4 -10 13 -26q10 -17 36 -41q74 -83 111 -120q49 -49 49 -77q0 -33 -25 -33q-17 0 -28 7q-8 5 -16 15q-3 3 -16 21q-9 12 -26 23l-100 66 q-26 18 -30 29q-5 14 -11 14h-4q-9 0 -20 -9q-12 -10 -27 -20l-215 -150q-5 0 -11 16q-6 15 -6 25zM178 207q0 -23 6 -47q6 -23 20 -45q13 -20 38 -34q23 -13 61 -13q47 0 77 17q33 19 51 44q20 28 29 57q9 30 9 56q-26 -18 -68 -25q-46 -8 -71 -8q-53 0 -85 8q-27 7 -65 33 zM199 481q0 -84 32 -120q33 -37 113 -37q60 0 97 18q38 18 38 29v39q0 17 -1 36l-4 68q-3 44 -10 81q-8 43 -21 77q-14 37 -33 58q-21 24 -52 24q-29 0 -59 -25q-29 -24 -51 -63q-23 -39 -36 -88q-13 -48 -13 -97z" />
<glyph unicode="&#xf5;" horiz-adv-x="669" d="M18 324q0 67 16 149q14 71 38 145q23 70 51 125q30 58 55 86q26 28 60 40q33 12 59 12q31 0 65 -17t64 -41q28 -22 60 -56q22 -23 57 -62q19 -20 30 -73t17 -102q5 -29 6 -61q2 -44 2 -68q29 23 49 53q16 24 30 52q6 11 18 46q7 20 16 34q7 14 28 14q11 0 15 -12 q4 -11 4 -21q-1 -61 -28 -113q-26 -50 -54 -87q-18 -24 -36 -41q-26 -24 -40 -35q-2 -35 -3 -48q-2 -16 -3 -22q-5 -33 -21 -78q-17 -49 -46 -92q-32 -48 -71 -77q-41 -31 -98 -31q-21 0 -42 4q-32 6 -48 11q-32 10 -47 16q-20 8 -39 20q-52 29 -84 67q-31 36 -50 83 q-17 40 -23 90q-7 54 -7 90zM51 1016q0 65 47 97t107 32q47 0 84 -18q44 -21 67 -36q9 -6 28.5 -18t29.5 -19q27 -18 53 -18q46 0 64 23t18 53q0 17 12 23t21 6q19 0 33 -20t14 -54q0 -39 -18 -65q-18 -25 -43 -40q-27 -16 -53 -23q-25 -7 -50 -7q-41 0 -81 12 q-41 12 -81 49q-12 28 -38 39q-24 10 -48 10q-47 0 -68 -22q-20 -22 -22 -55q-6 -6 -13 -7q-12 -2 -16 -2q-47 0 -47 60zM178 207q0 -23 6 -47q6 -23 20 -45q13 -20 38 -34q23 -13 61 -13q47 0 77 17q33 19 51 44q20 28 29 57q9 30 9 56q-26 -18 -68 -25q-46 -8 -71 -8 q-53 0 -85 8q-27 7 -65 33zM199 481q0 -84 32 -120q33 -37 113 -37q60 0 97 18q38 18 38 29v39q0 17 -1 36l-4 68q-3 44 -10 81q-8 43 -21 77q-14 37 -33 58q-21 24 -52 24q-29 0 -59 -25q-29 -24 -51 -63q-23 -39 -36 -88q-13 -48 -13 -97z" />
<glyph unicode="&#xf6;" horiz-adv-x="669" d="M10 1020q0 59 44 89t87 30q10 0 32 -10q19 -9 36 -24t29 -35t12 -38q0 -11 -17 -25q-16 -13 -37 -25q-19 -11 -42 -19q-25 -9 -29 -9q-11 0 -32 8q-26 10 -38 17q-21 13 -31 21q-14 12 -14 20zM18 324q0 67 16 149q14 71 38 145q23 70 51 125q30 58 55 86q26 28 60 40 q33 12 59 12q31 0 65 -17t64 -41q28 -22 60 -56q22 -23 57 -62q19 -20 30 -73t17 -102q5 -29 6 -61q2 -44 2 -68q29 23 49 53q16 24 30 52q6 11 18 46q7 20 16 34q7 14 28 14q11 0 15 -12q4 -11 4 -21q-1 -61 -28 -113q-26 -50 -54 -87q-18 -24 -36 -41q-26 -24 -40 -35 q-2 -35 -3 -48q-2 -16 -3 -22q-5 -33 -21 -78q-17 -49 -46 -92q-32 -48 -71 -77q-41 -31 -98 -31q-21 0 -42 4q-32 6 -48 11q-32 10 -47 16q-20 8 -39 20q-52 29 -84 67q-31 36 -50 83q-17 40 -23 90q-7 54 -7 90zM178 207q0 -23 6 -47q6 -23 20 -45q13 -20 38 -34 q23 -13 61 -13q47 0 77 17q33 19 51 44q20 28 29 57q9 30 9 56q-26 -18 -68 -25q-46 -8 -71 -8q-53 0 -85 8q-27 7 -65 33zM199 481q0 -84 32 -120q33 -37 113 -37q60 0 97 18q38 18 38 29v39q0 17 -1 36l-4 68q-3 44 -10 81q-8 43 -21 77q-14 37 -33 58q-21 24 -52 24 q-29 0 -59 -25q-29 -24 -51 -63q-23 -39 -36 -88q-13 -48 -13 -97zM381 1036q0 26 14 43q17 20 35 32q22 14 43 21t39 7q11 0 31 -10q19 -10 35 -24q15 -13 28 -35q12 -20 12 -38q0 -12 -16 -25q-13 -11 -38 -25q-19 -11 -42 -19q-25 -9 -28 -9q-11 0 -34 7q-21 7 -37 17 q-20 13 -30 26q-12 15 -12 32z" />
<glyph unicode="&#xf8;" horiz-adv-x="761" d="M-31 -190q0 8 2 16q35 66 72 129q46 77 78 127q-27 50 -40 120q-11 60 -11 126q0 44 7 108q9 79 27 146q20 74 57 146q37 73 91 112q6 5 19 23q14 20 32 26q5 0 21 2q3 0 5.5 0.5t4.5 1t3.5 0.5h2.5q33 -4 72 -26q32 -18 65 -44q20 -16 38 -19t36 -26l12 -16q22 38 34 58 q6 10 18 30.5t18 30.5q1 2 21 38t31 56q27 51 65 92q20 10 49 10q33 0 57 -15q25 -16 25 -42q0 -9 -9 -27q-18 -17 -24 -28q-6 -12 -19 -27q-49 -61 -106 -138q-34 -46 -100 -138q28 -60 40 -126q11 -59 11 -128v-24q0 -8 -2 -24q-1 -37 -14 -110q-13 -74 -38 -137 q-27 -66 -75 -118q-47 -50 -125 -50h-10q-11 1 -35 8q-28 8 -43 13q-30 10 -44 14q-24 7 -36 8q-12 4 -23 6q-9 1 -20 6q-23 -44 -49 -109q-30 -74 -45 -112q-8 -18 -26 -26q-17 -7 -34 -7q-31 0 -58 18q-28 19 -28 46zM233 315q0 -14 1 -24q2 -20 2 -31q66 95 116 163 q61 83 113 167q13 24 25 43q18 28 26 43q-29 84 -100 84q-16 0 -24 -5q-3 -2 -13 -14q-5 -7 -12 -20q-6 -12 -23 -29q-32 -29 -54 -84q-23 -57 -34 -110q-13 -60 -17 -108q-6 -66 -6 -75zM268 125q19 -32 42 -49q25 -19 63 -19q52 0 83 39q32 39 48 94q15 50 23 115 q9 72 10 98q0 24 1 38t1 48v28q0 8 -2 28q-46 -62 -67 -91q-24 -33 -62 -92q-55 -84 -75 -118q-41 -68 -65 -119z" />
<glyph unicode="&#xf9;" d="M53 264v494l5 20q2 6 18 6q13 0 36 -4q34 -6 52 -11q29 -8 48 -19q21 -12 21 -29v-363q0 -52 1 -82q1 -33 7 -82q4 -37 17 -64q12 -26 35 -26q59 0 92 120q32 118 37 378q0 15 -8 33t-8 39q4 16 33 20q27 4 55 4q62 0 90 -12t28 -74q-7 -56 -7 -58q-2 -13 -4 -39 q-1 -6 -1.5 -18.5t-0.5 -18.5q-1 -13 -1 -56q0 -53 4 -98q5 -58 14 -95q10 -41 26 -70q16 -28 40 -28q23 0 35 13q10 12 22 30q11 16 21 30q10 13 28 13t25 -11q8 -13 8 -22q0 -39 -19 -65q-18 -26 -47 -43q-26 -16 -57 -24q-27 -7 -47 -7q-33 0 -59 8q-23 7 -49 25l-19 16 q-40 40 -67 125q-8 -15 -16 -53q-9 -43 -27 -85q-18 -44 -48 -80t-75 -36q-131 0 -180 76q-51 78 -58 223zM129 1094q4 5 4 18v8q0 51 13 78q14 29 28 29q9 0 36 -18q20 -14 64 -45q38 -27 78 -60t75 -63q34 -30 56 -53q23 -25 23 -34l4 -45q0 -30 -23 -30q-13 0 -24 14 t-35 25q-34 20 -74 53q-47 39 -116 78l-42 21q-22 11 -42 17z" />
<glyph unicode="&#xfa;" d="M53 264v494l5 20q2 6 18 6q13 0 36 -4q34 -6 52 -11q29 -8 48 -19q21 -12 21 -29v-363q0 -52 1 -82q1 -33 7 -82q4 -37 17 -64q12 -26 35 -26q59 0 92 120q32 118 37 378q0 15 -8 33t-8 39q4 16 33 20q27 4 55 4q62 0 90 -12t28 -74q-7 -56 -7 -58q-2 -13 -4 -39 q-1 -6 -1.5 -18.5t-0.5 -18.5q-1 -13 -1 -56q0 -53 4 -98q5 -58 14 -95q10 -41 26 -70q16 -28 40 -28q23 0 35 13q10 12 22 30q11 16 21 30q10 13 28 13t25 -11q8 -13 8 -22q0 -39 -19 -65q-18 -26 -47 -43q-26 -16 -57 -24q-27 -7 -47 -7q-33 0 -59 8q-23 7 -49 25l-19 16 q-40 40 -67 125q-8 -15 -16 -53q-9 -43 -27 -85q-18 -44 -48 -80t-75 -36q-131 0 -180 76q-51 78 -58 223zM127 920v24q0 18 4 26q4 7 23 25q60 56 92 82q50 41 93 75q40 32 80 55q38 22 54 22q15 0 21 -12t6 -70q0 -33 -7 -46q-8 -14 -21 -20q-10 -5 -32 -10 q-24 -6 -43 -18l-170 -119q-14 -22 -30 -39q-21 -23 -33 -23q-5 0 -10 5q-5 10 -14 19l-8 8q-1 1 -2 3l-2 2q-1 1 -1 11z" />
<glyph unicode="&#xfb;" horiz-adv-x="747" d="M53 911v4q0 7 2 15q1 4 13 16l34 39q9 9 61 52q48 40 116 112q4 4 12 13.5t11 12.5q13 15 38 15q24 0 29 -4t10 -15q4 -10 13 -26q10 -17 36 -41q74 -83 111 -120q49 -49 49 -77q0 -33 -25 -33q-17 0 -27 7t-17 15q-3 3 -8.5 11t-7.5 11q-8 10 -26 22l-100 66 q-26 18 -30 29q-5 14 -11 14h-4q-9 0 -20 -9q-12 -10 -27 -20l-215 -150q-5 0 -11 16q-6 15 -6 25zM61 264v494q1 4 2.5 8.5t2.5 7t1 4.5q1 6 17 6q13 0 36 -4q34 -6 52 -11q29 -8 48 -19q22 -13 22 -29v-363q0 -52 1 -82q1 -44 6 -82q4 -37 17 -64q12 -26 35 -26 q59 0 92 120q32 118 37 378q0 15 -8 33t-8 39q4 16 33 20q27 4 55 4q62 0 90 -12q29 -12 29 -74q-1 -13 -8 -58q-2 -13 -4 -39q-1 -6 -1.5 -18.5t-0.5 -18.5q-1 -13 -1 -56q0 -53 4 -98q5 -52 15 -95q11 -44 25 -70q16 -28 40 -28q23 0 35 13q14 15 23 30q15 24 20 30 q10 13 29 13q17 0 24 -11q8 -13 8 -22q0 -39 -19 -65q-18 -26 -47 -43q-27 -16 -56 -24q-27 -7 -48 -7q-33 0 -59 8q-23 7 -49 25l-19 16q-40 40 -67 125q-6 -12 -15 -53q-8 -37 -28 -85q-18 -44 -48 -80t-75 -36q-131 0 -180 76q-51 78 -58 223z" />
<glyph unicode="&#xfc;" horiz-adv-x="763" d="M53 1020q0 59 44 89q43 30 87 30q10 0 32 -10q20 -9 36 -24q17 -15 29 -35t12 -38q0 -11 -17 -25q-16 -13 -37 -25q-19 -11 -42 -19q-25 -9 -29 -9q-11 0 -32 8q-26 10 -38 17q-21 13 -31 21q-14 12 -14 20zM78 264v494l2 8t2 7.5t1 4.5q1 6 17 6q13 0 36 -4 q34 -6 52 -11q31 -9 49 -19q21 -12 21 -29v-363q0 -52 1 -82q1 -44 6 -82q4 -35 18 -64q12 -26 34 -26q60 0 93 120q31 114 36 378q0 15 -8 33t-8 39q4 16 34 20q27 4 54 4q62 0 90 -12q29 -12 29 -74q-7 -56 -7 -58q-2 -13 -4 -39q-1 -6 -1.5 -18.5t-0.5 -18.5 q-1 -13 -1 -56q0 -53 4 -98q5 -58 14 -95q10 -41 26 -70q16 -28 40 -28q22 0 34 13q14 15 23 30q15 24 20 30q10 13 29 13q18 0 25 -11q8 -13 8 -22q0 -37 -20 -65q-18 -26 -47 -43q-27 -16 -56 -24q-27 -7 -47 -7q-34 0 -60 8q-23 7 -49 25l-18 16q-41 41 -68 125 q-6 -12 -15 -53q-8 -37 -28 -85q-18 -44 -48 -80t-75 -36q-131 0 -180 76q-50 77 -57 223zM424 1036q0 26 14 43q17 20 35 32q22 14 43 21t39 7q11 0 31 -10q19 -10 35 -24q15 -13 28 -35q13 -21 13 -38q0 -11 -17 -25q-13 -11 -38 -25q-19 -11 -42 -19q-25 -9 -28 -9 q-11 0 -34 7q-21 7 -37 17q-20 13 -30 26q-12 15 -12 32z" />
<glyph unicode="&#xfd;" horiz-adv-x="663" d="M27 360q0 51 2 167q1 76 10 161q8 74 24 122t43 48q12 0 33 -4q27 -5 51 -13t48 -25q20 -14 20 -38q0 -6 -5 -9q-6 -4 -9 -7q-12 -8 -23 -32q-9 -21 -17 -67q-6 -34 -11 -115q-5 -78 -5 -173q0 -153 12 -219t46 -66q36 0 66 55q32 59 55 146q23 88 45 205q19 102 37 231 q12 0 46 -2q22 -1 49 -8q20 -5 40 -16q16 -9 16 -25q0 -10 -12 -14v-607q22 -1 43 -9q20 -7 20 -34q0 -16 -8 -22q-8 -7 -18 -8q-3 0 -10.5 -1.5t-11.5 -2.5q-11 -1 -15 -7v-325q0 -54 -1 -85q-1 -46 -9 -91q-7 -43 -26 -84q-19 -42 -50 -64q-1 -1 -14 -9q-4 -2 -7.5 -4.5 t-8.5 -6t-8 -5.5q-4 -2 -13 -8.5t-13 -9.5q-2 -2 -5 -3.5t-5 -3t-3.5 -2.5t-2.5 -1q-26 -17 -46 -43q-19 -25 -44 -25q-13 0 -16 1q-2 0 -5.5 1t-4.5 2q-1 0 -6 2t-8 3q-15 5 -26 8q-92 18 -128 54t-36 116q0 78 25 170q23 84 68 170q45 85 102 152q60 70 129 120v262 q-16 -59 -25 -90q-17 -57 -35 -96q-20 -44 -51 -76q-29 -31 -67 -31q-34 0 -76 25q-36 21 -74 49q-24 21 -39 65q-12 36 -21 93q-8 50 -9 94q-2 60 -2 65zM215 -571q0 -18 1 -34q1 -23 9 -46q6 -19 24 -40q15 -18 46 -18q45 0 71 49q24 45 38 112q14 64 18 129q4 57 4 95v9 v227q-49 -39 -88 -100q-42 -66 -67 -130q-27 -68 -42 -137q-14 -63 -14 -116zM215 940v25q0 17 4 25q5 9 23 26q60 56 92 82q10 8 93 74q44 35 80 56t54 21q15 0 21 -12t6 -70q0 -33 -7 -46t-21 -19q-10 -5 -32 -10q-21 -5 -43 -19l-170 -119q-14 -22 -30 -39 q-21 -22 -33 -22q-6 0 -10 4q-5 10 -14 19l-8 9q-1 1 -2 3l-2 2q-1 1 -1 10z" />
<glyph unicode="&#xfe;" horiz-adv-x="638" d="M35 1192q0 4 11 10q16 8 26 12q2 1 12 5l15 6q12 4 16 4q34 0 54 -23q19 -22 19 -88v-612q11 27 24 76q12 46 33 93q20 44 56 80q33 33 90 33q65 0 106 -44q39 -42 62 -106q24 -67 31 -133q8 -75 8 -126v-19q0 -88 -13 -162t-41 -133q-26 -55 -73 -91q-43 -33 -106 -33 q-56 0 -95 21t-39 75q0 22 16 35q15 12 27 12q16 0 24 -9q4 -4 14 -21q5 -8 17 -20q9 -9 29 -9q36 0 55 32q18 31 29 82q11 52 14 107q3 57 3 106v94q0 15 -2 71q-1 30 -11 80q-8 39 -25 65t-46 26q-43 0 -75 -63q-31 -61 -52 -162q-21 -100 -30 -215q-9 -117 -9 -223v-183 q1 -16 2.5 -40.5t1.5 -30.5q1 -24 5 -58q2 -18 8 -52q2 -10 7 -30l7 -28t15 -12t13 -19q0 -18 -11 -26q-13 -10 -29 -14q-18 -5 -38 -6q-14 -1 -36 -1h-29q-27 0 -49 7q-25 8 -25 38v1528q0 39 -8 65q-1 3 -2.5 8.5t-1.5 7.5q-1 3 -2.5 7t-1.5 6z" />
<glyph unicode="&#xff;" horiz-adv-x="663" d="M27 360q0 51 2 167q1 76 10 161q8 74 24 122t43 48q12 0 33 -4q27 -5 51 -13t48 -25q20 -14 20 -38q0 -6 -5 -9q-6 -4 -9 -7q-12 -8 -23 -32q-9 -21 -17 -67q-6 -34 -11 -115q-5 -78 -5 -173q0 -153 12 -219t46 -66q36 0 66 55q32 59 55 146q23 88 45 205q19 102 37 231 q12 0 46 -2q22 -1 49 -8q20 -5 40 -16q16 -9 16 -25q0 -10 -12 -14v-607q22 -1 43 -9q20 -7 20 -34q0 -16 -8 -22q-8 -7 -18 -8q-3 0 -10.5 -1.5t-11.5 -2.5q-11 -1 -15 -7v-325q0 -54 -1 -85q-1 -46 -9 -91q-7 -43 -26 -84q-19 -42 -50 -64q-1 -1 -14 -9q-4 -2 -7.5 -4.5 t-8.5 -6t-8 -5.5q-4 -2 -13 -8.5t-13 -9.5q-2 -2 -5 -3.5t-5 -3t-3.5 -2.5t-2.5 -1q-26 -17 -46 -43q-19 -25 -44 -25q-13 0 -16 1q-2 0 -5.5 1t-4.5 2q-1 0 -6 2t-8 3q-15 5 -26 8q-92 18 -128 54t-36 116q0 78 25 170q23 84 68 170q45 85 102 152q60 70 129 120v262 q-16 -59 -25 -90q-17 -57 -35 -96q-20 -44 -51 -76q-29 -31 -67 -31q-34 0 -76 25q-36 21 -74 49q-24 21 -39 65q-12 36 -21 93q-8 50 -9 94q-2 60 -2 65zM45 1020q0 59 44 89q43 30 87 30q10 0 32 -10q20 -9 36 -24q15 -13 28 -35q13 -21 13 -38q0 -11 -17 -25 q-13 -11 -38 -25q-19 -11 -42 -19q-25 -9 -28 -9q-11 0 -32 8q-26 10 -38 17q-24 14 -32 21q-13 12 -13 20zM215 -571q0 -18 1 -34q1 -23 9 -46q6 -19 24 -40q15 -18 46 -18q45 0 71 49q24 45 38 112q14 64 18 129q4 57 4 95v9v227q-49 -39 -88 -100q-42 -66 -67 -130 q-27 -68 -42 -137q-14 -63 -14 -116zM416 1036q0 26 14 43q17 20 35 32q22 14 43 21t39 7q11 0 31 -10q17 -8 34 -24q17 -15 29 -35t12 -38q0 -12 -16 -25q-13 -11 -38 -25q-19 -11 -42 -19q-25 -9 -29 -9q-10 0 -33 7q-21 7 -37 17q-20 13 -30 26q-12 15 -12 32z" />
<glyph unicode="&#x152;" horiz-adv-x="1861" d="M53 594q0 54 6 123q5 61 22 143q14 67 40 146q23 70 63 128q38 55 94 91q55 35 125 35q25 0 79 -13q38 -9 79 -20l37 -8q21 -4 81 -18q39 -9 73 -30q36 -22 66 -56q35 -41 63 -97q24 65 93 112q74 50 153 79q87 32 175 47q94 16 154 16h84h10q17 0 31 -1q7 -1 21 -1 t21 -1q26 -2 39 -4q17 -3 19 -8q26 -26 40 -42q24 -27 41 -51q20 -27 33 -57q14 -30 15 -58q0 -27 -7 -47t-25 -41q-7 32 -31 54q-25 23 -52 34q-32 13 -62 17q-35 5 -56 5h-129q-38 0 -107 -6q-66 -6 -138 -26q-71 -20 -120 -56q-51 -37 -51 -98q0 -129 126 -191 q125 -61 337 -61q3 0 26 5q20 4 25 15q21 -12 39 -52q20 -44 21 -77q0 -16 -3 -40q-3 -22 -14 -33q-50 0 -100 2t-78 2q-45 0 -100 -3q-56 -3 -110 -18t-102 -45q-46 -29 -81 -84q-17 -29 -17 -59q4 -59 40 -95q37 -37 86 -55q51 -18 104 -23q58 -5 90 -5q20 0 27 1t16 1h6 q54 0 106 9t87 48q57 63 92 89t69 26q40 0 61 -16q19 -15 19 -36q0 -28 -24 -57q-56 -59 -122 -92q-68 -34 -140 -52q-74 -19 -142 -23q-77 -5 -127 -5q-45 0 -86 4q-45 4 -95 23q-47 18 -94 57q-44 37 -85 109q-44 -72 -110 -119q-67 -47 -134 -47h-113q-38 0 -79 7 q-50 9 -86 21q-47 16 -84 34q-45 22 -72 46q-49 46 -78 104q-30 59 -48 128q-17 65 -25 136q-7 64 -7 130zM236 614q0 -65 10 -148q11 -88 39 -167q28 -78 80 -136q51 -57 133 -57h86q46 0 86 28q36 25 67 69q29 41 47 89q20 53 25 87q8 51 11 92q3 45 3 92q0 42 -5 119 q-5 73 -19 140q-16 75 -38 133q-25 64 -61 98q-37 34 -86 46q-45 11 -96 11q-93 0 -150 -51q-56 -50 -85 -126q-29 -77 -38 -161q-9 -86 -9 -158zM967 725q3 -17 7 -56q3 -27 3 -50v-93q37 15 85 30q44 14 81 30q-58 23 -99 59q-43 37 -77 80z" />
<glyph unicode="&#x153;" horiz-adv-x="1007" d="M8 328q0 45 7 108q8 71 28 144q22 79 56 146q36 71 91 114q18 18 30 32q18 21 59 21q32 0 71 -24q41 -25 66 -46q18 -13 38 -18q17 -4 35 -27q45 -53 68 -110q34 60 85 102q50 41 118 41q36 0 69 -15t58 -40q23 -23 39 -58q14 -32 16 -67q0 -77 -15 -143 q-14 -63 -46 -115q-30 -49 -75 -77t-104 -28q-5 0 -25 2q-15 2 -30 6q0 -29 8 -71q7 -36 27 -71q18 -31 49 -53t74 -22q59 0 97 24q42 27 63 60q24 37 37 83q16 56 22 89q6 29 12 39q6 11 21 11q30 0 30 -35v-15q0 -51 -18 -114q-18 -65 -57 -118q-38 -52 -100 -91 q-59 -37 -144 -37q-81 0 -138 30q-56 30 -91 81q-28 -51 -73 -87q-43 -34 -108 -34q-10 0 -33 5q-24 5 -46 12q-8 3 -24.5 7t-24.5 7q-27 9 -40 12q-55 10 -91 45q-35 33 -55 83q-21 52 -28 104q-8 61 -8 108zM172 313q0 -28 5 -76q4 -42 20 -84q15 -41 42 -68 q28 -28 72 -28q54 0 84 39t48 94q18 56 24 115q7 69 8 98q2 22 2 38v46q0 51 -4 94q-5 50 -16 87q-12 38 -36 64t-63 26q-19 0 -26 -4q-9 -6 -15 -14q-8 -12 -12 -20q-6 -12 -22 -28q-34 -34 -55 -86t-33 -108q-14 -67 -18 -106q-5 -55 -5 -79zM661 395q0 -16 10 -29 q9 -12 21 -12h4q41 0 70 31q27 29 46 74q19 46 26 88q8 48 8 74v12q0 17 -9 35t-34 18q-37 0 -64 -39q-25 -35 -44 -89q-17 -47 -25 -96q-9 -56 -9 -61v-6z" />
<glyph unicode="&#x178;" horiz-adv-x="1155" d="M-43 664q0 66 13 141q14 79 39 158t63 156t85 136q49 61 107 96t127 35q53 0 82 -27q24 -23 59 -63q4 -3 15 -12t19 -15q28 -24 32 -28q15 -15 24 -52q10 -41 14 -81q6 -59 7 -84q2 -54 2 -63q0 -96 -10 -183q-11 -96 -24 -184q-9 -61 -23 -185q-10 -89 -10 -186 q0 -8 2 -50q2 -31 9 -63q9 -37 21 -55q15 -22 41 -22q25 0 49 40q28 48 48 104q25 70 44 144q20 76 37 156q19 90 29 146q18 101 19 108q11 66 15 132q5 73 5 145q0 17 -2 47t-2 41q0 12 20 16q19 4 37 4q14 0 35 -4q24 -4 51 -12q14 -4 47 -18q21 -9 21 -19q0 -38 -10 -74 q-17 -124 -27 -232q-10 -104 -10 -220q0 -76 9 -193t9 -246q0 -83 -8 -171q-7 -78 -31 -148q-23 -67 -61 -108q-39 -42 -103 -48q-40 -4 -91 -6q-66 -2 -91 -2q-38 0 -82 10q-49 11 -89 34q-42 24 -70 58q-29 35 -29 84q0 11 7 28t22 17q41 0 61 -26q15 -20 41 -60 q20 -32 52 -59t95 -27q60 0 95 30q34 30 54 80q19 48 25 115q7 75 7 132q0 65 -3 128q-4 84 -4 115q0 29 1 43q1 8 2.5 20.5t1.5 16.5q-20 -70 -35 -129q-17 -70 -47 -135q-28 -61 -71 -106q-42 -43 -103 -43q-59 0 -102 25q-45 26 -73 69t-43 97q-14 50 -14 110 q0 102 10 198q7 67 23 203q8 68 22 206q11 108 11 210q0 12 -2 58q-1 28 -12 66q-9 31 -27 54t-52 23q-33 0 -60 -21q-32 -24 -50 -43q-92 -95 -144 -226q-53 -133 -53 -280q0 -24 3 -56q3 -33 15 -61q13 -31 31 -49q20 -20 54 -20q19 0 30 11q16 16 23 25q10 14 21 24 q11 11 26 11q22 0 39 -30q16 -29 16 -49q0 -30 -14 -44q-16 -16 -35 -23q-18 -6 -44 -8q-16 -1 -44 -1q-21 0 -50 11q-33 13 -48 22q-66 35 -93 87q-28 54 -28 124zM512 1430q0 59 44 89q42 29 87 29q13 0 32 -9q17 -8 36 -25q16 -15 28 -34q13 -21 13 -38q0 -12 -17 -26 q-9 -8 -38 -24q-23 -13 -42 -20q-22 -8 -28 -8q-14 0 -32 7q-21 8 -38 18q-24 14 -32 21q-13 12 -13 20zM883 1446q0 26 14 43q17 20 35 32t43 20q21 7 39 7q12 0 30 -9q17 -8 35 -25t29 -34q12 -20 12 -38q0 -13 -16 -26q-9 -8 -38 -24q-23 -13 -42 -20q-22 -8 -29 -8 q-14 0 -33 6t-37 18q-21 14 -30 25q-12 15 -12 33z" />
<glyph unicode="&#x2c6;" horiz-adv-x="628" d="M51 911v4q0 7 2 15q1 4 13 16l34 39q9 9 61 52q43 36 115 112q6 6 24 26q14 15 38 15t29 -4t10 -15q4 -10 13 -26q10 -17 36 -41q74 -83 111 -120q49 -49 49 -77q0 -33 -25 -33q-17 0 -27 7t-17 15q-3 3 -8.5 11t-7.5 11q-8 10 -26 22l-100 66q-26 18 -30 29 q-5 14 -11 14h-4q-9 0 -20 -9q-12 -10 -27 -20l-215 -150q-5 0 -11 16q-6 15 -6 25z" />
<glyph unicode="&#x2dc;" horiz-adv-x="700" d="M51 1016q0 65 47 97t107 32q47 0 84 -18q44 -21 67 -36q9 -6 28.5 -18t29.5 -19q27 -18 53 -18q46 0 64 23t18 53q0 17 12 23t21 6q19 0 33 -20t14 -54q0 -39 -18 -65q-18 -25 -43 -40q-27 -16 -53 -23q-25 -7 -50 -7q-41 0 -81 12q-41 12 -81 49q-12 28 -38 39 q-24 10 -48 10q-46 0 -67 -22q-22 -23 -23 -55q-6 -6 -13 -7q-12 -2 -16 -2q-47 0 -47 60z" />
<glyph unicode="&#x2000;" horiz-adv-x="829" />
<glyph unicode="&#x2001;" horiz-adv-x="1659" />
<glyph unicode="&#x2002;" horiz-adv-x="829" />
<glyph unicode="&#x2003;" horiz-adv-x="1659" />
<glyph unicode="&#x2004;" horiz-adv-x="553" />
<glyph unicode="&#x2005;" horiz-adv-x="414" />
<glyph unicode="&#x2006;" horiz-adv-x="276" />
<glyph unicode="&#x2007;" horiz-adv-x="276" />
<glyph unicode="&#x2008;" horiz-adv-x="207" />
<glyph unicode="&#x2009;" horiz-adv-x="331" />
<glyph unicode="&#x200a;" horiz-adv-x="92" />
<glyph unicode="&#x2010;" horiz-adv-x="741" d="M123 496q0 28 12 46q11 17 47 17h6q13 -1 25 -4q4 -1 14 -3q5 -1 26 -1h56q93 0 150 3q60 3 108 13l8 -10q15 -21 18 -26q11 -18 17 -33q8 -19 8 -37q0 -31 -16 -57q-16 -27 -72 -27h-12q-30 0 -88 5q-60 5 -149 5h-33q-46 0 -86 31q-39 30 -39 78z" />
<glyph unicode="&#x2011;" horiz-adv-x="741" d="M123 496q0 28 12 46q11 17 47 17h6q13 -1 25 -4q4 -1 14 -3q5 -1 26 -1h56q93 0 150 3q60 3 108 13l8 -10q15 -21 18 -26q11 -18 17 -33q8 -19 8 -37q0 -31 -16 -57q-16 -27 -72 -27h-12q-30 0 -88 5q-60 5 -149 5h-33q-46 0 -86 31q-39 30 -39 78z" />
<glyph unicode="&#x2012;" horiz-adv-x="741" d="M123 496q0 28 12 46q11 17 47 17h6q13 -1 25 -4q4 -1 14 -3q5 -1 26 -1h56q93 0 150 3q60 3 108 13l8 -10q15 -21 18 -26q11 -18 17 -33q8 -19 8 -37q0 -31 -16 -57q-16 -27 -72 -27h-12q-30 0 -88 5q-60 5 -149 5h-33q-46 0 -86 31q-39 30 -39 78z" />
<glyph unicode="&#x2013;" horiz-adv-x="1077" d="M80 494q0 26 19 44q18 17 75 17h10q22 0 62 -2q28 -1 68 -3q13 -1 42 -1.5t44 -0.5q32 -1 110 -1q147 0 249 3q105 3 183 13l9 -9q9 -9 21 -24q9 -11 21 -32q11 -19 11 -37q0 -5 -1.5 -14.5t-1.5 -12.5q-1 -13 -12 -27q-11 -15 -35 -22q-26 -8 -69 -8h-19q-10 0 -86 2 q-12 0 -58 1.5t-75 2.5q-21 0 -77 1.5t-89 2.5q-120 2 -182 2q-97 0 -160 22q-59 21 -59 83z" />
<glyph unicode="&#x2014;" horiz-adv-x="1380" d="M94 479q0 7 2 27q1 11 12 24q9 10 27 18q17 7 49 7q48 0 81 -1q42 -1 111 -3q50 -1 127 -3q44 -1 130 -1q103 0 161 1q97 2 170 3q62 1 153 5q79 3 112 7l13 -9q15 -10 29 -24q17 -17 27 -32q13 -20 13 -37q0 -10 -5 -27q-4 -12 -22 -27t-48 -22q-34 -8 -85 -8 q-35 0 -258 5t-508 5h-18q-36 0 -100 2q-42 1 -87 10q-36 7 -62 28q-24 19 -24 52z" />
<glyph unicode="&#x2018;" horiz-adv-x="440" d="M70 1124q0 43 23 72q26 32 57 52q35 22 69 33t62 11q8 0 17 -3t13 -13q-13 0 -28 -4q-22 -6 -32 -11q-14 -7 -27 -20q-11 -11 -11 -31q0 -11 26 -19q28 -8 55 -15q25 -6 55 -22q26 -14 26 -38q0 -8 -3 -12q-1 -2 -7 -17q-6 -26 -24 -46q-15 -16 -39 -30q-22 -13 -44 -17 q-25 -5 -39 -5q-24 0 -50 9q-25 9 -48 27q-22 18 -37 43q-14 24 -14 56z" />
<glyph unicode="&#x2019;" horiz-adv-x="411" d="M72 1165q0 9 3 13q2 3 7 16q6 30 23 47q18 18 39 30q19 11 44 16t39 5q26 0 51 -9q26 -9 48 -27q20 -16 36 -43q15 -25 15 -56q0 -39 -24 -71q-26 -34 -56 -53q-34 -21 -70 -33q-34 -11 -61 -11q-9 0 -18 3q-8 3 -13 14q14 0 30 4q22 6 33 11q15 7 25 19q10 11 10 31 q0 13 -25 20q-28 8 -55 15q-31 8 -56 21t-25 38z" />
<glyph unicode="&#x201a;" horiz-adv-x="462" d="M72 80q0 8 3 12q1 2 7 17q6 30 23 47q16 16 39 29q22 13 44 17q25 5 39 5q26 0 51 -9q26 -9 48 -27q20 -16 36 -43q15 -25 15 -56q0 -40 -24 -71q-26 -34 -56 -53q-34 -21 -70 -33q-34 -11 -61 -11q-9 0 -18 3t-13 13q14 0 30 4q22 6 33 11q13 7 25 20q10 11 10 31 q0 12 -25 19q-28 8 -55 15t-56 22q-25 13 -25 38z" />
<glyph unicode="&#x201c;" horiz-adv-x="835" d="M70 1124q0 43 23 72q26 32 57 52q35 22 69 33t62 11q8 0 17 -3t13 -13q-13 0 -28 -4q-22 -6 -32 -11q-14 -7 -27 -20q-11 -11 -11 -31q0 -11 26 -19q28 -8 55 -15q25 -6 55 -22q26 -14 26 -38q0 -8 -3 -12q-1 -2 -7 -17q-6 -26 -24 -46q-15 -16 -39 -30q-22 -13 -44 -17 q-25 -5 -39 -5q-24 0 -50 9q-25 9 -48 27q-22 18 -37 43q-14 24 -14 56zM459 1124q0 43 23 72q26 32 57 52q35 22 69 33t62 11q8 0 17 -3t13 -13q-13 0 -28 -4q-22 -6 -32 -11q-14 -7 -27 -20q-11 -11 -11 -31q0 -11 26 -19q28 -8 55 -15q25 -6 55 -22q26 -14 26 -38 q0 -8 -3 -12q-1 -2 -7 -17q-6 -26 -24 -46q-15 -16 -39 -30q-22 -13 -44 -17q-25 -5 -39 -5q-24 0 -50 9t-48 27t-37 43q-14 24 -14 56z" />
<glyph unicode="&#x201d;" horiz-adv-x="835" d="M72 1165q0 9 3 13q2 3 7 16q6 30 23 47q18 18 39 30q19 11 44 16t39 5q26 0 51 -9q26 -9 48 -27q20 -16 36 -43q15 -25 15 -56q0 -39 -24 -71q-26 -34 -56 -53q-34 -21 -70 -33q-34 -11 -61 -11q-9 0 -18 3q-8 3 -13 14q14 0 30 4q22 6 33 11q15 7 25 19q10 11 10 31 q0 13 -25 20q-28 8 -55 15q-31 8 -56 21t-25 38zM461 1165q0 9 3 13q2 3 7 16q6 29 24 47t39 30q19 11 44 16t38 5q26 0 51 -9t48 -27q22 -18 37 -43q14 -24 14 -56q0 -39 -24 -71q-26 -34 -56 -53q-34 -21 -70 -33q-34 -11 -61 -11q-8 0 -17 3t-14 14q14 0 30 4q22 6 33 11 q15 7 25 19q11 13 11 31q0 12 -26 20q-28 8 -55 15q-31 8 -56 21t-25 38z" />
<glyph unicode="&#x201e;" horiz-adv-x="835" d="M72 80q0 8 3 12q1 2 7 17q6 30 23 47q16 16 39 29q22 13 44 17q25 5 39 5q26 0 51 -9q26 -9 48 -27q20 -16 36 -43q15 -25 15 -56q0 -40 -24 -71q-26 -34 -56 -53q-34 -21 -70 -33q-34 -11 -61 -11q-9 0 -18 3t-13 13q14 0 30 4q22 6 33 11q13 7 25 20q10 11 10 31 q0 12 -25 19q-28 8 -55 15t-56 22q-25 13 -25 38zM459 80q0 8 3 12q1 2 7 17q6 29 24 47q17 17 38 29q22 13 44 17q25 5 39 5q26 0 51 -9t48 -27q22 -18 37 -43q14 -24 14 -56q0 -40 -24 -71q-26 -34 -56 -53q-34 -21 -70 -33q-34 -11 -61 -11q-8 0 -17 3q-10 3 -14 13 q14 0 30 4q22 6 33 11q13 7 25 20q11 13 11 31q0 11 -26 19q-28 8 -55 15t-56 22q-25 13 -25 38z" />
<glyph unicode="&#x2022;" horiz-adv-x="1034" d="M156 567q0 62 21 119q21 56 64 104q42 46 103 73q64 28 141 28q39 0 68 -10q44 -14 67 -22q33 -11 62 -36q61 -16 106 -64q46 -49 46 -124q0 -76 -34 -137q-36 -64 -91 -106t-130 -67q-72 -24 -153 -24q-120 0 -196 64q-74 62 -74 202z" />
<glyph unicode="&#x2026;" horiz-adv-x="1671" d="M143 70v10q0 23 22 45q19 19 51 35q24 12 62 21q29 7 52 7q20 0 44 -10q31 -13 50 -27q26 -20 42 -38q17 -20 17 -41q0 -14 -23 -28q-27 -17 -54 -29q-28 -13 -60 -21q-30 -8 -41 -8q-46 0 -81 19q-40 21 -74 36q6 6 6 16q0 8 -13 13zM655 70v10q0 23 22 45q19 19 51 35 q24 12 62 21q29 7 52 7q20 0 44 -10q31 -13 50 -27q26 -20 42 -38q17 -20 17 -41q0 -14 -23 -28q-27 -17 -54 -29q-28 -13 -60 -21q-30 -8 -41 -8q-46 0 -81 19q-40 21 -74 36q6 6 6 16q0 8 -13 13zM1188 70v10q0 24 21 45q18 18 52 35q25 12 61 21q29 7 52 7q20 0 44 -10 q31 -13 50 -27q26 -20 42 -38q18 -21 18 -41q0 -13 -24 -28q-27 -17 -54 -29q-29 -13 -59 -21t-41 -8q-46 0 -81 19q-36 19 -75 36q6 6 6 16q0 9 -12 13z" />
<glyph unicode="&#x202f;" horiz-adv-x="331" />
<glyph unicode="&#x2039;" horiz-adv-x="786" d="M96 418q0 35 33 62q27 22 64 48q32 21 68 58q9 10 20 20.5t24.5 24l20.5 20.5v-2q66 69 138 129q79 65 144 135v2q14 14 27 18q17 5 26 5q30 0 50 -20t20 -52q0 -10 -3 -17t-3 -15q-55 -62 -103 -103q-71 -61 -108 -96q-22 -20 -54 -55q-36 -40 -58 -62q-40 -40 -60 -58 q-27 -24 -66 -48q19 -22 30 -29l10.5 -7t11.5 -7q40 -23 90 -72q54 -54 90 -94q23 -25 50 -49q10 -9 56 -55q20 -20 46 -52q20 -25 20 -43q0 -29 -20 -51q-20 -21 -48 -21q-8 0 -20 5q-9 4 -21 4q-41 35 -71 66l-66 68q-22 23 -69 70q-39 39 -86 76q-88 74 -131 115 q-52 49 -52 82z" />
<glyph unicode="&#x203a;" horiz-adv-x="802" d="M96 866q0 31 21 52q20 20 49 20q10 0 27 -5q11 -3 26 -18v-2q62 -66 145 -135q72 -60 138 -129v2q43 -43 64 -65q34 -36 69 -58q30 -21 63 -48t33 -62q0 -33 -52 -82t-130 -115q-47 -37 -86 -76q-9 -9 -23.5 -23t-25.5 -25.5t-21 -21.5q-42 -44 -64 -68q-23 -25 -73 -66 q-11 0 -20 -4q-12 -5 -21 -5q-29 0 -48 21q-20 22 -20 51q0 18 20 43q26 32 46 52q46 46 56 55q27 24 50 49q27 30 91 94q50 49 90 72q4 2 10.5 7t10.5 7q11 7 30 29q-67 44 -125 108q-54 59 -113 115q-47 45 -106 95q-54 45 -105 104q0 8 -3 15t-3 17z" />
<glyph unicode="&#x205f;" horiz-adv-x="414" />
<glyph unicode="&#x20ac;" horiz-adv-x="1191" d="M14 694q0 20 18 38q19 19 38 20h190q17 118 52 214t86 168q48 68 114 109q63 39 133 39h49q44 0 71 -9q24 -8 51 -25q8 -5 50 -33q20 -14 68 -33q36 -10 59 -33q21 -21 37 -48t20 -50q5 -27 5 -39v-4q0 -17 -3 -38q-3 -22 -15 -40q-13 -19 -36 -32q-24 -14 -67 -15 q-66 0 -91 26q-26 28 -26 72q0 9 2 19t3 14q2 6 3 15q2 12 2 28q0 50 -17 73q-19 25 -71 25q-63 0 -112 -33q-50 -33 -84 -88q-37 -59 -55 -127q-18 -67 -23 -151h428q41 0 41 -37q0 -22 -18 -52t-54 -30h-407v-92h444q43 0 43 -39q0 -23 -19 -52q-19 -30 -55 -30h-409 q5 -62 19 -122q15 -64 49 -114q35 -52 88 -84q52 -32 137 -32q59 0 104 15q42 14 78 40q32 23 49 53q16 28 16 53q0 55 24 92t73 37q37 0 49 -19q12 -20 12 -44q0 -21 -3 -42q-3 -22 -9 -34q-29 -79 -76 -127q-47 -47 -107 -71q-65 -26 -128 -33q-72 -8 -138 -8 q-401 0 -446 438h-170q-33 5 -46 20q-14 17 -14 33q0 19 18 41q19 24 40 25h168v20v37q0 7 2 37h-174q-33 5 -46 23q-14 20 -14 36z" />
<glyph unicode="&#x2122;" horiz-adv-x="1024" d="M-37 1067q0 22 14 32q14 11 34 16q19 4 38 6q12 1 27 1q19 0 29 -1q41 -4 47 -5v10q4 22 19 34q14 11 32 11q15 0 30 -9t21 -32l-2 -20q20 -3 58 -5q16 -1 59 -1h8q12 6 22 6q21 0 35 -13t14 -36q0 -32 -26 -44q-25 -11 -49 -11q-32 0 -62 3q-40 4 -59 7q-1 -110 -3 -215 q-1 -66 -1 -213q0 -26 -18 -40q-17 -13 -33 -13q-42 0 -52 49v85q0 29 2 83q2 92 2 144v128q-30 2 -33 2h-22q-8 0 -28 -2q-17 -2 -50 -6q-53 11 -53 49zM510 614v476q4 22 21 33q18 12 34 12q24 0 41 -23q25 -7 47 -38q19 -28 38 -68q16 -34 31 -80q10 -30 26 -74q4 4 5 8 t5 8q30 50 62 113q31 62 54 131v2q4 21 20 34q14 11 32 11q39 0 51 -41v-540q0 -26 -17 -40t-32 -14q-16 0 -34 12q-17 11 -17 33v308q-8 -15 -25 -44t-23 -39q-26 -45 -45 -85q2 -2 2 -15q0 -23 -14 -37t-33 -14q-16 0 -32 16t-21 56q-10 44 -32 104q-14 38 -40 103v-303 q0 -27 -17 -40q-19 -14 -36 -14q-16 0 -32 13q-14 12 -19 36z" />
<glyph unicode="&#x25fc;" horiz-adv-x="921" d="M0 0v922h922v-922h-922z" />
<glyph unicode="&#xfb01;" horiz-adv-x="897" d="M-18 397q0 26 11 41q12 16 30 27q14 8 42 17q38 12 46 14q13 60 17 78q0 1 25 111q4 19 13 61t14 65q9 38 26 127q6 30 18 115q7 49 7 88q0 33 -5 65q-5 31 -25 60q15 9 48 17q28 7 68 7q12 0 34 -5q20 -5 37 -16q18 -12 30 -27t12 -36q0 -43 -20 -127q-15 -62 -50 -192 q-19 -70 -57 -208q-10 -34 -25.5 -90.5t-21.5 -78.5q33 6 78 19q52 15 106 38q58 25 95 51q41 29 43 60l-4 12q-1 3 -1 8q0 6 15 11q6 2 16 4.5l14 3.5q19 4 46 4q2 0 5 -0.5t9 -1t10 -0.5q16 -1 37 -10q17 -7 33 -23q14 -14 14 -39q0 -8 -10 -41q-13 -41 -19 -76v2 q-1 -29 -6 -67q-4 -29 -6 -69q-2 -50 -2 -79q0 -39 3 -80t12 -72q8 -29 25 -51q15 -20 40 -20q65 0 109 70q42 66 57 217q4 22 24 22q16 0 31 -15q14 -14 14 -50l-2 -14q-7 -50 -26 -113q-17 -58 -50 -109q-31 -49 -78 -82q-45 -32 -112 -32q-54 0 -91 24q-36 23 -61 62 q-24 37 -34 80q-10 41 -10 79q0 7 5 105t5 219q-27 -45 -80 -75q-42 -24 -86 -46l-8 -4q22 -24 36 -60q13 -33 19 -77q7 -45 8 -84q2 -58 2 -84q0 -9 -3 -62t-12 -123q-7 -54 -25 -150q-15 -78 -39 -145q-26 -70 -55 -111q-32 -44 -77 -44q-19 0 -43 9q-21 8 -48 23 q-19 11 -44 32q-20 17 -31 36q-17 33 -28 120q-10 81 -10 233q0 79 6 168q2 27 6.5 93t7.5 105l-16 6q-27 10 -59 26q-29 15 -29 54zM201 -188q0 -14 1 -34q2 -45 4 -65q3 -35 12 -63q9 -29 24 -29q24 0 45 32q19 28 35 80q9 28 25 105q12 56 18 107q6 49 9 84t3 39v129 q0 1 -0.5 5t-1 11.5t-0.5 15.5q-1 25 -8 62q-5 29 -17 59q-10 27 -26 27q-2 0 -19 -5q-1 0 -31 -14l-41 -20q-11 -74 -19 -203q-7 -108 -13 -323zM539 991q0 11 15 19q22 11 35 16q20 8 37 12q16 4 23 4q42 0 81 -20q41 -21 65 -76l5 -8q5 -7 10 -13q11 -14 11 -22 q0 -15 -14 -23q-17 -10 -32 -14q-18 -5 -34 -6q-4 0 -7.5 -0.5t-5.5 -1t-4 -0.5h-3q-41 0 -85 25q-41 24 -77 78l-12 16q-8 11 -8 14z" />
<glyph unicode="&#xfb02;" horiz-adv-x="962" d="M-18 397q0 26 11 41q12 16 30 27q14 8 42 17q38 12 46 14q14 82 20 124q20 130 25 171q13 101 20 185q8 99 8 165q0 33 -5 65q-5 31 -25 60q15 9 48 17q28 7 68 7q12 0 34 -5q20 -5 37 -16q18 -12 30 -27t12 -36q0 -52 -12 -112q-22 -109 -25 -127q-15 -78 -36 -192 t-54 -267h53q70 0 134 14q68 15 124 39q1 68 10 204q8 124 19 220q2 14 7 43t7 42q7 41 20 88q16 55 23 76q11 32 27 48q18 18 44 22q30 5 50 5q46 0 76 -25q29 -25 44 -63q16 -41 20 -85q6 -62 6 -87q0 -111 -22 -202q-20 -85 -52 -151q-28 -59 -67 -106q-36 -44 -66 -72 q0 -148 7 -236q8 -101 23 -153q17 -58 42 -82t61 -24q25 0 39 11t25 25q12 15 23 26t30 11t27 -12q7 -11 7 -29q0 -26 -17 -43q-16 -16 -43 -32q-23 -14 -53 -22q-25 -7 -46 -7q-38 0 -77 7q-43 8 -71 30q-66 46 -94 154q-29 110 -29 309q-68 -32 -135 -52q32 -63 36 -132 q5 -80 5 -152q0 -11 -3 -62q-4 -61 -10 -120q-8 -73 -22 -146q-15 -79 -37 -143q-22 -65 -54 -109q-31 -43 -77 -43q-19 0 -43 9q-21 8 -48 23q-19 11 -44 32q-20 17 -31 36q-17 33 -28 120q-10 81 -10 233q0 71 6 170l12 196l2 23q-50 0 -77 12t-27 51zM201 -188 q0 -14 1 -34q2 -45 4 -65q3 -35 12 -63q9 -29 24 -29q24 0 44 32q16 26 33 80q15 48 24 105q9 55 15 107q8 69 9 84q0 10 0.5 19.5t1 14t0.5 5.5v129q0 13 -1 32q-2 43 -4 62q-2 24 -8 59q-5 28 -12 29l-41 -6l-48 -8q-20 -5 -22 -13q-11 -74 -19 -209q-7 -112 -13 -331z M713 637q10 11 33 48q20 32 38 76q20 49 31 100q12 57 12 124q0 29 -1 45q-2 25 -6 46q-4 19 -13 37q-7 15 -23 15q-18 0 -31 -32q-14 -35 -23 -87q-8 -49 -13 -122q-4 -60 -4 -137v-113z" />
</font>
</defs>
</svg>
